solid Mesh
  facet normal 0.999048 0.0436194 0
    outer loop
      vertex 0.23622 0 7.87402
      vertex 0.235322 0.020588 0
      vertex 0.235322 0.020588 7.87402
    endloop
  endfacet
  facet normal 0.991445 0.130526 0
    outer loop
      vertex 0.235322 0.020588 0
      vertex 0.232632 0.0410193 0
      vertex 0.235322 0.020588 7.87402
    endloop
  endfacet
  facet normal 0.991445 0.130526 0
    outer loop
      vertex 0.235322 0.020588 7.87402
      vertex 0.232632 0.0410193 0
      vertex 0.232632 0.0410193 7.87402
    endloop
  endfacet
  facet normal 0.976296 0.216439 0
    outer loop
      vertex 0.232632 0.0410193 0
      vertex 0.228171 0.0611384 0
      vertex 0.232632 0.0410193 7.87402
    endloop
  endfacet
  facet normal 0.976296 0.216439 0
    outer loop
      vertex 0.232632 0.0410193 7.87402
      vertex 0.228171 0.0611384 0
      vertex 0.228171 0.0611384 7.87402
    endloop
  endfacet
  facet normal 0.953717 0.300706 0
    outer loop
      vertex 0.228171 0.0611384 0
      vertex 0.221975 0.0807922 0
      vertex 0.228171 0.0611384 7.87402
    endloop
  endfacet
  facet normal 0.953717 0.300706 0
    outer loop
      vertex 0.228171 0.0611384 7.87402
      vertex 0.221975 0.0807922 0
      vertex 0.221975 0.0807922 7.87402
    endloop
  endfacet
  facet normal 0.92388 0.382683 0
    outer loop
      vertex 0.221975 0.0807922 0
      vertex 0.214088 0.0998311 0
      vertex 0.221975 0.0807922 7.87402
    endloop
  endfacet
  facet normal 0.92388 0.382683 0
    outer loop
      vertex 0.221975 0.0807922 7.87402
      vertex 0.214088 0.0998311 0
      vertex 0.214088 0.0998311 7.87402
    endloop
  endfacet
  facet normal 0.887011 0.461749 0
    outer loop
      vertex 0.214088 0.0998311 0
      vertex 0.204573 0.11811 0
      vertex 0.214088 0.0998311 7.87402
    endloop
  endfacet
  facet normal 0.887011 0.461749 0
    outer loop
      vertex 0.214088 0.0998311 7.87402
      vertex 0.204573 0.11811 0
      vertex 0.204573 0.11811 7.87402
    endloop
  endfacet
  facet normal 0.843392 0.537299 0
    outer loop
      vertex 0.204573 0.11811 0
      vertex 0.1935 0.13549 0
      vertex 0.204573 0.11811 7.87402
    endloop
  endfacet
  facet normal 0.843392 0.537299 0
    outer loop
      vertex 0.204573 0.11811 7.87402
      vertex 0.1935 0.13549 0
      vertex 0.1935 0.13549 7.87402
    endloop
  endfacet
  facet normal 0.793353 0.608762 0
    outer loop
      vertex 0.1935 0.13549 0
      vertex 0.180955 0.15184 0
      vertex 0.1935 0.13549 7.87402
    endloop
  endfacet
  facet normal 0.793353 0.608762 0
    outer loop
      vertex 0.1935 0.13549 7.87402
      vertex 0.180955 0.15184 0
      vertex 0.180955 0.15184 7.87402
    endloop
  endfacet
  facet normal 0.737277 0.675591 0
    outer loop
      vertex 0.180955 0.15184 0
      vertex 0.167033 0.167033 0
      vertex 0.180955 0.15184 7.87402
    endloop
  endfacet
  facet normal 0.737277 0.675591 0
    outer loop
      vertex 0.180955 0.15184 7.87402
      vertex 0.167033 0.167033 0
      vertex 0.167033 0.167033 7.87402
    endloop
  endfacet
  facet normal 0.675591 0.737277 0
    outer loop
      vertex 0.167033 0.167033 0
      vertex 0.15184 0.180955 0
      vertex 0.167033 0.167033 7.87402
    endloop
  endfacet
  facet normal 0.675591 0.737277 0
    outer loop
      vertex 0.167033 0.167033 7.87402
      vertex 0.15184 0.180955 0
      vertex 0.15184 0.180955 7.87402
    endloop
  endfacet
  facet normal 0.608762 0.793353 0
    outer loop
      vertex 0.15184 0.180955 0
      vertex 0.13549 0.1935 0
      vertex 0.15184 0.180955 7.87402
    endloop
  endfacet
  facet normal 0.608762 0.793353 0
    outer loop
      vertex 0.15184 0.180955 7.87402
      vertex 0.13549 0.1935 0
      vertex 0.13549 0.1935 7.87402
    endloop
  endfacet
  facet normal 0.537299 0.843392 0
    outer loop
      vertex 0.13549 0.1935 0
      vertex 0.11811 0.204573 0
      vertex 0.13549 0.1935 7.87402
    endloop
  endfacet
  facet normal 0.537299 0.843392 0
    outer loop
      vertex 0.13549 0.1935 7.87402
      vertex 0.11811 0.204573 0
      vertex 0.11811 0.204573 7.87402
    endloop
  endfacet
  facet normal 0.461749 0.887011 0
    outer loop
      vertex 0.11811 0.204573 0
      vertex 0.0998311 0.214088 0
      vertex 0.11811 0.204573 7.87402
    endloop
  endfacet
  facet normal 0.461749 0.887011 0
    outer loop
      vertex 0.11811 0.204573 7.87402
      vertex 0.0998311 0.214088 0
      vertex 0.0998311 0.214088 7.87402
    endloop
  endfacet
  facet normal 0.382683 0.92388 0
    outer loop
      vertex 0.0998311 0.214088 0
      vertex 0.0807922 0.221975 0
      vertex 0.0998311 0.214088 7.87402
    endloop
  endfacet
  facet normal 0.382683 0.92388 0
    outer loop
      vertex 0.0998311 0.214088 7.87402
      vertex 0.0807922 0.221975 0
      vertex 0.0807922 0.221975 7.87402
    endloop
  endfacet
  facet normal 0.300706 0.953717 0
    outer loop
      vertex 0.0807922 0.221975 0
      vertex 0.0611384 0.228171 0
      vertex 0.0807922 0.221975 7.87402
    endloop
  endfacet
  facet normal 0.300706 0.953717 0
    outer loop
      vertex 0.0807922 0.221975 7.87402
      vertex 0.0611384 0.228171 0
      vertex 0.0611384 0.228171 7.87402
    endloop
  endfacet
  facet normal 0.216439 0.976296 0
    outer loop
      vertex 0.0611384 0.228171 0
      vertex 0.0410193 0.232632 0
      vertex 0.0611384 0.228171 7.87402
    endloop
  endfacet
  facet normal 0.216439 0.976296 0
    outer loop
      vertex 0.0611384 0.228171 7.87402
      vertex 0.0410193 0.232632 0
      vertex 0.0410193 0.232632 7.87402
    endloop
  endfacet
  facet normal 0.130526 0.991445 0
    outer loop
      vertex 0.0410193 0.232632 0
      vertex 0.020588 0.235322 0
      vertex 0.0410193 0.232632 7.87402
    endloop
  endfacet
  facet normal 0.130526 0.991445 0
    outer loop
      vertex 0.0410193 0.232632 7.87402
      vertex 0.020588 0.235322 0
      vertex 0.020588 0.235322 7.87402
    endloop
  endfacet
  facet normal 0.0436194 0.999048 0
    outer loop
      vertex 0.020588 0.235322 0
      vertex 6.69158e-17 0.23622 0
      vertex 0.020588 0.235322 7.87402
    endloop
  endfacet
  facet normal 0.0436194 0.999048 0
    outer loop
      vertex 0.020588 0.235322 7.87402
      vertex 6.69158e-17 0.23622 0
      vertex 6.69158e-17 0.23622 7.87402
    endloop
  endfacet
  facet normal -0.0436194 0.999048 0
    outer loop
      vertex 6.69158e-17 0.23622 0
      vertex -0.020588 0.235322 0
      vertex 6.69158e-17 0.23622 7.87402
    endloop
  endfacet
  facet normal -0.0436194 0.999048 0
    outer loop
      vertex 6.69158e-17 0.23622 7.87402
      vertex -0.020588 0.235322 0
      vertex -0.020588 0.235322 7.87402
    endloop
  endfacet
  facet normal -0.130526 0.991445 0
    outer loop
      vertex -0.020588 0.235322 0
      vertex -0.0410193 0.232632 0
      vertex -0.020588 0.235322 7.87402
    endloop
  endfacet
  facet normal -0.130526 0.991445 0
    outer loop
      vertex -0.020588 0.235322 7.87402
      vertex -0.0410193 0.232632 0
      vertex -0.0410193 0.232632 7.87402
    endloop
  endfacet
  facet normal -0.216439 0.976296 0
    outer loop
      vertex -0.0410193 0.232632 0
      vertex -0.0611384 0.228171 0
      vertex -0.0410193 0.232632 7.87402
    endloop
  endfacet
  facet normal -0.216439 0.976296 0
    outer loop
      vertex -0.0410193 0.232632 7.87402
      vertex -0.0611384 0.228171 0
      vertex -0.0611384 0.228171 7.87402
    endloop
  endfacet
  facet normal -0.300706 0.953717 0
    outer loop
      vertex -0.0611384 0.228171 0
      vertex -0.0807922 0.221975 0
      vertex -0.0611384 0.228171 7.87402
    endloop
  endfacet
  facet normal -0.300706 0.953717 0
    outer loop
      vertex -0.0611384 0.228171 7.87402
      vertex -0.0807922 0.221975 0
      vertex -0.0807922 0.221975 7.87402
    endloop
  endfacet
  facet normal -0.382683 0.92388 0
    outer loop
      vertex -0.0807922 0.221975 0
      vertex -0.0998311 0.214088 0
      vertex -0.0807922 0.221975 7.87402
    endloop
  endfacet
  facet normal -0.382683 0.92388 0
    outer loop
      vertex -0.0807922 0.221975 7.87402
      vertex -0.0998311 0.214088 0
      vertex -0.0998311 0.214088 7.87402
    endloop
  endfacet
  facet normal -0.461749 0.887011 0
    outer loop
      vertex -0.0998311 0.214088 0
      vertex -0.11811 0.204573 0
      vertex -0.0998311 0.214088 7.87402
    endloop
  endfacet
  facet normal -0.461749 0.887011 0
    outer loop
      vertex -0.0998311 0.214088 7.87402
      vertex -0.11811 0.204573 0
      vertex -0.11811 0.204573 7.87402
    endloop
  endfacet
  facet normal -0.537299 0.843392 0
    outer loop
      vertex -0.11811 0.204573 0
      vertex -0.13549 0.1935 0
      vertex -0.11811 0.204573 7.87402
    endloop
  endfacet
  facet normal -0.537299 0.843392 0
    outer loop
      vertex -0.11811 0.204573 7.87402
      vertex -0.13549 0.1935 0
      vertex -0.13549 0.1935 7.87402
    endloop
  endfacet
  facet normal -0.608762 0.793353 0
    outer loop
      vertex -0.13549 0.1935 0
      vertex -0.15184 0.180955 0
      vertex -0.13549 0.1935 7.87402
    endloop
  endfacet
  facet normal -0.608762 0.793353 0
    outer loop
      vertex -0.13549 0.1935 7.87402
      vertex -0.15184 0.180955 0
      vertex -0.15184 0.180955 7.87402
    endloop
  endfacet
  facet normal -0.675591 0.737277 0
    outer loop
      vertex -0.15184 0.180955 0
      vertex -0.167033 0.167033 0
      vertex -0.15184 0.180955 7.87402
    endloop
  endfacet
  facet normal -0.675591 0.737277 0
    outer loop
      vertex -0.15184 0.180955 7.87402
      vertex -0.167033 0.167033 0
      vertex -0.167033 0.167033 7.87402
    endloop
  endfacet
  facet normal -0.737277 0.675591 0
    outer loop
      vertex -0.167033 0.167033 0
      vertex -0.180955 0.15184 0
      vertex -0.167033 0.167033 7.87402
    endloop
  endfacet
  facet normal -0.737277 0.675591 0
    outer loop
      vertex -0.167033 0.167033 7.87402
      vertex -0.180955 0.15184 0
      vertex -0.180955 0.15184 7.87402
    endloop
  endfacet
  facet normal -0.793353 0.608762 0
    outer loop
      vertex -0.180955 0.15184 0
      vertex -0.1935 0.13549 0
      vertex -0.180955 0.15184 7.87402
    endloop
  endfacet
  facet normal -0.793353 0.608762 0
    outer loop
      vertex -0.180955 0.15184 7.87402
      vertex -0.1935 0.13549 0
      vertex -0.1935 0.13549 7.87402
    endloop
  endfacet
  facet normal -0.843392 0.537299 0
    outer loop
      vertex -0.1935 0.13549 0
      vertex -0.204573 0.11811 0
      vertex -0.1935 0.13549 7.87402
    endloop
  endfacet
  facet normal -0.843392 0.537299 0
    outer loop
      vertex -0.1935 0.13549 7.87402
      vertex -0.204573 0.11811 0
      vertex -0.204573 0.11811 7.87402
    endloop
  endfacet
  facet normal -0.887011 0.461749 0
    outer loop
      vertex -0.204573 0.11811 0
      vertex -0.214088 0.0998311 0
      vertex -0.204573 0.11811 7.87402
    endloop
  endfacet
  facet normal -0.887011 0.461749 0
    outer loop
      vertex -0.204573 0.11811 7.87402
      vertex -0.214088 0.0998311 0
      vertex -0.214088 0.0998311 7.87402
    endloop
  endfacet
  facet normal -0.92388 0.382683 0
    outer loop
      vertex -0.214088 0.0998311 0
      vertex -0.221975 0.0807922 0
      vertex -0.214088 0.0998311 7.87402
    endloop
  endfacet
  facet normal -0.92388 0.382683 0
    outer loop
      vertex -0.214088 0.0998311 7.87402
      vertex -0.221975 0.0807922 0
      vertex -0.221975 0.0807922 7.87402
    endloop
  endfacet
  facet normal -0.953717 0.300706 0
    outer loop
      vertex -0.221975 0.0807922 0
      vertex -0.228171 0.0611384 0
      vertex -0.221975 0.0807922 7.87402
    endloop
  endfacet
  facet normal -0.953717 0.300706 0
    outer loop
      vertex -0.221975 0.0807922 7.87402
      vertex -0.228171 0.0611384 0
      vertex -0.228171 0.0611384 7.87402
    endloop
  endfacet
  facet normal -0.976296 0.216439 0
    outer loop
      vertex -0.228171 0.0611384 0
      vertex -0.232632 0.0410193 0
      vertex -0.228171 0.0611384 7.87402
    endloop
  endfacet
  facet normal -0.976296 0.216439 0
    outer loop
      vertex -0.228171 0.0611384 7.87402
      vertex -0.232632 0.0410193 0
      vertex -0.232632 0.0410193 7.87402
    endloop
  endfacet
  facet normal -0.991445 0.130526 0
    outer loop
      vertex -0.232632 0.0410193 0
      vertex -0.235322 0.020588 0
      vertex -0.232632 0.0410193 7.87402
    endloop
  endfacet
  facet normal -0.991445 0.130526 0
    outer loop
      vertex -0.232632 0.0410193 7.87402
      vertex -0.235322 0.020588 0
      vertex -0.235322 0.020588 7.87402
    endloop
  endfacet
  facet normal -0.999048 0.0436194 0
    outer loop
      vertex -0.235322 0.020588 0
      vertex -0.23622 1.33832e-16 0
      vertex -0.235322 0.020588 7.87402
    endloop
  endfacet
  facet normal -0.999048 0.0436194 0
    outer loop
      vertex -0.235322 0.020588 7.87402
      vertex -0.23622 1.33832e-16 0
      vertex -0.23622 1.33832e-16 7.87402
    endloop
  endfacet
  facet normal -0.999048 -0.0436194 0
    outer loop
      vertex -0.23622 1.33832e-16 0
      vertex -0.235322 -0.020588 0
      vertex -0.23622 1.33832e-16 7.87402
    endloop
  endfacet
  facet normal -0.999048 -0.0436194 0
    outer loop
      vertex -0.23622 1.33832e-16 7.87402
      vertex -0.235322 -0.020588 0
      vertex -0.235322 -0.020588 7.87402
    endloop
  endfacet
  facet normal -0.991445 -0.130526 0
    outer loop
      vertex -0.235322 -0.020588 0
      vertex -0.232632 -0.0410193 0
      vertex -0.235322 -0.020588 7.87402
    endloop
  endfacet
  facet normal -0.991445 -0.130526 0
    outer loop
      vertex -0.235322 -0.020588 7.87402
      vertex -0.232632 -0.0410193 0
      vertex -0.232632 -0.0410193 7.87402
    endloop
  endfacet
  facet normal -0.976296 -0.216439 0
    outer loop
      vertex -0.232632 -0.0410193 0
      vertex -0.228171 -0.0611384 0
      vertex -0.232632 -0.0410193 7.87402
    endloop
  endfacet
  facet normal -0.976296 -0.216439 0
    outer loop
      vertex -0.232632 -0.0410193 7.87402
      vertex -0.228171 -0.0611384 0
      vertex -0.228171 -0.0611384 7.87402
    endloop
  endfacet
  facet normal -0.953717 -0.300706 0
    outer loop
      vertex -0.228171 -0.0611384 0
      vertex -0.221975 -0.0807922 0
      vertex -0.228171 -0.0611384 7.87402
    endloop
  endfacet
  facet normal -0.953717 -0.300706 0
    outer loop
      vertex -0.228171 -0.0611384 7.87402
      vertex -0.221975 -0.0807922 0
      vertex -0.221975 -0.0807922 7.87402
    endloop
  endfacet
  facet normal -0.92388 -0.382683 0
    outer loop
      vertex -0.221975 -0.0807922 0
      vertex -0.214088 -0.0998311 0
      vertex -0.221975 -0.0807922 7.87402
    endloop
  endfacet
  facet normal -0.92388 -0.382683 0
    outer loop
      vertex -0.221975 -0.0807922 7.87402
      vertex -0.214088 -0.0998311 0
      vertex -0.214088 -0.0998311 7.87402
    endloop
  endfacet
  facet normal -0.887011 -0.461749 0
    outer loop
      vertex -0.214088 -0.0998311 0
      vertex -0.204573 -0.11811 0
      vertex -0.214088 -0.0998311 7.87402
    endloop
  endfacet
  facet normal -0.887011 -0.461749 0
    outer loop
      vertex -0.214088 -0.0998311 7.87402
      vertex -0.204573 -0.11811 0
      vertex -0.204573 -0.11811 7.87402
    endloop
  endfacet
  facet normal -0.843392 -0.537299 0
    outer loop
      vertex -0.204573 -0.11811 0
      vertex -0.1935 -0.13549 0
      vertex -0.204573 -0.11811 7.87402
    endloop
  endfacet
  facet normal -0.843392 -0.537299 0
    outer loop
      vertex -0.204573 -0.11811 7.87402
      vertex -0.1935 -0.13549 0
      vertex -0.1935 -0.13549 7.87402
    endloop
  endfacet
  facet normal -0.793353 -0.608762 0
    outer loop
      vertex -0.1935 -0.13549 0
      vertex -0.180955 -0.15184 0
      vertex -0.1935 -0.13549 7.87402
    endloop
  endfacet
  facet normal -0.793353 -0.608762 0
    outer loop
      vertex -0.1935 -0.13549 7.87402
      vertex -0.180955 -0.15184 0
      vertex -0.180955 -0.15184 7.87402
    endloop
  endfacet
  facet normal -0.737277 -0.675591 0
    outer loop
      vertex -0.180955 -0.15184 0
      vertex -0.167033 -0.167033 0
      vertex -0.180955 -0.15184 7.87402
    endloop
  endfacet
  facet normal -0.737277 -0.675591 0
    outer loop
      vertex -0.180955 -0.15184 7.87402
      vertex -0.167033 -0.167033 0
      vertex -0.167033 -0.167033 7.87402
    endloop
  endfacet
  facet normal -0.675591 -0.737277 0
    outer loop
      vertex -0.167033 -0.167033 0
      vertex -0.15184 -0.180955 0
      vertex -0.167033 -0.167033 7.87402
    endloop
  endfacet
  facet normal -0.675591 -0.737277 0
    outer loop
      vertex -0.167033 -0.167033 7.87402
      vertex -0.15184 -0.180955 0
      vertex -0.15184 -0.180955 7.87402
    endloop
  endfacet
  facet normal -0.608762 -0.793353 0
    outer loop
      vertex -0.15184 -0.180955 0
      vertex -0.13549 -0.1935 0
      vertex -0.15184 -0.180955 7.87402
    endloop
  endfacet
  facet normal -0.608762 -0.793353 0
    outer loop
      vertex -0.15184 -0.180955 7.87402
      vertex -0.13549 -0.1935 0
      vertex -0.13549 -0.1935 7.87402
    endloop
  endfacet
  facet normal -0.537299 -0.843392 0
    outer loop
      vertex -0.13549 -0.1935 0
      vertex -0.11811 -0.204573 0
      vertex -0.13549 -0.1935 7.87402
    endloop
  endfacet
  facet normal -0.537299 -0.843392 0
    outer loop
      vertex -0.13549 -0.1935 7.87402
      vertex -0.11811 -0.204573 0
      vertex -0.11811 -0.204573 7.87402
    endloop
  endfacet
  facet normal -0.461749 -0.887011 0
    outer loop
      vertex -0.11811 -0.204573 0
      vertex -0.0998311 -0.214088 0
      vertex -0.11811 -0.204573 7.87402
    endloop
  endfacet
  facet normal -0.461749 -0.887011 0
    outer loop
      vertex -0.11811 -0.204573 7.87402
      vertex -0.0998311 -0.214088 0
      vertex -0.0998311 -0.214088 7.87402
    endloop
  endfacet
  facet normal -0.382683 -0.92388 0
    outer loop
      vertex -0.0998311 -0.214088 0
      vertex -0.0807922 -0.221975 0
      vertex -0.0998311 -0.214088 7.87402
    endloop
  endfacet
  facet normal -0.382683 -0.92388 0
    outer loop
      vertex -0.0998311 -0.214088 7.87402
      vertex -0.0807922 -0.221975 0
      vertex -0.0807922 -0.221975 7.87402
    endloop
  endfacet
  facet normal -0.300706 -0.953717 0
    outer loop
      vertex -0.0807922 -0.221975 0
      vertex -0.0611384 -0.228171 0
      vertex -0.0807922 -0.221975 7.87402
    endloop
  endfacet
  facet normal -0.300706 -0.953717 0
    outer loop
      vertex -0.0807922 -0.221975 7.87402
      vertex -0.0611384 -0.228171 0
      vertex -0.0611384 -0.228171 7.87402
    endloop
  endfacet
  facet normal -0.216439 -0.976296 0
    outer loop
      vertex -0.0611384 -0.228171 0
      vertex -0.0410193 -0.232632 0
      vertex -0.0611384 -0.228171 7.87402
    endloop
  endfacet
  facet normal -0.216439 -0.976296 0
    outer loop
      vertex -0.0611384 -0.228171 7.87402
      vertex -0.0410193 -0.232632 0
      vertex -0.0410193 -0.232632 7.87402
    endloop
  endfacet
  facet normal -0.130526 -0.991445 0
    outer loop
      vertex -0.0410193 -0.232632 0
      vertex -0.020588 -0.235322 0
      vertex -0.0410193 -0.232632 7.87402
    endloop
  endfacet
  facet normal -0.130526 -0.991445 0
    outer loop
      vertex -0.0410193 -0.232632 7.87402
      vertex -0.020588 -0.235322 0
      vertex -0.020588 -0.235322 7.87402
    endloop
  endfacet
  facet normal -0.0436194 -0.999048 0
    outer loop
      vertex -0.020588 -0.235322 0
      vertex -2.53199e-16 -0.23622 0
      vertex -0.020588 -0.235322 7.87402
    endloop
  endfacet
  facet normal -0.0436194 -0.999048 0
    outer loop
      vertex -0.020588 -0.235322 7.87402
      vertex -2.53199e-16 -0.23622 0
      vertex -2.53199e-16 -0.23622 7.87402
    endloop
  endfacet
  facet normal 0.0436194 -0.999048 0
    outer loop
      vertex -2.53199e-16 -0.23622 0
      vertex 0.020588 -0.235322 0
      vertex -2.53199e-16 -0.23622 7.87402
    endloop
  endfacet
  facet normal 0.0436194 -0.999048 0
    outer loop
      vertex -2.53199e-16 -0.23622 7.87402
      vertex 0.020588 -0.235322 0
      vertex 0.020588 -0.235322 7.87402
    endloop
  endfacet
  facet normal 0.130526 -0.991445 0
    outer loop
      vertex 0.020588 -0.235322 0
      vertex 0.0410193 -0.232632 0
      vertex 0.020588 -0.235322 7.87402
    endloop
  endfacet
  facet normal 0.130526 -0.991445 0
    outer loop
      vertex 0.020588 -0.235322 7.87402
      vertex 0.0410193 -0.232632 0
      vertex 0.0410193 -0.232632 7.87402
    endloop
  endfacet
  facet normal 0.216439 -0.976296 0
    outer loop
      vertex 0.0410193 -0.232632 0
      vertex 0.0611384 -0.228171 0
      vertex 0.0410193 -0.232632 7.87402
    endloop
  endfacet
  facet normal 0.216439 -0.976296 0
    outer loop
      vertex 0.0410193 -0.232632 7.87402
      vertex 0.0611384 -0.228171 0
      vertex 0.0611384 -0.228171 7.87402
    endloop
  endfacet
  facet normal 0.300706 -0.953717 0
    outer loop
      vertex 0.0611384 -0.228171 0
      vertex 0.0807922 -0.221975 0
      vertex 0.0611384 -0.228171 7.87402
    endloop
  endfacet
  facet normal 0.300706 -0.953717 0
    outer loop
      vertex 0.0611384 -0.228171 7.87402
      vertex 0.0807922 -0.221975 0
      vertex 0.0807922 -0.221975 7.87402
    endloop
  endfacet
  facet normal 0.382683 -0.92388 0
    outer loop
      vertex 0.0807922 -0.221975 0
      vertex 0.0998311 -0.214088 0
      vertex 0.0807922 -0.221975 7.87402
    endloop
  endfacet
  facet normal 0.382683 -0.92388 0
    outer loop
      vertex 0.0807922 -0.221975 7.87402
      vertex 0.0998311 -0.214088 0
      vertex 0.0998311 -0.214088 7.87402
    endloop
  endfacet
  facet normal 0.461749 -0.887011 0
    outer loop
      vertex 0.0998311 -0.214088 0
      vertex 0.11811 -0.204573 0
      vertex 0.0998311 -0.214088 7.87402
    endloop
  endfacet
  facet normal 0.461749 -0.887011 0
    outer loop
      vertex 0.0998311 -0.214088 7.87402
      vertex 0.11811 -0.204573 0
      vertex 0.11811 -0.204573 7.87402
    endloop
  endfacet
  facet normal 0.537299 -0.843392 0
    outer loop
      vertex 0.11811 -0.204573 0
      vertex 0.13549 -0.1935 0
      vertex 0.11811 -0.204573 7.87402
    endloop
  endfacet
  facet normal 0.537299 -0.843392 0
    outer loop
      vertex 0.11811 -0.204573 7.87402
      vertex 0.13549 -0.1935 0
      vertex 0.13549 -0.1935 7.87402
    endloop
  endfacet
  facet normal 0.608762 -0.793353 0
    outer loop
      vertex 0.13549 -0.1935 0
      vertex 0.15184 -0.180955 0
      vertex 0.13549 -0.1935 7.87402
    endloop
  endfacet
  facet normal 0.608762 -0.793353 0
    outer loop
      vertex 0.13549 -0.1935 7.87402
      vertex 0.15184 -0.180955 0
      vertex 0.15184 -0.180955 7.87402
    endloop
  endfacet
  facet normal 0.675591 -0.737277 0
    outer loop
      vertex 0.15184 -0.180955 0
      vertex 0.167033 -0.167033 0
      vertex 0.15184 -0.180955 7.87402
    endloop
  endfacet
  facet normal 0.675591 -0.737277 0
    outer loop
      vertex 0.15184 -0.180955 7.87402
      vertex 0.167033 -0.167033 0
      vertex 0.167033 -0.167033 7.87402
    endloop
  endfacet
  facet normal 0.737277 -0.675591 0
    outer loop
      vertex 0.167033 -0.167033 0
      vertex 0.180955 -0.15184 0
      vertex 0.167033 -0.167033 7.87402
    endloop
  endfacet
  facet normal 0.737277 -0.675591 0
    outer loop
      vertex 0.167033 -0.167033 7.87402
      vertex 0.180955 -0.15184 0
      vertex 0.180955 -0.15184 7.87402
    endloop
  endfacet
  facet normal 0.793353 -0.608762 0
    outer loop
      vertex 0.180955 -0.15184 0
      vertex 0.1935 -0.13549 0
      vertex 0.180955 -0.15184 7.87402
    endloop
  endfacet
  facet normal 0.793353 -0.608762 0
    outer loop
      vertex 0.180955 -0.15184 7.87402
      vertex 0.1935 -0.13549 0
      vertex 0.1935 -0.13549 7.87402
    endloop
  endfacet
  facet normal 0.843392 -0.537299 0
    outer loop
      vertex 0.1935 -0.13549 0
      vertex 0.204573 -0.11811 0
      vertex 0.1935 -0.13549 7.87402
    endloop
  endfacet
  facet normal 0.843392 -0.537299 0
    outer loop
      vertex 0.1935 -0.13549 7.87402
      vertex 0.204573 -0.11811 0
      vertex 0.204573 -0.11811 7.87402
    endloop
  endfacet
  facet normal 0.887011 -0.461749 0
    outer loop
      vertex 0.204573 -0.11811 0
      vertex 0.214088 -0.0998311 0
      vertex 0.204573 -0.11811 7.87402
    endloop
  endfacet
  facet normal 0.887011 -0.461749 0
    outer loop
      vertex 0.204573 -0.11811 7.87402
      vertex 0.214088 -0.0998311 0
      vertex 0.214088 -0.0998311 7.87402
    endloop
  endfacet
  facet normal 0.92388 -0.382683 0
    outer loop
      vertex 0.214088 -0.0998311 0
      vertex 0.221975 -0.0807922 0
      vertex 0.214088 -0.0998311 7.87402
    endloop
  endfacet
  facet normal 0.92388 -0.382683 0
    outer loop
      vertex 0.214088 -0.0998311 7.87402
      vertex 0.221975 -0.0807922 0
      vertex 0.221975 -0.0807922 7.87402
    endloop
  endfacet
  facet normal 0.953717 -0.300706 0
    outer loop
      vertex 0.221975 -0.0807922 0
      vertex 0.228171 -0.0611384 0
      vertex 0.221975 -0.0807922 7.87402
    endloop
  endfacet
  facet normal 0.953717 -0.300706 0
    outer loop
      vertex 0.221975 -0.0807922 7.87402
      vertex 0.228171 -0.0611384 0
      vertex 0.228171 -0.0611384 7.87402
    endloop
  endfacet
  facet normal 0.976296 -0.216439 0
    outer loop
      vertex 0.228171 -0.0611384 0
      vertex 0.232632 -0.0410193 0
      vertex 0.228171 -0.0611384 7.87402
    endloop
  endfacet
  facet normal 0.976296 -0.216439 0
    outer loop
      vertex 0.228171 -0.0611384 7.87402
      vertex 0.232632 -0.0410193 0
      vertex 0.232632 -0.0410193 7.87402
    endloop
  endfacet
  facet normal 0.991445 -0.130526 0
    outer loop
      vertex 0.232632 -0.0410193 0
      vertex 0.235322 -0.020588 0
      vertex 0.232632 -0.0410193 7.87402
    endloop
  endfacet
  facet normal 0.991445 -0.130526 0
    outer loop
      vertex 0.232632 -0.0410193 7.87402
      vertex 0.235322 -0.020588 0
      vertex 0.235322 -0.020588 7.87402
    endloop
  endfacet
  facet normal 0.999048 -0.0436194 0
    outer loop
      vertex 0.235322 -0.020588 0
      vertex 0.23622 -5.78573e-17 0
      vertex 0.235322 -0.020588 7.87402
    endloop
  endfacet
  facet normal 0.999048 -0.0436194 3.31863e-19
    outer loop
      vertex 0.235322 -0.020588 7.87402
      vertex 0.23622 -5.78573e-17 0
      vertex 0.23622 0 7.87402
    endloop
  endfacet
  facet normal 0.999048 0.0436194 -3.2051e-19
    outer loop
      vertex 0.23622 -5.78573e-17 0
      vertex 0.235322 0.020588 0
      vertex 0.23622 0 7.87402
    endloop
  endfacet
endsolid Mesh
