solid Mesh
  facet normal 0 -0.27689 -0.960902
    outer loop
      vertex -1.1811 0.643695 0.951262
      vertex -1.16548 0.643695 0.951262
      vertex -1.1811 0.643575 0.951297
    endloop
  endfacet
  facet normal -0.996815 0.0220812 0.0766294
    outer loop
      vertex -1.16548 0.716605 1.13354
      vertex -1.1811 0.643695 0.951262
      vertex -1.1811 0.643575 0.951297
    endloop
  endfacet
  facet normal 0.00795904 -0.928447 0.371379
    outer loop
      vertex -1.1811 0.643575 0.951297
      vertex -1.16548 0.643695 0.951262
      vertex -1.16548 0.716605 1.13354
    endloop
  endfacet
  facet normal 0 0.928477 -0.371391
    outer loop
      vertex -1.16548 0.643695 0.951262
      vertex -1.1811 0.643695 0.951262
      vertex -1.16548 0.716605 1.13354
    endloop
  endfacet
endsolid Mesh
