solid Mesh
  facet normal -8.10749e-7 1.04807e-6 1
    outer loop
      vertex 0.127663 1.0056 0.702251
      vertex 0.179466 -2.6627 0.702255
      vertex 0.179466 2.7949 0.702249
    endloop
  endfacet
  facet normal 0 1.05952e-6 1
    outer loop
      vertex 0.179466 -2.6627 0.702255
      vertex 0.127663 1.0056 0.702251
      vertex -0.179466 -2.6627 0.702255
    endloop
  endfacet
  facet normal 0 1.05952e-6 1
    outer loop
      vertex 0.127663 1.0056 0.702251
      vertex -0.127663 1.0056 0.702251
      vertex -0.179466 -2.6627 0.702255
    endloop
  endfacet
  facet normal 8.10749e-7 1.04807e-6 1
    outer loop
      vertex -0.179466 -2.6627 0.702255
      vertex -0.127663 1.0056 0.702251
      vertex -0.179466 2.7949 0.702249
    endloop
  endfacet
  facet normal -3.95135e-7 1.01316e-6 1
    outer loop
      vertex -0.127663 1.0056 0.702251
      vertex -0.111355 1.08434 0.702251
      vertex -0.179466 2.7949 0.702249
    endloop
  endfacet
  facet normal 0 1.02889e-6 1
    outer loop
      vertex -0.179466 2.7949 0.702249
      vertex -0.111355 1.08434 0.702251
      vertex 0.179466 2.7949 0.702249
    endloop
  endfacet
  facet normal 0 1.02889e-6 1
    outer loop
      vertex -0.111355 1.08434 0.702251
      vertex 0.111355 1.08434 0.702251
      vertex 0.179466 2.7949 0.702249
    endloop
  endfacet
  facet normal 3.95135e-7 1.01316e-6 1
    outer loop
      vertex 0.179466 2.7949 0.702249
      vertex 0.111355 1.08434 0.702251
      vertex 0.127663 1.0056 0.702251
    endloop
  endfacet
  facet normal -4.49254e-8 -1.04639e-6 -1
    outer loop
      vertex -0.127663 1.0056 -0.0851504
      vertex -0.179466 -2.6627 -0.0851466
      vertex -0.179466 2.7949 -0.0851523
    endloop
  endfacet
  facet normal 0 -1.04702e-6 -1
    outer loop
      vertex -0.179466 -2.6627 -0.0851466
      vertex -0.127663 1.0056 -0.0851504
      vertex 0.179466 -2.6627 -0.0851466
    endloop
  endfacet
  facet normal 0 -1.04702e-6 -1
    outer loop
      vertex -0.127663 1.0056 -0.0851504
      vertex 0.127663 1.0056 -0.0851504
      vertex 0.179466 -2.6627 -0.0851466
    endloop
  endfacet
  facet normal 4.49254e-8 -1.04639e-6 -1
    outer loop
      vertex 0.179466 -2.6627 -0.0851466
      vertex 0.127663 1.0056 -0.0851504
      vertex 0.179466 2.7949 -0.0851523
    endloop
  endfacet
  facet normal 1.12196e-8 -1.04541e-6 -1
    outer loop
      vertex 0.127663 1.0056 -0.0851504
      vertex 0.111355 1.08434 -0.0851505
      vertex 0.179466 2.7949 -0.0851523
    endloop
  endfacet
  facet normal 0 -1.04497e-6 -1
    outer loop
      vertex 0.179466 2.7949 -0.0851523
      vertex 0.111355 1.08434 -0.0851505
      vertex -0.179466 2.7949 -0.0851523
    endloop
  endfacet
  facet normal 0 -1.04497e-6 -1
    outer loop
      vertex 0.111355 1.08434 -0.0851505
      vertex -0.111355 1.08434 -0.0851505
      vertex -0.179466 2.7949 -0.0851523
    endloop
  endfacet
  facet normal -1.12196e-8 -1.04541e-6 -1
    outer loop
      vertex -0.179466 2.7949 -0.0851523
      vertex -0.111355 1.08434 -0.0851505
      vertex -0.127663 1.0056 -0.0851504
    endloop
  endfacet
  facet normal 0 -1 1.11759e-6
    outer loop
      vertex -0.179466 -2.6627 -0.0851466
      vertex 0.179466 -2.6627 -0.0851466
      vertex -0.179466 -2.6627 0.702255
    endloop
  endfacet
  facet normal 0 -1 1.11759e-6
    outer loop
      vertex 0.179466 -2.6627 -0.0851466
      vertex 0.179466 -2.6627 0.702255
      vertex -0.179466 -2.6627 0.702255
    endloop
  endfacet
  facet normal 0 1 -1.02445e-6
    outer loop
      vertex 0.127663 1.0056 -0.0851504
      vertex -0.127663 1.0056 -0.0851504
      vertex 0.127663 1.0056 0.702251
    endloop
  endfacet
  facet normal 0 1 -1.02445e-6
    outer loop
      vertex -0.127663 1.0056 -0.0851504
      vertex -0.127663 1.0056 0.702251
      vertex 0.127663 1.0056 0.702251
    endloop
  endfacet
  facet normal 0 1 -1.11759e-6
    outer loop
      vertex 0.179466 2.7949 0.702249
      vertex 0.179466 2.7949 -0.0851523
      vertex -0.179466 2.7949 0.702249
    endloop
  endfacet
  facet normal 0 1 -1.11759e-6
    outer loop
      vertex 0.179466 2.7949 -0.0851523
      vertex -0.179466 2.7949 -0.0851523
      vertex -0.179466 2.7949 0.702249
    endloop
  endfacet
  facet normal 1 0 0
    outer loop
      vertex 0.179466 -2.6627 0.702255
      vertex 0.179466 -2.6627 -0.0851466
      vertex 0.179466 2.7949 0.702249
    endloop
  endfacet
  facet normal 1 0 0
    outer loop
      vertex 0.179466 -2.6627 -0.0851466
      vertex 0.179466 2.7949 -0.0851523
      vertex 0.179466 2.7949 0.702249
    endloop
  endfacet
  facet normal -1 0 0
    outer loop
      vertex -0.179466 2.7949 0.702249
      vertex -0.179466 2.7949 -0.0851523
      vertex -0.179466 -2.6627 0.702255
    endloop
  endfacet
  facet normal -1 0 0
    outer loop
      vertex -0.179466 2.7949 -0.0851523
      vertex -0.179466 -2.6627 -0.0851466
      vertex -0.179466 -2.6627 0.702255
    endloop
  endfacet
  facet normal -0.97922 -0.202803 2.07762e-7
    outer loop
      vertex 0.111355 1.08434 0.702251
      vertex 0.111355 1.08434 -0.0851505
      vertex 0.127663 1.0056 0.702251
    endloop
  endfacet
  facet normal -0.97922 -0.202803 2.07762e-7
    outer loop
      vertex 0.111355 1.08434 -0.0851505
      vertex 0.127663 1.0056 -0.0851504
      vertex 0.127663 1.0056 0.702251
    endloop
  endfacet
  facet normal 0 -1 1.02445e-6
    outer loop
      vertex -0.111355 1.08434 0.702251
      vertex -0.111355 1.08434 -0.0851505
      vertex 0.111355 1.08434 0.702251
    endloop
  endfacet
  facet normal 0 -1 1.02445e-6
    outer loop
      vertex -0.111355 1.08434 -0.0851505
      vertex 0.111355 1.08434 -0.0851505
      vertex 0.111355 1.08434 0.702251
    endloop
  endfacet
  facet normal 0.97922 -0.202803 2.07762e-7
    outer loop
      vertex -0.127663 1.0056 0.702251
      vertex -0.127663 1.0056 -0.0851504
      vertex -0.111355 1.08434 0.702251
    endloop
  endfacet
  facet normal 0.97922 -0.202803 2.07762e-7
    outer loop
      vertex -0.127663 1.0056 -0.0851504
      vertex -0.111355 1.08434 -0.0851505
      vertex -0.111355 1.08434 0.702251
    endloop
  endfacet
endsolid Mesh
