solid Mesh
  facet normal 0.157199 -0.902626 0.400692
    outer loop
      vertex 1.49591 2.11377 1.25604
      vertex 1.56491 2.09617 1.18932
      vertex 1.5044 2.11525 1.25604
    endloop
  endfacet
  facet normal -0.707107 -0.180366 -0.683716
    outer loop
      vertex 1.56491 2.09617 1.18932
      vertex 1.49591 2.11377 1.25604
      vertex 1.52588 2.1194 1.22356
    endloop
  endfacet
  facet normal -0.707107 -0.180367 -0.683716
    outer loop
      vertex 1.49591 2.11377 1.25604
      vertex 1.48812 2.14431 1.25604
      vertex 1.52588 2.1194 1.22356
    endloop
  endfacet
  facet normal 0.735026 0.411836 0.538635
    outer loop
      vertex 1.5044 2.11525 1.25604
      vertex 1.52588 2.1194 1.22356
      vertex 1.48812 2.14431 1.25604
    endloop
  endfacet
  facet normal 0.726219 0.431346 0.5353
    outer loop
      vertex 1.52588 2.1194 1.22356
      vertex 1.5044 2.11525 1.25604
      vertex 1.56491 2.09617 1.18932
    endloop
  endfacet
  facet normal 0 0 1
    outer loop
      vertex 1.49591 2.11377 1.25604
      vertex 1.5044 2.11525 1.25604
      vertex 1.48812 2.14431 1.25604
    endloop
  endfacet
endsolid Mesh
