solid Mesh
  facet normal 0 -1 0
    outer loop
      vertex -0.918534 -0.466205 1.6535
      vertex -0.909182 -0.466205 1.6535
      vertex -0.909182 -0.466205 1.65943
    endloop
  endfacet
  facet normal 0 -1 0
    outer loop
      vertex -0.909182 -0.466205 1.69515
      vertex -0.916873 -0.466205 1.69362
      vertex -0.909182 -0.466205 1.65943
    endloop
  endfacet
  facet normal 0 -1 0
    outer loop
      vertex -0.916873 -0.466205 1.69362
      vertex -0.917699 -0.466205 1.67368
      vertex -0.909182 -0.466205 1.65943
    endloop
  endfacet
  facet normal 0 -1 0
    outer loop
      vertex -0.909182 -0.466205 1.65943
      vertex -0.917699 -0.466205 1.67368
      vertex -0.918534 -0.466205 1.6535
    endloop
  endfacet
  facet normal 0.968144 0.250394 8.46301e-6
    outer loop
      vertex -0.918534 -0.43028 1.65943
      vertex -0.91389 -0.448235 1.65943
      vertex -0.91389 -0.448235 1.65646
    endloop
  endfacet
  facet normal 0.967342 0.253476 8.25255e-6
    outer loop
      vertex -0.91389 -0.448235 1.65943
      vertex -0.909182 -0.466205 1.65943
      vertex -0.91389 -0.448235 1.65646
    endloop
  endfacet
  facet normal 0.967342 0.253475 0
    outer loop
      vertex -0.91389 -0.448235 1.65646
      vertex -0.909182 -0.466205 1.65943
      vertex -0.909182 -0.466205 1.6535
    endloop
  endfacet
  facet normal 0 0.162924 -0.986639
    outer loop
      vertex -0.909182 -0.466205 1.6535
      vertex -0.918534 -0.466205 1.6535
      vertex -0.91389 -0.448235 1.65646
    endloop
  endfacet
  facet normal 5.01568e-6 0.162923 -0.986639
    outer loop
      vertex -0.918534 -0.466205 1.6535
      vertex -0.918534 -0.43028 1.65943
      vertex -0.91389 -0.448235 1.65646
    endloop
  endfacet
  facet normal 0.967342 0.253476 0
    outer loop
      vertex -0.909182 -0.466205 1.69515
      vertex -0.909182 -0.466205 1.65943
      vertex -0.91389 -0.448235 1.65943
    endloop
  endfacet
  facet normal 0.968144 0.250394 0.000221877
    outer loop
      vertex -0.918534 -0.43028 1.65943
      vertex -0.917699 -0.433525 1.67907
      vertex -0.91389 -0.448235 1.65943
    endloop
  endfacet
  facet normal 0.968121 0.250481 0.000151798
    outer loop
      vertex -0.917699 -0.433525 1.67907
      vertex -0.917082 -0.43592 1.69358
      vertex -0.91389 -0.448235 1.65943
    endloop
  endfacet
  facet normal 0.967625 0.252391 -0.000583311
    outer loop
      vertex -0.91389 -0.448235 1.65943
      vertex -0.917082 -0.43592 1.69358
      vertex -0.909182 -0.466205 1.69515
    endloop
  endfacet
  facet normal -0.195087 2.16051e-6 0.980786
    outer loop
      vertex -0.916873 -0.466205 1.69362
      vertex -0.909182 -0.466205 1.69515
      vertex -0.917082 -0.43592 1.69358
    endloop
  endfacet
  facet normal -0.999119 -0.00684044 0.0414087
    outer loop
      vertex -0.916873 -0.466205 1.69362
      vertex -0.917082 -0.43592 1.69358
      vertex -0.917699 -0.433525 1.67907
    endloop
  endfacet
  facet normal -0.999119 -0.00683844 0.0414132
    outer loop
      vertex -0.916873 -0.466205 1.69362
      vertex -0.917699 -0.433525 1.67907
      vertex -0.917699 -0.466205 1.67368
    endloop
  endfacet
  facet normal -0.999123 -0.00682224 0.041315
    outer loop
      vertex -0.917699 -0.433525 1.67907
      vertex -0.918534 -0.43028 1.65943
      vertex -0.917699 -0.466205 1.67368
    endloop
  endfacet
  facet normal -0.999123 -0.00682231 0.0413149
    outer loop
      vertex -0.917699 -0.466205 1.67368
      vertex -0.918534 -0.43028 1.65943
      vertex -0.918534 -0.466205 1.6535
    endloop
  endfacet
endsolid Mesh
