solid Mesh
  facet normal -0.995793 0.0916294 0
    outer loop
      vertex 0.983898 3.12642 1.85628
      vertex 0.983898 3.12642 1.73318
      vertex 0.936005 2.60594 1.85628
    endloop
  endfacet
  facet normal -0.995793 0.0916294 0
    outer loop
      vertex 0.983898 3.12642 1.73318
      vertex 0.936005 2.60594 1.79722
      vertex 0.936005 2.60594 1.85628
    endloop
  endfacet
  facet normal 0 1 0
    outer loop
      vertex 1.00913 3.12642 1.85628
      vertex 1.00913 3.12642 1.79722
      vertex 0.983898 3.12642 1.85628
    endloop
  endfacet
  facet normal 0 1 0
    outer loop
      vertex 1.00913 3.12642 1.79722
      vertex 0.983898 3.12642 1.73318
      vertex 0.983898 3.12642 1.85628
    endloop
  endfacet
  facet normal -0.924333 0.0850538 0.371988
    outer loop
      vertex 0.936005 2.60594 1.85628
      vertex 0.981642 2.93078 1.89541
      vertex 0.983898 3.12642 1.85628
    endloop
  endfacet
  facet normal 0 0.196116 0.980581
    outer loop
      vertex 1.00913 3.12642 1.85628
      vertex 0.983898 3.12642 1.85628
      vertex 0.981642 2.93078 1.89541
    endloop
  endfacet
  facet normal 0.922543 -0.12961 -0.363477
    outer loop
      vertex 0.936005 2.60594 1.79722
      vertex 0.983898 3.12642 1.73318
      vertex 1.00913 3.12642 1.79722
    endloop
  endfacet
  facet normal 0.990275 -0.139126 0
    outer loop
      vertex 0.936005 2.60594 1.85628
      vertex 0.936005 2.60594 1.79722
      vertex 0.981642 2.93078 1.89541
    endloop
  endfacet
  facet normal 0.990275 -0.139126 -8.08831e-8
    outer loop
      vertex 0.936005 2.60594 1.79722
      vertex 1.00913 3.12642 1.79722
      vertex 0.981642 2.93078 1.89541
    endloop
  endfacet
  facet normal 0.990275 -0.139126 0
    outer loop
      vertex 0.981642 2.93078 1.89541
      vertex 1.00913 3.12642 1.79722
      vertex 1.00913 3.12642 1.85628
    endloop
  endfacet
endsolid Mesh
