solid Mesh
  facet normal 0.923879 0 0.382684
    outer loop
      vertex 1.12542 0.587819 0.875403
      vertex 1.10236 0.643497 0.931081
      vertex 1.12542 -0.27875 0.875403
    endloop
  endfacet
  facet normal 0.923879 0 0.382684
    outer loop
      vertex 1.10236 0.643497 0.931081
      vertex 1.10236 -0.255688 0.931081
      vertex 1.12542 -0.27875 0.875403
    endloop
  endfacet
  facet normal 0 -0.22541 0.974264
    outer loop
      vertex 0.550806 0.584153 1.01695
      vertex 0.422744 0.477802 0.992345
      vertex 0.777452 0.584153 1.01695
    endloop
  endfacet
  facet normal -1.3166e-7 -0.225409 0.974264
    outer loop
      vertex 0.422744 0.477802 0.992345
      vertex 0.433062 0.467637 0.989994
      vertex 0.777452 0.584153 1.01695
    endloop
  endfacet
  facet normal -1.26066e-7 -0.225409 0.974264
    outer loop
      vertex 0.777452 0.584153 1.01695
      vertex 0.433062 0.467637 0.989994
      vertex 0.908809 0.478023 0.992397
    endloop
  endfacet
  facet normal 1.97498e-7 -0.225423 0.974261
    outer loop
      vertex 0.433062 0.467637 0.989994
      vertex 0.905521 0.474685 0.991624
      vertex 0.908809 0.478023 0.992397
    endloop
  endfacet
  facet normal 0.633232 0.772407 0.0490349
    outer loop
      vertex 0.768 0.593058 0.998737
      vertex 0.777452 0.584153 1.01695
      vertex 0.910506 0.479746 0.943339
    endloop
  endfacet
  facet normal 0.633233 0.772407 0.0490362
    outer loop
      vertex 0.777452 0.584153 1.01695
      vertex 0.908809 0.478023 0.992397
      vertex 0.910506 0.479746 0.943339
    endloop
  endfacet
  facet normal -0.662764 -0.672734 -0.328898
    outer loop
      vertex 0.981944 0.552258 1.06644
      vertex 0.981944 0.586842 0.995698
      vertex 0.984252 0.5546 1.057
    endloop
  endfacet
  facet normal -0.662764 -0.672733 -0.328898
    outer loop
      vertex 0.981944 0.586842 0.995698
      vertex 0.984252 0.585007 0.994801
      vertex 0.984252 0.5546 1.057
    endloop
  endfacet
  facet normal -0.643018 0.764738 0.0412704
    outer loop
      vertex 0.550806 0.584153 1.01695
      vertex 0.560228 0.593058 0.998737
      vertex 0.422744 0.477802 0.992345
    endloop
  endfacet
  facet normal -0.643018 0.764738 0.0412706
    outer loop
      vertex 0.560228 0.593058 0.998737
      vertex 0.421288 0.479236 0.94309
      vertex 0.422744 0.477802 0.992345
    endloop
  endfacet
  facet normal 0.78182 -0.560144 -0.273853
    outer loop
      vertex 0.354331 0.549658 1.06517
      vertex 0.354331 0.584242 0.994427
      vertex 0.362157 0.558474 1.06948
    endloop
  endfacet
  facet normal 0.78182 -0.560144 -0.273853
    outer loop
      vertex 0.354331 0.584242 0.994427
      vertex 0.362157 0.593058 0.998737
      vertex 0.362157 0.558474 1.06948
    endloop
  endfacet
  facet normal -0.781821 -0.560143 -0.273853
    outer loop
      vertex 0.976426 0.558474 1.06948
      vertex 0.976426 0.593058 0.998737
      vertex 0.981944 0.552258 1.06644
    endloop
  endfacet
  facet normal -0.781823 -0.560141 -0.273852
    outer loop
      vertex 0.976426 0.593058 0.998737
      vertex 0.981944 0.586842 0.995698
      vertex 0.981944 0.552258 1.06644
    endloop
  endfacet
  facet normal 0 -1 0
    outer loop
      vertex 0.354331 0.643497 1.12793
      vertex 0.320567 0.643497 1.12793
      vertex 0.354331 0.643497 1.03613
    endloop
  endfacet
  facet normal 0.877827 -0.435775 0.198794
    outer loop
      vertex 1.16357 0.519039 1.21256
      vertex 1.1178 0.677597 1.76223
      vertex 1.11773 0.677399 1.76212
    endloop
  endfacet
  facet normal 0.877382 -0.436582 0.198989
    outer loop
      vertex 1.16357 0.519039 1.21256
      vertex 1.11773 0.677399 1.76212
      vertex 1.16359 0.518491 1.21126
    endloop
  endfacet
  facet normal 0.834181 -0.507495 0.215849
    outer loop
      vertex 1.11773 0.677399 1.76212
      vertex 1.11764 0.677211 1.76202
      vertex 1.16359 0.518491 1.21126
    endloop
  endfacet
  facet normal 0.83277 -0.509599 0.216337
    outer loop
      vertex 1.16359 0.518491 1.21126
      vertex 1.11764 0.677211 1.76202
      vertex 1.16361 0.517954 1.20995
    endloop
  endfacet
  facet normal 0.783905 -0.576124 0.23146
    outer loop
      vertex 1.11764 0.677211 1.76202
      vertex 1.11754 0.677033 1.76192
      vertex 1.16361 0.517954 1.20995
    endloop
  endfacet
  facet normal 0.782256 -0.57818 0.231914
    outer loop
      vertex 1.16361 0.517954 1.20995
      vertex 1.11754 0.677033 1.76192
      vertex 1.16361 0.517428 1.20863
    endloop
  endfacet
  facet normal 0.727894 -0.640307 0.24531
    outer loop
      vertex 1.11754 0.677033 1.76192
      vertex 1.11743 0.676869 1.76183
      vertex 1.16361 0.517428 1.20863
    endloop
  endfacet
  facet normal 0.726949 -0.6413 0.245517
    outer loop
      vertex 1.16361 0.517428 1.20863
      vertex 1.11743 0.676869 1.76183
      vertex 1.1636 0.516911 1.20731
    endloop
  endfacet
  facet normal 0.682539 -0.68512 0.25446
    outer loop
      vertex 1.11743 0.676869 1.76183
      vertex 1.11737 0.676792 1.76179
      vertex 1.1636 0.516911 1.20731
    endloop
  endfacet
  facet normal 0.666715 -0.699496 0.257286
    outer loop
      vertex 1.1636 0.516911 1.20731
      vertex 1.11737 0.676792 1.76179
      vertex 1.16358 0.516405 1.20599
    endloop
  endfacet
  facet normal 0.650728 -0.713419 0.259975
    outer loop
      vertex 1.11737 0.676792 1.76179
      vertex 1.1173 0.676718 1.76175
      vertex 1.16358 0.516405 1.20599
    endloop
  endfacet
  facet normal 0.617412 -0.740641 0.265053
    outer loop
      vertex 1.1173 0.676718 1.76175
      vertex 1.11723 0.676649 1.76171
      vertex 1.16358 0.516405 1.20599
    endloop
  endfacet
  facet normal 0.60081 -0.753364 0.267338
    outer loop
      vertex 1.16358 0.516405 1.20599
      vertex 1.11723 0.676649 1.76171
      vertex 1.16354 0.515909 1.20466
    endloop
  endfacet
  facet normal 0.583555 -0.76603 0.269558
    outer loop
      vertex 1.11723 0.676649 1.76171
      vertex 1.11716 0.676583 1.76167
      vertex 1.16354 0.515909 1.20466
    endloop
  endfacet
  facet normal 0.547365 -0.79087 0.27371
    outer loop
      vertex 1.11716 0.676583 1.76167
      vertex 1.11709 0.676521 1.76164
      vertex 1.16354 0.515909 1.20466
    endloop
  endfacet
  facet normal 0.530148 -0.801914 0.275459
    outer loop
      vertex 1.16354 0.515909 1.20466
      vertex 1.11709 0.676521 1.76164
      vertex 1.1635 0.515424 1.20333
    endloop
  endfacet
  facet normal 0.5114 -0.813401 0.277215
    outer loop
      vertex 1.11709 0.676521 1.76164
      vertex 1.11702 0.676463 1.7616
      vertex 1.1635 0.515424 1.20333
    endloop
  endfacet
  facet normal 0.474548 -0.834436 0.280215
    outer loop
      vertex 1.11702 0.676463 1.7616
      vertex 1.11694 0.67641 1.76157
      vertex 1.1635 0.515424 1.20333
    endloop
  endfacet
  facet normal 0.458039 -0.843226 0.281372
    outer loop
      vertex 1.1635 0.515424 1.20333
      vertex 1.11694 0.67641 1.76157
      vertex 1.16345 0.514999 1.20214
    endloop
  endfacet
  facet normal 0.435565 -0.854586 0.282782
    outer loop
      vertex 1.11694 0.67641 1.76157
      vertex 1.11686 0.67636 1.76155
      vertex 1.16345 0.514999 1.20214
    endloop
  endfacet
  facet normal 0.396962 -0.872548 0.284748
    outer loop
      vertex 1.11686 0.67636 1.76155
      vertex 1.11678 0.676316 1.76152
      vertex 1.16345 0.514999 1.20214
    endloop
  endfacet
  facet normal 0.38504 -0.877714 0.285243
    outer loop
      vertex 1.16345 0.514999 1.20214
      vertex 1.11678 0.676316 1.76152
      vertex 1.16339 0.514584 1.20094
    endloop
  endfacet
  facet normal 0.356772 -0.889263 0.286224
    outer loop
      vertex 1.11678 0.676316 1.76152
      vertex 1.1167 0.676275 1.7615
      vertex 1.16339 0.514584 1.20094
    endloop
  endfacet
  facet normal 0.316747 -0.904003 0.287142
    outer loop
      vertex 1.1167 0.676275 1.7615
      vertex 1.11661 0.676239 1.76148
      vertex 1.16339 0.514584 1.20094
    endloop
  endfacet
  facet normal 0.306888 -0.907352 0.287285
    outer loop
      vertex 1.16339 0.514584 1.20094
      vertex 1.11661 0.676239 1.76148
      vertex 1.16332 0.51418 1.19974
    endloop
  endfacet
  facet normal 0.276102 -0.917109 0.28754
    outer loop
      vertex 1.11661 0.676239 1.76148
      vertex 1.11653 0.676208 1.76146
      vertex 1.16332 0.51418 1.19974
    endloop
  endfacet
  facet normal 0.233317 -0.928961 0.287394
    outer loop
      vertex 1.11653 0.676208 1.76146
      vertex 1.11644 0.676182 1.76145
      vertex 1.16332 0.51418 1.19974
    endloop
  endfacet
  facet normal 0.223401 -0.931431 0.287279
    outer loop
      vertex 1.16332 0.51418 1.19974
      vertex 1.11644 0.676182 1.76145
      vertex 1.16324 0.513789 1.19854
    endloop
  endfacet
  facet normal 0.19246 -0.938477 0.28674
    outer loop
      vertex 1.11644 0.676182 1.76145
      vertex 1.11635 0.67616 1.76144
      vertex 1.16324 0.513789 1.19854
    endloop
  endfacet
  facet normal 0.149886 -0.946576 0.28553
    outer loop
      vertex 1.11635 0.67616 1.76144
      vertex 1.11626 0.676143 1.76143
      vertex 1.16324 0.513789 1.19854
    endloop
  endfacet
  facet normal 0.132808 -0.949314 0.284894
    outer loop
      vertex 1.16324 0.513789 1.19854
      vertex 1.11626 0.676143 1.76143
      vertex 1.16314 0.513413 1.19733
    endloop
  endfacet
  facet normal 0.0214707 -0.960125 0.278747
    outer loop
      vertex 1.11599 0.676121 1.76142
      vertex 1.16304 0.513111 1.19631
      vertex 1.11608 0.676124 1.76142
    endloop
  endfacet
  facet normal 0.0430943 -0.958971 0.280211
    outer loop
      vertex 1.16304 0.513111 1.19631
      vertex 1.16314 0.513413 1.19733
      vertex 1.11608 0.676124 1.76142
    endloop
  endfacet
  facet normal 0.0643842 -0.95739 0.281531
    outer loop
      vertex 1.11608 0.676124 1.76142
      vertex 1.16314 0.513413 1.19733
      vertex 1.11617 0.676131 1.76142
    endloop
  endfacet
  facet normal 0.106951 -0.952906 0.283782
    outer loop
      vertex 1.16314 0.513413 1.19733
      vertex 1.11626 0.676143 1.76143
      vertex 1.11617 0.676131 1.76142
    endloop
  endfacet
  facet normal 0 0 -1
    outer loop
      vertex 0.984252 0.643497 1.12793
      vertex 1.01802 0.643497 1.12793
      vertex 0.984252 0.562464 1.12793
    endloop
  endfacet
  facet normal 0 0 -1
    outer loop
      vertex 1.01802 0.643497 1.12793
      vertex 1.15603 0.493386 1.12793
      vertex 0.984252 0.562464 1.12793
    endloop
  endfacet
  facet normal 0 0 -1
    outer loop
      vertex 0.984252 0.562464 1.12793
      vertex 1.15603 0.493386 1.12793
      vertex 1.05237 0.493386 1.12793
    endloop
  endfacet
  facet normal 0 0 1
    outer loop
      vertex 0.354331 0.545202 0.931081
      vertex 0.354331 0.643497 0.931081
      vertex 0.15748 0.643497 0.931081
    endloop
  endfacet
  facet normal 0 0 1
    outer loop
      vertex 0.15748 -0.255688 0.931081
      vertex 0.231299 -0.255688 0.931081
      vertex 0.15748 0.643497 0.931081
    endloop
  endfacet
  facet normal 0 0 1
    outer loop
      vertex 0.231299 -0.255688 0.931081
      vertex 0.231299 0.464994 0.931081
      vertex 0.15748 0.643497 0.931081
    endloop
  endfacet
  facet normal 0 0 1
    outer loop
      vertex 0.15748 0.643497 0.931081
      vertex 0.231299 0.464994 0.931081
      vertex 0.354331 0.545202 0.931081
    endloop
  endfacet
  facet normal 0 0 1
    outer loop
      vertex 0.231299 0.464994 0.931081
      vertex 0.255906 0.464994 0.931081
      vertex 0.354331 0.545202 0.931081
    endloop
  endfacet
  facet normal 0 0 1
    outer loop
      vertex 0.354331 0.545202 0.931081
      vertex 0.255906 0.464994 0.931081
      vertex 0.433062 0.467637 0.931081
    endloop
  endfacet
  facet normal 0.712357 -0.701817 -9.20118e-7
    outer loop
      vertex 0.908809 0.478023 0.992397
      vertex 0.905521 0.474685 0.991624
      vertex 0.910506 0.479746 0.943339
    endloop
  endfacet
  facet normal 0.712362 -0.701812 0
    outer loop
      vertex 0.905521 0.474685 0.991624
      vertex 0.905521 0.474685 0.931081
      vertex 0.910506 0.479746 0.943339
    endloop
  endfacet
  facet normal 0.712361 -0.701814 9.09785e-7
    outer loop
      vertex 0.910506 0.479746 0.943339
      vertex 0.905521 0.474685 0.931081
      vertex 0.984252 0.5546 0.979935
    endloop
  endfacet
  facet normal 0.712361 -0.701813 0
    outer loop
      vertex 0.905521 0.474685 0.931081
      vertex 0.984252 0.5546 0.931081
      vertex 0.984252 0.5546 0.979935
    endloop
  endfacet
  facet normal 1 0 0
    outer loop
      vertex 0.984252 0.643497 1.12793
      vertex 0.984252 0.562464 1.12793
      vertex 0.984252 0.643497 1.03613
    endloop
  endfacet
  facet normal 1 0 0
    outer loop
      vertex 0.984252 0.562464 1.12793
      vertex 0.984252 0.5546 1.08939
      vertex 0.984252 0.643497 1.03613
    endloop
  endfacet
  facet normal 1 0 0
    outer loop
      vertex 0.984252 0.643497 0.931081
      vertex 0.984252 0.643497 0.950766
      vertex 0.984252 0.5546 0.931081
    endloop
  endfacet
  facet normal 1 0 0
    outer loop
      vertex 0.984252 0.643497 0.950766
      vertex 0.984252 0.614062 0.96254
      vertex 0.984252 0.5546 0.931081
    endloop
  endfacet
  facet normal 1 0 0
    outer loop
      vertex 0.984252 0.5546 1.08939
      vertex 0.984252 0.5546 1.057
      vertex 0.984252 0.643497 1.03613
    endloop
  endfacet
  facet normal 1 0 0
    outer loop
      vertex 0.984252 0.5546 1.057
      vertex 0.984252 0.585007 0.994801
      vertex 0.984252 0.643497 1.03613
    endloop
  endfacet
  facet normal 1 0 0
    outer loop
      vertex 0.984252 0.643497 1.03613
      vertex 0.984252 0.585007 0.994801
      vertex 0.984252 0.614062 0.96254
    endloop
  endfacet
  facet normal 1 0 0
    outer loop
      vertex 0.984252 0.585007 0.994801
      vertex 0.984252 0.5546 0.979935
      vertex 0.984252 0.614062 0.96254
    endloop
  endfacet
  facet normal 1 0 0
    outer loop
      vertex 0.984252 0.614062 0.96254
      vertex 0.984252 0.5546 0.979935
      vertex 0.984252 0.5546 0.931081
    endloop
  endfacet
  facet normal -0.00932596 0.928484 -0.371256
    outer loop
      vertex 0.174429 0.516947 1.20791
      vertex 0.174208 0.515344 1.20391
      vertex 0.174351 0.51664 1.20714
    endloop
  endfacet
  facet normal -0.00969862 0.928486 -0.371241
    outer loop
      vertex 0.174208 0.515344 1.20391
      vertex 0.174191 0.515973 1.20548
      vertex 0.174351 0.51664 1.20714
    endloop
  endfacet
  facet normal -0.00924921 0.928483 -0.37126
    outer loop
      vertex 0.174429 0.516947 1.20791
      vertex 0.174523 0.517299 1.20879
      vertex 0.174208 0.515344 1.20391
    endloop
  endfacet
  facet normal -0.00864703 0.928474 -0.371296
    outer loop
      vertex 0.174523 0.517299 1.20879
      vertex 0.17471 0.517952 1.21042
      vertex 0.174208 0.515344 1.20391
    endloop
  endfacet
  facet normal -0.00916721 0.928484 -0.371259
    outer loop
      vertex 0.174208 0.515344 1.20391
      vertex 0.17471 0.517952 1.21042
      vertex 0.174803 0.518256 1.21117
    endloop
  endfacet
  facet normal -0.936588 0.349683 -0.022888
    outer loop
      vertex 0.220631 0.677042 1.76192
      vertex 0.220707 0.677254 1.76204
      vertex 0.174863 0.518427 1.21144
    endloop
  endfacet
  facet normal -0.903554 0.425821 -0.0476013
    outer loop
      vertex 0.220707 0.677254 1.76204
      vertex 0.220797 0.677459 1.76215
      vertex 0.174863 0.518427 1.21144
    endloop
  endfacet
  facet normal -0.903618 0.425692 -0.0475587
    outer loop
      vertex 0.174863 0.518427 1.21144
      vertex 0.220797 0.677459 1.76215
      vertex 0.174978 0.518719 1.21185
    endloop
  endfacet
  facet normal -0.823888 0.559123 -0.0926852
    outer loop
      vertex 0.17516 0.519081 1.21227
      vertex 0.175129 0.519027 1.21222
      vertex 0.220901 0.677655 1.76226
    endloop
  endfacet
  facet normal -0.835715 0.542255 -0.0868365
    outer loop
      vertex 0.175129 0.519027 1.21222
      vertex 0.175098 0.518971 1.21216
      vertex 0.220901 0.677655 1.76226
    endloop
  endfacet
  facet normal -0.864017 0.498315 -0.0718051
    outer loop
      vertex 0.220901 0.677655 1.76226
      vertex 0.175098 0.518971 1.21216
      vertex 0.220797 0.677459 1.76215
    endloop
  endfacet
  facet normal -0.853032 0.516024 -0.0778208
    outer loop
      vertex 0.175098 0.518971 1.21216
      vertex 0.175038 0.51885 1.21202
      vertex 0.220797 0.677459 1.76215
    endloop
  endfacet
  facet normal -0.874492 0.480555 -0.0658097
    outer loop
      vertex 0.220797 0.677459 1.76215
      vertex 0.175038 0.51885 1.21202
      vertex 0.174978 0.518719 1.21185
    endloop
  endfacet
  facet normal -0.748222 0.651449 -0.125611
    outer loop
      vertex 0.175301 0.51929 1.21241
      vertex 0.221018 0.67784 1.76236
      vertex 0.175349 0.519348 1.21242
    endloop
  endfacet
  facet normal -0.765652 0.632223 -0.118622
    outer loop
      vertex 0.221018 0.67784 1.76236
      vertex 0.221146 0.678013 1.76246
      vertex 0.175349 0.519348 1.21242
    endloop
  endfacet
  facet normal -0.729288 0.671179 -0.132887
    outer loop
      vertex 0.175349 0.519348 1.21242
      vertex 0.221146 0.678013 1.76246
      vertex 0.175383 0.519385 1.21242
    endloop
  endfacet
  facet normal -0.768913 0.628505 -0.117276
    outer loop
      vertex 0.175301 0.51929 1.21241
      vertex 0.175254 0.519227 1.21238
      vertex 0.221018 0.67784 1.76236
    endloop
  endfacet
  facet normal -0.785716 0.608699 -0.110166
    outer loop
      vertex 0.175254 0.519227 1.21238
      vertex 0.175222 0.519181 1.21235
      vertex 0.221018 0.67784 1.76236
    endloop
  endfacet
  facet normal -0.817712 0.567625 -0.0956537
    outer loop
      vertex 0.221018 0.67784 1.76236
      vertex 0.175222 0.519181 1.21235
      vertex 0.220901 0.677655 1.76226
    endloop
  endfacet
  facet normal -0.799037 0.59217 -0.104278
    outer loop
      vertex 0.175222 0.519181 1.21235
      vertex 0.175191 0.519132 1.21231
      vertex 0.220901 0.677655 1.76226
    endloop
  endfacet
  facet normal -0.811498 0.57598 -0.0985759
    outer loop
      vertex 0.220901 0.677655 1.76226
      vertex 0.175191 0.519132 1.21231
      vertex 0.17516 0.519081 1.21227
    endloop
  endfacet
  facet normal -0.721285 0.679183 -0.135863
    outer loop
      vertex 0.221221 0.678102 1.76251
      vertex 0.175418 0.51942 1.21241
      vertex 0.221146 0.678013 1.76246
    endloop
  endfacet
  facet normal -0.706097 0.693862 -0.141358
    outer loop
      vertex 0.175418 0.51942 1.21241
      vertex 0.17541 0.519412 1.21241
      vertex 0.221146 0.678013 1.76246
    endloop
  endfacet
  facet normal -0.7152 0.685143 -0.138087
    outer loop
      vertex 0.221146 0.678013 1.76246
      vertex 0.17541 0.519412 1.21241
      vertex 0.175383 0.519385 1.21242
    endloop
  endfacet
  facet normal -0.929437 0.367862 -0.0287206
    outer loop
      vertex 0.174863 0.518427 1.21144
      vertex 0.174803 0.518256 1.21117
      vertex 0.220631 0.677042 1.76192
    endloop
  endfacet
  facet normal -0.944321 0.328627 -0.0161702
    outer loop
      vertex 0.174803 0.518256 1.21117
      vertex 0.17471 0.517952 1.21042
      vertex 0.220631 0.677042 1.76192
    endloop
  endfacet
  facet normal -0.962563 0.271049 0.00195772
    outer loop
      vertex 0.220631 0.677042 1.76192
      vertex 0.17471 0.517952 1.21042
      vertex 0.220569 0.676823 1.7618
    endloop
  endfacet
  facet normal -0.962712 0.27052 0.00212243
    outer loop
      vertex 0.17471 0.517952 1.21042
      vertex 0.174523 0.517299 1.20879
      vertex 0.220569 0.676823 1.7618
    endloop
  endfacet
  facet normal -0.981354 0.190331 0.0268063
    outer loop
      vertex 0.220569 0.676823 1.7618
      vertex 0.174523 0.517299 1.20879
      vertex 0.220522 0.676601 1.76168
    endloop
  endfacet
  facet normal -0.74294 -0.624187 0.241723
    outer loop
      vertex 0.174208 0.515344 1.20391
      vertex 0.220477 0.676188 1.76145
      vertex 0.174191 0.515973 1.20548
    endloop
  endfacet
  facet normal -0.996701 0.0366444 0.0724166
    outer loop
      vertex 0.220477 0.676188 1.76145
      vertex 0.220491 0.676377 1.76156
      vertex 0.174191 0.515973 1.20548
    endloop
  endfacet
  facet normal -0.992699 0.109242 0.051142
    outer loop
      vertex 0.174191 0.515973 1.20548
      vertex 0.220491 0.676377 1.76156
      vertex 0.174351 0.51664 1.20714
    endloop
  endfacet
  facet normal -0.99278 0.108377 0.051398
    outer loop
      vertex 0.220491 0.676377 1.76156
      vertex 0.220522 0.676601 1.76168
      vertex 0.174351 0.51664 1.20714
    endloop
  endfacet
  facet normal -0.985093 0.16876 0.03334
    outer loop
      vertex 0.174351 0.51664 1.20714
      vertex 0.220522 0.676601 1.76168
      vertex 0.174429 0.516947 1.20791
    endloop
  endfacet
  facet normal -0.977688 0.208997 0.0211232
    outer loop
      vertex 0.220522 0.676601 1.76168
      vertex 0.174523 0.517299 1.20879
      vertex 0.174429 0.516947 1.20791
    endloop
  endfacet
  facet normal 0 -1 0
    outer loop
      vertex 0.984252 0.643497 1.12793
      vertex 0.984252 0.643497 1.03613
      vertex 1.01802 0.643497 1.12793
    endloop
  endfacet
  facet normal -0.704855 -0.695033 0.141803
    outer loop
      vertex 0.984252 0.562464 1.12793
      vertex 1.05237 0.493386 1.12793
      vertex 0.999623 0.676121 1.76142
    endloop
  endfacet
  facet normal -0.704855 -0.695034 0.141803
    outer loop
      vertex 0.999623 0.676121 1.76142
      vertex 0.920631 0.751777 1.73959
      vertex 0.984252 0.562464 1.12793
    endloop
  endfacet
  facet normal -0.704854 -0.695034 0.141803
    outer loop
      vertex 0.920631 0.751777 1.73959
      vertex 0.976426 0.558474 1.06948
      vertex 0.984252 0.562464 1.12793
    endloop
  endfacet
  facet normal -0.704854 -0.695034 0.141803
    outer loop
      vertex 0.984252 0.562464 1.12793
      vertex 0.976426 0.558474 1.06948
      vertex 0.984252 0.5546 1.08939
    endloop
  endfacet
  facet normal -0.704855 -0.695033 0.141804
    outer loop
      vertex 0.976426 0.558474 1.06948
      vertex 0.981944 0.552258 1.06644
      vertex 0.984252 0.5546 1.08939
    endloop
  endfacet
  facet normal 0 0 1
    outer loop
      vertex 1.06651 0.464994 0.931081
      vertex 1.06651 -0.255688 0.931081
      vertex 1.10236 -0.255688 0.931081
    endloop
  endfacet
  facet normal 0 0 1
    outer loop
      vertex 1.10236 -0.255688 0.931081
      vertex 1.10236 0.643497 0.931081
      vertex 1.06651 0.464994 0.931081
    endloop
  endfacet
  facet normal 0 0 1
    outer loop
      vertex 1.10236 0.643497 0.931081
      vertex 1.049 0.47672 0.931081
      vertex 1.06651 0.464994 0.931081
    endloop
  endfacet
  facet normal 0 0 1
    outer loop
      vertex 1.06651 0.464994 0.931081
      vertex 1.049 0.47672 0.931081
      vertex 1.06056 0.464994 0.931081
    endloop
  endfacet
  facet normal 0 0 1
    outer loop
      vertex 1.10236 0.643497 0.931081
      vertex 0.984252 0.643497 0.931081
      vertex 1.049 0.47672 0.931081
    endloop
  endfacet
  facet normal 0 0 1
    outer loop
      vertex 0.984252 0.643497 0.931081
      vertex 0.984252 0.5546 0.931081
      vertex 1.049 0.47672 0.931081
    endloop
  endfacet
  facet normal 0 0 1
    outer loop
      vertex 1.049 0.47672 0.931081
      vertex 0.984252 0.5546 0.931081
      vertex 1.04191 0.47672 0.931081
    endloop
  endfacet
  facet normal 0 0 1
    outer loop
      vertex 0.984252 0.5546 0.931081
      vertex 0.905521 0.474685 0.931081
      vertex 1.04191 0.47672 0.931081
    endloop
  endfacet
  facet normal -0.704855 0.695034 -0.141803
    outer loop
      vertex 0.326633 0.798578 1.82904
      vertex 0.417952 0.866203 1.70658
      vertex 0.221221 0.678102 1.76251
    endloop
  endfacet
  facet normal -0.704855 0.695034 -0.141803
    outer loop
      vertex 0.417952 0.866203 1.70658
      vertex 0.370708 0.702526 1.13917
      vertex 0.221221 0.678102 1.76251
    endloop
  endfacet
  facet normal -0.704855 0.695034 -0.141803
    outer loop
      vertex 0.221221 0.678102 1.76251
      vertex 0.370708 0.702526 1.13917
      vertex 0.175418 0.51942 1.21241
    endloop
  endfacet
  facet normal 0 0.875387 0.483423
    outer loop
      vertex 0.417952 0.866203 1.70658
      vertex 0.326633 0.798578 1.82904
      vertex 0.920631 0.866203 1.70658
    endloop
  endfacet
  facet normal 0 0.875387 0.483423
    outer loop
      vertex 0.326633 0.798578 1.82904
      vertex 1.01195 0.798578 1.82904
      vertex 0.920631 0.866203 1.70658
    endloop
  endfacet
  facet normal 0.704854 -0.695034 0.141803
    outer loop
      vertex 0.354331 0.549658 1.06517
      vertex 0.362157 0.558474 1.06948
      vertex 0.354331 0.562464 1.12793
    endloop
  endfacet
  facet normal 0.704854 -0.695034 0.141803
    outer loop
      vertex 0.362157 0.558474 1.06948
      vertex 0.417952 0.751777 1.73959
      vertex 0.354331 0.562464 1.12793
    endloop
  endfacet
  facet normal 0.704855 -0.695033 0.141803
    outer loop
      vertex 0.354331 0.562464 1.12793
      vertex 0.417952 0.751777 1.73959
      vertex 0.286215 0.493386 1.12793
    endloop
  endfacet
  facet normal 0.704855 -0.695034 0.141803
    outer loop
      vertex 0.417952 0.751777 1.73959
      vertex 0.33896 0.676121 1.76142
      vertex 0.286215 0.493386 1.12793
    endloop
  endfacet
  facet normal -0.71205 -0.702129 0
    outer loop
      vertex 1.049 0.47672 0.931081
      vertex 1.049 0.47672 0.913567
      vertex 1.06056 0.464994 0.931081
    endloop
  endfacet
  facet normal -0.71205 -0.702129 0
    outer loop
      vertex 1.049 0.47672 0.913567
      vertex 1.06056 0.464994 0.925129
      vertex 1.06056 0.464994 0.931081
    endloop
  endfacet
  facet normal 0.704855 0.695034 -0.141803
    outer loop
      vertex 1.16357 0.519039 1.21256
      vertex 0.967875 0.702526 1.13917
      vertex 1.1178 0.677597 1.76223
    endloop
  endfacet
  facet normal 0.704855 0.695033 -0.141803
    outer loop
      vertex 0.967875 0.702526 1.13917
      vertex 0.920631 0.866203 1.70658
      vertex 1.1178 0.677597 1.76223
    endloop
  endfacet
  facet normal 0.704855 0.695034 -0.141803
    outer loop
      vertex 1.1178 0.677597 1.76223
      vertex 0.920631 0.866203 1.70658
      vertex 1.01195 0.798578 1.82904
    endloop
  endfacet
  facet normal -2.82588e-7 -0.92388 0.382683
    outer loop
      vertex 1.12542 -0.27875 0.875403
      vertex 1.10236 -0.255688 0.931081
      vertex 1.11151 -0.284516 0.861484
    endloop
  endfacet
  facet normal 0 -0.92388 0.382683
    outer loop
      vertex 1.10236 -0.255688 0.931081
      vertex 1.06651 -0.255688 0.931081
      vertex 1.11151 -0.284516 0.861484
    endloop
  endfacet
  facet normal -2.63658e-8 -0.92388 0.382683
    outer loop
      vertex 1.11151 -0.284516 0.861484
      vertex 1.06651 -0.255688 0.931081
      vertex 1.08486 -0.289087 0.850447
    endloop
  endfacet
  facet normal 4.99155e-7 -0.92388 0.382683
    outer loop
      vertex 1.06651 -0.255688 0.931081
      vertex 1.04191 -0.26588 0.906475
      vertex 1.08486 -0.289087 0.850447
    endloop
  endfacet
  facet normal 0 -0.92388 0.382683
    outer loop
      vertex 1.08486 -0.289087 0.850447
      vertex 1.04191 -0.26588 0.906475
      vertex 0.238114 -0.289087 0.850447
    endloop
  endfacet
  facet normal 0 -0.92388 0.382683
    outer loop
      vertex 1.04191 -0.26588 0.906475
      vertex 0.255906 -0.26588 0.906475
      vertex 0.238114 -0.289087 0.850447
    endloop
  endfacet
  facet normal -2.04241e-7 -0.92388 0.382683
    outer loop
      vertex 0.238114 -0.289087 0.850447
      vertex 0.255906 -0.26588 0.906475
      vertex 0.15748 -0.255688 0.931081
    endloop
  endfacet
  facet normal 0 -0.923879 0.382684
    outer loop
      vertex 0.255906 -0.26588 0.906475
      vertex 0.231299 -0.255688 0.931081
      vertex 0.15748 -0.255688 0.931081
    endloop
  endfacet
  facet normal 0.712351 -0.701824 0
    outer loop
      vertex 0.984252 0.5546 1.057
      vertex 0.984252 0.5546 1.08939
      vertex 0.981944 0.552258 1.06644
    endloop
  endfacet
  facet normal 0 -0.439216 0.898382
    outer loop
      vertex 0.976426 0.593058 0.998737
      vertex 0.768 0.593058 0.998737
      vertex 0.981944 0.586842 0.995698
    endloop
  endfacet
  facet normal -3.83391e-8 -0.439217 0.898381
    outer loop
      vertex 0.768 0.593058 0.998737
      vertex 0.910506 0.479746 0.943339
      vertex 0.981944 0.586842 0.995698
    endloop
  endfacet
  facet normal 1.44081e-5 -0.439224 0.898377
    outer loop
      vertex 0.981944 0.586842 0.995698
      vertex 0.910506 0.479746 0.943339
      vertex 0.984252 0.585007 0.994801
    endloop
  endfacet
  facet normal -3.9493e-7 -0.439216 0.898381
    outer loop
      vertex 0.910506 0.479746 0.943339
      vertex 0.984252 0.5546 0.979935
      vertex 0.984252 0.585007 0.994801
    endloop
  endfacet
  facet normal 0.705978 -0.680488 0.196295
    outer loop
      vertex 0.33896 0.676121 1.76142
      vertex 0.417952 0.751777 1.73959
      vertex 0.417952 0.7736 1.81525
    endloop
  endfacet
  facet normal -2.01571e-7 -0.439217 0.898381
    outer loop
      vertex 0.354331 0.545202 0.97534
      vertex 0.421288 0.479236 0.94309
      vertex 0.354331 0.584242 0.994427
    endloop
  endfacet
  facet normal -6.16088e-8 -0.439216 0.898381
    outer loop
      vertex 0.421288 0.479236 0.94309
      vertex 0.560228 0.593058 0.998737
      vertex 0.354331 0.584242 0.994427
    endloop
  endfacet
  facet normal 0 -0.439218 0.898381
    outer loop
      vertex 0.354331 0.584242 0.994427
      vertex 0.560228 0.593058 0.998737
      vertex 0.362157 0.593058 0.998737
    endloop
  endfacet
  facet normal 0 -1 0
    outer loop
      vertex 0.255906 0.464994 0.931081
      vertex 0.231299 0.464994 0.931081
      vertex 0.255906 0.464994 0.906475
    endloop
  endfacet
  facet normal 0.014917 -0.999889 0
    outer loop
      vertex 0.433062 0.467637 0.931081
      vertex 0.255906 0.464994 0.931081
      vertex 0.255906 0.464994 0.906475
    endloop
  endfacet
  facet normal 0.0149167 -0.999889 0
    outer loop
      vertex 1.04191 0.47672 0.906475
      vertex 1.04191 0.47672 0.931081
      vertex 0.905521 0.474685 0.931081
    endloop
  endfacet
  facet normal 0.014917 -0.999889 0
    outer loop
      vertex 0.905521 0.474685 0.991624
      vertex 0.433062 0.467637 0.989994
      vertex 0.905521 0.474685 0.931081
    endloop
  endfacet
  facet normal 0.014917 -0.999889 0
    outer loop
      vertex 0.433062 0.467637 0.989994
      vertex 0.433062 0.467637 0.931081
      vertex 0.905521 0.474685 0.931081
    endloop
  endfacet
  facet normal 0.014917 -0.999889 1.66596e-6
    outer loop
      vertex 0.905521 0.474685 0.931081
      vertex 0.433062 0.467637 0.931081
      vertex 1.04191 0.47672 0.906475
    endloop
  endfacet
  facet normal 0.014917 -0.999889 2.17234e-7
    outer loop
      vertex 0.433062 0.467637 0.931081
      vertex 0.255906 0.464994 0.906475
      vertex 1.04191 0.47672 0.906475
    endloop
  endfacet
  facet normal -4.69813e-7 0.371392 0.928476
    outer loop
      vertex 0.354331 0.643497 0.950766
      vertex 0.354331 0.614062 0.96254
      vertex 0.370708 0.629417 0.956398
    endloop
  endfacet
  facet normal 0 0.371392 0.928476
    outer loop
      vertex 0.354331 0.643497 0.950766
      vertex 0.370708 0.629417 0.956398
      vertex 0.984252 0.643497 0.950766
    endloop
  endfacet
  facet normal 0 0.371392 0.928476
    outer loop
      vertex 0.370708 0.629417 0.956398
      vertex 0.967875 0.629417 0.956398
      vertex 0.984252 0.643497 0.950766
    endloop
  endfacet
  facet normal 4.69813e-7 0.371392 0.928476
    outer loop
      vertex 0.984252 0.643497 0.950766
      vertex 0.967875 0.629417 0.956398
      vertex 0.984252 0.614062 0.96254
    endloop
  endfacet
  facet normal 0 -0.960824 0.277161
    outer loop
      vertex 1.11599 0.676121 1.76142
      vertex 0.999623 0.676121 1.76142
      vertex 1.16304 0.513111 1.19631
    endloop
  endfacet
  facet normal -1.61425e-7 -0.960824 0.277161
    outer loop
      vertex 0.999623 0.676121 1.76142
      vertex 1.05237 0.493386 1.12793
      vertex 1.16304 0.513111 1.19631
    endloop
  endfacet
  facet normal 0 -0.960824 0.27716
    outer loop
      vertex 1.16304 0.513111 1.19631
      vertex 1.05237 0.493386 1.12793
      vertex 1.15603 0.493386 1.12793
    endloop
  endfacet
  facet normal 0.382683 0 -0.92388
    outer loop
      vertex 1.04191 0.545071 0.832656
      vertex 1.11151 0.5739 0.861484
      vertex 1.04191 -0.246135 0.832656
    endloop
  endfacet
  facet normal 0.382683 0 -0.92388
    outer loop
      vertex 1.11151 0.5739 0.861484
      vertex 1.11151 -0.284516 0.861484
      vertex 1.04191 -0.246135 0.832656
    endloop
  endfacet
  facet normal 0.382683 3.83791e-7 -0.92388
    outer loop
      vertex 1.04191 -0.246135 0.832656
      vertex 1.11151 -0.284516 0.861484
      vertex 1.08486 -0.289087 0.850447
    endloop
  endfacet
  facet normal -1 0 0
    outer loop
      vertex 0.354331 0.614062 0.96254
      vertex 0.354331 0.643497 0.950766
      vertex 0.354331 0.643497 0.931081
    endloop
  endfacet
  facet normal -1 0 0
    outer loop
      vertex 0.354331 0.545202 0.931081
      vertex 0.354331 0.545202 0.97534
      vertex 0.354331 0.584242 0.994427
    endloop
  endfacet
  facet normal -1 0 0
    outer loop
      vertex 0.354331 0.562464 1.12793
      vertex 0.354331 0.643497 1.12793
      vertex 0.354331 0.549658 1.06517
    endloop
  endfacet
  facet normal -1 0 0
    outer loop
      vertex 0.354331 0.643497 1.12793
      vertex 0.354331 0.643497 1.03613
      vertex 0.354331 0.549658 1.06517
    endloop
  endfacet
  facet normal -1 0 0
    outer loop
      vertex 0.354331 0.549658 1.06517
      vertex 0.354331 0.643497 1.03613
      vertex 0.354331 0.584242 0.994427
    endloop
  endfacet
  facet normal -1 0 0
    outer loop
      vertex 0.354331 0.643497 1.03613
      vertex 0.354331 0.614062 0.96254
      vertex 0.354331 0.584242 0.994427
    endloop
  endfacet
  facet normal -1 0 0
    outer loop
      vertex 0.354331 0.584242 0.994427
      vertex 0.354331 0.614062 0.96254
      vertex 0.354331 0.545202 0.931081
    endloop
  endfacet
  facet normal -1 0 0
    outer loop
      vertex 0.354331 0.614062 0.96254
      vertex 0.354331 0.643497 0.931081
      vertex 0.354331 0.545202 0.931081
    endloop
  endfacet
  facet normal 0 1 0
    outer loop
      vertex 0.354331 0.643497 0.950766
      vertex 0.984252 0.643497 0.950766
      vertex 0.354331 0.643497 0.931081
    endloop
  endfacet
  facet normal 0 1 0
    outer loop
      vertex 0.984252 0.643497 0.950766
      vertex 0.984252 0.643497 0.931081
      vertex 0.354331 0.643497 0.931081
    endloop
  endfacet
  facet normal -0.000453587 -0.960813 0.277196
    outer loop
      vertex 0.33896 0.676121 1.76142
      vertex 0.220477 0.676188 1.76145
      vertex 0.286215 0.493386 1.12793
    endloop
  endfacet
  facet normal -0.000331892 -0.96081 0.277207
    outer loop
      vertex 0.220477 0.676188 1.76145
      vertex 0.174208 0.515344 1.20391
      vertex 0.286215 0.493386 1.12793
    endloop
  endfacet
  facet normal 0 -0.96068 0.277659
    outer loop
      vertex 0.286215 0.493386 1.12793
      vertex 0.174208 0.515344 1.20391
      vertex 0.182551 0.493386 1.12793
    endloop
  endfacet
  facet normal -0.707107 0 0.707107
    outer loop
      vertex 1.049 0.47672 0.913567
      vertex 1.04191 0.47672 0.906475
      vertex 1.06056 0.464994 0.925129
    endloop
  endfacet
  facet normal -0.707107 0 0.707107
    outer loop
      vertex 1.04191 0.47672 0.906475
      vertex 1.04191 -0.26588 0.906475
      vertex 1.06056 0.464994 0.925129
    endloop
  endfacet
  facet normal -0.707107 0 0.707107
    outer loop
      vertex 1.06056 0.464994 0.925129
      vertex 1.04191 -0.26588 0.906475
      vertex 1.06651 0.464994 0.931081
    endloop
  endfacet
  facet normal -0.707107 0 0.707107
    outer loop
      vertex 1.04191 -0.26588 0.906475
      vertex 1.06651 -0.255688 0.931081
      vertex 1.06651 0.464994 0.931081
    endloop
  endfacet
  facet normal 0 -0.960824 0.277161
    outer loop
      vertex 0.362157 0.558474 1.06948
      vertex 0.976426 0.558474 1.06948
      vertex 0.417952 0.751777 1.73959
    endloop
  endfacet
  facet normal 0 -0.960824 0.277161
    outer loop
      vertex 0.976426 0.558474 1.06948
      vertex 0.920631 0.751777 1.73959
      vertex 0.417952 0.751777 1.73959
    endloop
  endfacet
  facet normal 0 -0.960824 0.277161
    outer loop
      vertex 0.417952 0.751777 1.73959
      vertex 0.920631 0.751777 1.73959
      vertex 0.417952 0.7736 1.81525
    endloop
  endfacet
  facet normal 0 -0.960824 0.277161
    outer loop
      vertex 0.920631 0.751777 1.73959
      vertex 0.920631 0.7736 1.81525
      vertex 0.417952 0.7736 1.81525
    endloop
  endfacet
  facet normal -0.000194386 -0.483552 0.875315
    outer loop
      vertex 1.11773 0.677399 1.76212
      vertex 1.1178 0.677597 1.76223
      vertex 1.01195 0.798578 1.82904
    endloop
  endfacet
  facet normal 0 -0.483423 0.875387
    outer loop
      vertex 0.920631 0.7736 1.81525
      vertex 1.01195 0.798578 1.82904
      vertex 0.417952 0.7736 1.81525
    endloop
  endfacet
  facet normal 0 -0.483423 0.875387
    outer loop
      vertex 1.01195 0.798578 1.82904
      vertex 0.326633 0.798578 1.82904
      vertex 0.417952 0.7736 1.81525
    endloop
  endfacet
  facet normal 2.6854e-7 -0.483422 0.875387
    outer loop
      vertex 0.417952 0.7736 1.81525
      vertex 0.326633 0.798578 1.82904
      vertex 0.33896 0.676121 1.76142
    endloop
  endfacet
  facet normal -2.75676e-7 -0.483422 0.875387
    outer loop
      vertex 0.326633 0.798578 1.82904
      vertex 0.221221 0.678102 1.76251
      vertex 0.33896 0.676121 1.76142
    endloop
  endfacet
  facet normal -1.25858e-5 -0.483983 0.875077
    outer loop
      vertex 0.33896 0.676121 1.76142
      vertex 0.221221 0.678102 1.76251
      vertex 0.221146 0.678013 1.76246
    endloop
  endfacet
  facet normal -3.56005e-7 -0.483505 0.875341
    outer loop
      vertex 0.220569 0.676823 1.7618
      vertex 0.220522 0.676601 1.76168
      vertex 0.33896 0.676121 1.76142
    endloop
  endfacet
  facet normal -3.3465e-7 -0.483501 0.875344
    outer loop
      vertex 0.220522 0.676601 1.76168
      vertex 0.220491 0.676377 1.76156
      vertex 0.33896 0.676121 1.76142
    endloop
  endfacet
  facet normal -6.04893e-7 -0.483597 0.875291
    outer loop
      vertex 0.33896 0.676121 1.76142
      vertex 0.220491 0.676377 1.76156
      vertex 0.220477 0.676188 1.76145
    endloop
  endfacet
  facet normal 0.000673942 -0.482976 0.875634
    outer loop
      vertex 1.1173 0.676718 1.76175
      vertex 1.11737 0.676792 1.76179
      vertex 1.01195 0.798578 1.82904
    endloop
  endfacet
  facet normal -0.000522617 -0.483769 0.875195
    outer loop
      vertex 1.11737 0.676792 1.76179
      vertex 1.11743 0.676869 1.76183
      vertex 1.01195 0.798578 1.82904
    endloop
  endfacet
  facet normal -0.000236801 -0.483579 0.875301
    outer loop
      vertex 1.11709 0.676521 1.76164
      vertex 1.11716 0.676583 1.76167
      vertex 1.01195 0.798578 1.82904
    endloop
  endfacet
  facet normal 0.000234379 -0.483267 0.875473
    outer loop
      vertex 1.11716 0.676583 1.76167
      vertex 1.11723 0.676649 1.76171
      vertex 1.01195 0.798578 1.82904
    endloop
  endfacet
  facet normal -0.000413969 -0.483696 0.875236
    outer loop
      vertex 1.01195 0.798578 1.82904
      vertex 1.11723 0.676649 1.76171
      vertex 1.1173 0.676718 1.76175
    endloop
  endfacet
  facet normal 2.34142e-7 -0.483376 0.875413
    outer loop
      vertex 0.220797 0.677459 1.76215
      vertex 0.220707 0.677254 1.76204
      vertex 0.33896 0.676121 1.76142
    endloop
  endfacet
  facet normal 2.75925e-6 -0.483174 0.875524
    outer loop
      vertex 0.220707 0.677254 1.76204
      vertex 0.220631 0.677042 1.76192
      vertex 0.33896 0.676121 1.76142
    endloop
  endfacet
  facet normal 4.38056e-7 -0.483403 0.875398
    outer loop
      vertex 0.33896 0.676121 1.76142
      vertex 0.220631 0.677042 1.76192
      vertex 0.220569 0.676823 1.7618
    endloop
  endfacet
  facet normal 2.95383e-5 -0.483403 0.875398
    outer loop
      vertex 1.11743 0.676869 1.76183
      vertex 1.11754 0.677033 1.76192
      vertex 1.01195 0.798578 1.82904
    endloop
  endfacet
  facet normal -8.67017e-5 -0.48348 0.875355
    outer loop
      vertex 1.11754 0.677033 1.76192
      vertex 1.11764 0.677211 1.76202
      vertex 1.01195 0.798578 1.82904
    endloop
  endfacet
  facet normal 0.000178387 -0.483303 0.875453
    outer loop
      vertex 1.01195 0.798578 1.82904
      vertex 1.11764 0.677211 1.76202
      vertex 1.11773 0.677399 1.76212
    endloop
  endfacet
  facet normal -0.000767364 -0.483927 0.875108
    outer loop
      vertex 1.11686 0.67636 1.76155
      vertex 1.11694 0.67641 1.76157
      vertex 1.01195 0.798578 1.82904
    endloop
  endfacet
  facet normal 0.000880806 -0.482842 0.875707
    outer loop
      vertex 1.11694 0.67641 1.76157
      vertex 1.11702 0.676463 1.7616
      vertex 1.01195 0.798578 1.82904
    endloop
  endfacet
  facet normal -0.000431501 -0.483707 0.87523
    outer loop
      vertex 1.01195 0.798578 1.82904
      vertex 1.11702 0.676463 1.7616
      vertex 1.11709 0.676521 1.76164
    endloop
  endfacet
  facet normal 7.93622e-6 -0.483004 0.875618
    outer loop
      vertex 0.221146 0.678013 1.76246
      vertex 0.221018 0.67784 1.76236
      vertex 0.33896 0.676121 1.76142
    endloop
  endfacet
  facet normal -7.795e-7 -0.483462 0.875365
    outer loop
      vertex 0.221018 0.67784 1.76236
      vertex 0.220901 0.677655 1.76226
      vertex 0.33896 0.676121 1.76142
    endloop
  endfacet
  facet normal -2.76543e-6 -0.483579 0.875301
    outer loop
      vertex 0.33896 0.676121 1.76142
      vertex 0.220901 0.677655 1.76226
      vertex 0.220797 0.677459 1.76215
    endloop
  endfacet
  facet normal -0.000283815 -0.483609 0.875284
    outer loop
      vertex 1.11661 0.676239 1.76148
      vertex 1.1167 0.676275 1.7615
      vertex 1.01195 0.798578 1.82904
    endloop
  endfacet
  facet normal -0.000147345 -0.483519 0.875334
    outer loop
      vertex 1.1167 0.676275 1.7615
      vertex 1.11678 0.676316 1.76152
      vertex 1.01195 0.798578 1.82904
    endloop
  endfacet
  facet normal 0.000763392 -0.48292 0.875664
    outer loop
      vertex 1.01195 0.798578 1.82904
      vertex 1.11678 0.676316 1.76152
      vertex 1.11686 0.67636 1.76155
    endloop
  endfacet
  facet normal 0.000880507 -0.482846 0.875705
    outer loop
      vertex 1.11635 0.67616 1.76144
      vertex 1.11644 0.676182 1.76145
      vertex 1.01195 0.798578 1.82904
    endloop
  endfacet
  facet normal -0.000699269 -0.48388 0.875134
    outer loop
      vertex 1.11644 0.676182 1.76145
      vertex 1.11653 0.676208 1.76146
      vertex 1.01195 0.798578 1.82904
    endloop
  endfacet
  facet normal 0.000400926 -0.48316 0.875532
    outer loop
      vertex 1.01195 0.798578 1.82904
      vertex 1.11653 0.676208 1.76146
      vertex 1.11661 0.676239 1.76148
    endloop
  endfacet
  facet normal -2.6854e-7 -0.483422 0.875387
    outer loop
      vertex 0.920631 0.7736 1.81525
      vertex 0.999623 0.676121 1.76142
      vertex 1.01195 0.798578 1.82904
    endloop
  endfacet
  facet normal 0 -0.483422 0.875387
    outer loop
      vertex 0.999623 0.676121 1.76142
      vertex 1.11599 0.676121 1.76142
      vertex 1.01195 0.798578 1.82904
    endloop
  endfacet
  facet normal 0.000154307 -0.483322 0.875443
    outer loop
      vertex 1.01195 0.798578 1.82904
      vertex 1.11599 0.676121 1.76142
      vertex 1.11608 0.676124 1.76142
    endloop
  endfacet
  facet normal 0.000445398 -0.483132 0.875547
    outer loop
      vertex 1.11608 0.676124 1.76142
      vertex 1.11617 0.676131 1.76142
      vertex 1.01195 0.798578 1.82904
    endloop
  endfacet
  facet normal -0.000564019 -0.48379 0.875184
    outer loop
      vertex 1.11617 0.676131 1.76142
      vertex 1.11626 0.676143 1.76143
      vertex 1.01195 0.798578 1.82904
    endloop
  endfacet
  facet normal -0.00026844 -0.483598 0.87529
    outer loop
      vertex 1.01195 0.798578 1.82904
      vertex 1.11626 0.676143 1.76143
      vertex 1.11635 0.67616 1.76144
    endloop
  endfacet
  facet normal -0.701813 -0.712361 0
    outer loop
      vertex 0.354331 0.545202 0.97534
      vertex 0.354331 0.545202 0.931081
      vertex 0.421288 0.479236 0.94309
    endloop
  endfacet
  facet normal -0.701813 -0.712361 -6.56696e-7
    outer loop
      vertex 0.354331 0.545202 0.931081
      vertex 0.433062 0.467637 0.931081
      vertex 0.421288 0.479236 0.94309
    endloop
  endfacet
  facet normal -0.701813 -0.712362 4.19087e-8
    outer loop
      vertex 0.421288 0.479236 0.94309
      vertex 0.433062 0.467637 0.931081
      vertex 0.422744 0.477802 0.992345
    endloop
  endfacet
  facet normal -0.701813 -0.712361 0
    outer loop
      vertex 0.433062 0.467637 0.931081
      vertex 0.433062 0.467637 0.989994
      vertex 0.422744 0.477802 0.992345
    endloop
  endfacet
  facet normal 0 -1 0
    outer loop
      vertex 1.04191 0.47672 0.931081
      vertex 1.04191 0.47672 0.906475
      vertex 1.049 0.47672 0.931081
    endloop
  endfacet
  facet normal 0 -1 0
    outer loop
      vertex 1.04191 0.47672 0.906475
      vertex 1.049 0.47672 0.913567
      vertex 1.049 0.47672 0.931081
    endloop
  endfacet
  facet normal 0 0 -1
    outer loop
      vertex 0.320567 0.643497 1.12793
      vertex 0.354331 0.643497 1.12793
      vertex 0.182551 0.493386 1.12793
    endloop
  endfacet
  facet normal 0 0 -1
    outer loop
      vertex 0.354331 0.643497 1.12793
      vertex 0.354331 0.562464 1.12793
      vertex 0.182551 0.493386 1.12793
    endloop
  endfacet
  facet normal 0 0 -1
    outer loop
      vertex 0.182551 0.493386 1.12793
      vertex 0.354331 0.562464 1.12793
      vertex 0.286215 0.493386 1.12793
    endloop
  endfacet
  facet normal 0 0 1
    outer loop
      vertex 0.255906 -0.26588 0.906475
      vertex 1.04191 -0.26588 0.906475
      vertex 0.255906 0.464994 0.906475
    endloop
  endfacet
  facet normal 0 0 1
    outer loop
      vertex 1.04191 -0.26588 0.906475
      vertex 1.04191 0.47672 0.906475
      vertex 0.255906 0.464994 0.906475
    endloop
  endfacet
  facet normal -0.705978 -0.680488 0.196295
    outer loop
      vertex 0.920631 0.7736 1.81525
      vertex 0.920631 0.751777 1.73959
      vertex 0.999623 0.676121 1.76142
    endloop
  endfacet
  facet normal 0 0.960824 -0.277161
    outer loop
      vertex 0.417952 0.866203 1.70658
      vertex 0.920631 0.866203 1.70658
      vertex 0.370708 0.702526 1.13917
    endloop
  endfacet
  facet normal 0 0.960824 -0.277161
    outer loop
      vertex 0.920631 0.866203 1.70658
      vertex 0.967875 0.702526 1.13917
      vertex 0.370708 0.702526 1.13917
    endloop
  endfacet
  facet normal 0 -1 0
    outer loop
      vertex 1.06651 0.464994 0.931081
      vertex 1.06056 0.464994 0.931081
      vertex 1.06056 0.464994 0.925129
    endloop
  endfacet
  facet normal 0.707109 0 -0.707105
    outer loop
      vertex 1.12542 -0.27875 0.875403
      vertex 1.11151 -0.284516 0.861484
      vertex 1.12542 0.587819 0.875403
    endloop
  endfacet
  facet normal 0.707109 0 -0.707105
    outer loop
      vertex 1.11151 -0.284516 0.861484
      vertex 1.11151 0.5739 0.861484
      vertex 1.12542 0.587819 0.875403
    endloop
  endfacet
  facet normal -0.707107 0 -0.707107
    outer loop
      vertex 0.15748 0.643497 0.931081
      vertex 0.255906 0.545071 0.832656
      vertex 0.15748 -0.255688 0.931081
    endloop
  endfacet
  facet normal -0.707107 0 -0.707107
    outer loop
      vertex 0.255906 0.545071 0.832656
      vertex 0.255906 -0.246135 0.832656
      vertex 0.15748 -0.255688 0.931081
    endloop
  endfacet
  facet normal -0.707107 8.29675e-7 -0.707107
    outer loop
      vertex 0.15748 -0.255688 0.931081
      vertex 0.255906 -0.246135 0.832656
      vertex 0.238114 -0.289087 0.850447
    endloop
  endfacet
  facet normal 0 0.707107 -0.707107
    outer loop
      vertex 0.984252 0.643497 0.931081
      vertex 1.10236 0.643497 0.931081
      vertex 1.12542 0.587819 0.875403
    endloop
  endfacet
  facet normal 5.26836e-7 0.707107 -0.707106
    outer loop
      vertex 1.12542 0.587819 0.875403
      vertex 1.11151 0.5739 0.861484
      vertex 0.984252 0.643497 0.931081
    endloop
  endfacet
  facet normal -5.1177e-7 0.707106 -0.707107
    outer loop
      vertex 1.11151 0.5739 0.861484
      vertex 1.04191 0.545071 0.832656
      vertex 0.984252 0.643497 0.931081
    endloop
  endfacet
  facet normal 0 0.707107 -0.707107
    outer loop
      vertex 0.984252 0.643497 0.931081
      vertex 1.04191 0.545071 0.832656
      vertex 0.354331 0.643497 0.931081
    endloop
  endfacet
  facet normal 0 0.707107 -0.707107
    outer loop
      vertex 1.04191 0.545071 0.832656
      vertex 0.255906 0.545071 0.832656
      vertex 0.354331 0.643497 0.931081
    endloop
  endfacet
  facet normal 0 0.707107 -0.707107
    outer loop
      vertex 0.354331 0.643497 0.931081
      vertex 0.255906 0.545071 0.832656
      vertex 0.15748 0.643497 0.931081
    endloop
  endfacet
  facet normal 0 -0.382683 -0.92388
    outer loop
      vertex 0.238114 -0.289087 0.850447
      vertex 0.255906 -0.246135 0.832656
      vertex 1.08486 -0.289087 0.850447
    endloop
  endfacet
  facet normal 0 -0.382683 -0.92388
    outer loop
      vertex 0.255906 -0.246135 0.832656
      vertex 1.04191 -0.246135 0.832656
      vertex 1.08486 -0.289087 0.850447
    endloop
  endfacet
  facet normal 0.707106 0 0.707107
    outer loop
      vertex 0.255906 -0.26588 0.906475
      vertex 0.255906 0.464994 0.906475
      vertex 0.231299 -0.255688 0.931081
    endloop
  endfacet
  facet normal 0.707106 0 0.707107
    outer loop
      vertex 0.255906 0.464994 0.906475
      vertex 0.231299 0.464994 0.931081
      vertex 0.231299 -0.255688 0.931081
    endloop
  endfacet
  facet normal 0 0 -1
    outer loop
      vertex 0.255906 0.545071 0.832656
      vertex 1.04191 0.545071 0.832656
      vertex 0.255906 -0.246135 0.832656
    endloop
  endfacet
  facet normal 0 0 -1
    outer loop
      vertex 1.04191 0.545071 0.832656
      vertex 1.04191 -0.246135 0.832656
      vertex 0.255906 -0.246135 0.832656
    endloop
  endfacet
  facet normal -0.709763 0.669291 -0.219739
    outer loop
      vertex 0.17541 0.519412 1.21241
      vertex 0.175418 0.51942 1.21241
      vertex 0.174208 0.515344 1.20391
    endloop
  endfacet
  facet normal -0.71056 0.653311 -0.261324
    outer loop
      vertex 0.320567 0.643497 1.12793
      vertex 0.370708 0.702526 1.13917
      vertex 0.354331 0.643497 1.03613
    endloop
  endfacet
  facet normal -0.710559 0.653311 -0.261324
    outer loop
      vertex 0.370708 0.702526 1.13917
      vertex 0.370708 0.629417 0.956398
      vertex 0.354331 0.643497 1.03613
    endloop
  endfacet
  facet normal -0.71056 0.653311 -0.261324
    outer loop
      vertex 0.354331 0.643497 1.03613
      vertex 0.370708 0.629417 0.956398
      vertex 0.354331 0.614062 0.96254
    endloop
  endfacet
  facet normal -0.855935 0.500375 -0.130382
    outer loop
      vertex 0.174208 0.515344 1.20391
      vertex 0.174803 0.518256 1.21117
      vertex 0.174863 0.518427 1.21144
    endloop
  endfacet
  facet normal -0.709526 0.652359 -0.26646
    outer loop
      vertex 0.182551 0.493386 1.12793
      vertex 0.174208 0.515344 1.20391
      vertex 0.320567 0.643497 1.12793
    endloop
  endfacet
  facet normal -0.705053 0.673388 -0.222373
    outer loop
      vertex 0.174208 0.515344 1.20391
      vertex 0.175418 0.51942 1.21241
      vertex 0.320567 0.643497 1.12793
    endloop
  endfacet
  facet normal -0.71056 0.653311 -0.261323
    outer loop
      vertex 0.320567 0.643497 1.12793
      vertex 0.175418 0.51942 1.21241
      vertex 0.370708 0.702526 1.13917
    endloop
  endfacet
  facet normal -0.772817 0.607491 -0.1836
    outer loop
      vertex 0.175098 0.518971 1.21216
      vertex 0.175129 0.519027 1.21222
      vertex 0.174208 0.515344 1.20391
    endloop
  endfacet
  facet normal -0.765358 0.615537 -0.187993
    outer loop
      vertex 0.175129 0.519027 1.21222
      vertex 0.17516 0.519081 1.21227
      vertex 0.174208 0.515344 1.20391
    endloop
  endfacet
  facet normal -0.757912 0.623359 -0.192337
    outer loop
      vertex 0.174208 0.515344 1.20391
      vertex 0.17516 0.519081 1.21227
      vertex 0.175191 0.519132 1.21231
    endloop
  endfacet
  facet normal -0.828171 0.540273 -0.149123
    outer loop
      vertex 0.174863 0.518427 1.21144
      vertex 0.174978 0.518719 1.21185
      vertex 0.174208 0.515344 1.20391
    endloop
  endfacet
  facet normal -0.801638 0.574263 -0.166126
    outer loop
      vertex 0.174978 0.518719 1.21185
      vertex 0.175038 0.51885 1.21202
      vertex 0.174208 0.515344 1.20391
    endloop
  endfacet
  facet normal -0.784992 0.593888 -0.176307
    outer loop
      vertex 0.174208 0.515344 1.20391
      vertex 0.175038 0.51885 1.21202
      vertex 0.175098 0.518971 1.21216
    endloop
  endfacet
  facet normal -0.75104 0.630397 -0.196313
    outer loop
      vertex 0.175191 0.519132 1.21231
      vertex 0.175222 0.519181 1.21235
      vertex 0.174208 0.515344 1.20391
    endloop
  endfacet
  facet normal -0.743881 0.63755 -0.200425
    outer loop
      vertex 0.175222 0.519181 1.21235
      vertex 0.175254 0.519227 1.21238
      vertex 0.174208 0.515344 1.20391
    endloop
  endfacet
  facet normal -0.735733 0.645481 -0.205066
    outer loop
      vertex 0.174208 0.515344 1.20391
      vertex 0.175254 0.519227 1.21238
      vertex 0.175301 0.51929 1.21241
    endloop
  endfacet
  facet normal -0.726707 0.654003 -0.210183
    outer loop
      vertex 0.175301 0.51929 1.21241
      vertex 0.175349 0.519348 1.21242
      vertex 0.174208 0.515344 1.20391
    endloop
  endfacet
  facet normal -0.718826 0.661226 -0.214636
    outer loop
      vertex 0.175349 0.519348 1.21242
      vertex 0.175383 0.519385 1.21242
      vertex 0.174208 0.515344 1.20391
    endloop
  endfacet
  facet normal -0.713578 0.665928 -0.217592
    outer loop
      vertex 0.174208 0.515344 1.20391
      vertex 0.175383 0.519385 1.21242
      vertex 0.17541 0.519412 1.21241
    endloop
  endfacet
  facet normal 0 -0.898381 -0.439217
    outer loop
      vertex 0.777452 0.584153 1.01695
      vertex 0.768 0.593058 0.998737
      vertex 0.976426 0.593058 0.998737
    endloop
  endfacet
  facet normal 0 -0.898381 -0.439217
    outer loop
      vertex 0.362157 0.558474 1.06948
      vertex 0.362157 0.593058 0.998737
      vertex 0.560228 0.593058 0.998737
    endloop
  endfacet
  facet normal -1.0043e-7 -0.898381 -0.439217
    outer loop
      vertex 0.560228 0.593058 0.998737
      vertex 0.550806 0.584153 1.01695
      vertex 0.362157 0.558474 1.06948
    endloop
  endfacet
  facet normal 0 -0.898381 -0.439217
    outer loop
      vertex 0.550806 0.584153 1.01695
      vertex 0.777452 0.584153 1.01695
      vertex 0.362157 0.558474 1.06948
    endloop
  endfacet
  facet normal 0 -0.898381 -0.439217
    outer loop
      vertex 0.362157 0.558474 1.06948
      vertex 0.777452 0.584153 1.01695
      vertex 0.976426 0.558474 1.06948
    endloop
  endfacet
  facet normal 2.09867e-8 -0.898381 -0.439217
    outer loop
      vertex 0.777452 0.584153 1.01695
      vertex 0.976426 0.593058 0.998737
      vertex 0.976426 0.558474 1.06948
    endloop
  endfacet
  facet normal 0 0.928477 -0.371391
    outer loop
      vertex 0.967875 0.702526 1.13917
      vertex 0.967875 0.629417 0.956398
      vertex 0.370708 0.702526 1.13917
    endloop
  endfacet
  facet normal 0 0.928477 -0.371391
    outer loop
      vertex 0.967875 0.629417 0.956398
      vertex 0.370708 0.629417 0.956398
      vertex 0.370708 0.702526 1.13917
    endloop
  endfacet
  facet normal 0.71056 0.653311 -0.261324
    outer loop
      vertex 0.984252 0.614062 0.96254
      vertex 0.967875 0.629417 0.956398
      vertex 0.984252 0.643497 1.03613
    endloop
  endfacet
  facet normal 0.710559 0.653311 -0.261324
    outer loop
      vertex 0.967875 0.629417 0.956398
      vertex 0.967875 0.702526 1.13917
      vertex 0.984252 0.643497 1.03613
    endloop
  endfacet
  facet normal 0.71056 0.65331 -0.261324
    outer loop
      vertex 0.984252 0.643497 1.03613
      vertex 0.967875 0.702526 1.13917
      vertex 1.01802 0.643497 1.12793
    endloop
  endfacet
  facet normal 0.71056 0.653308 -0.26133
    outer loop
      vertex 1.16361 0.517428 1.20863
      vertex 1.1636 0.516911 1.20731
      vertex 0.967875 0.702526 1.13917
    endloop
  endfacet
  facet normal 0.710561 0.653321 -0.261295
    outer loop
      vertex 1.1636 0.516911 1.20731
      vertex 1.16358 0.516405 1.20599
      vertex 0.967875 0.702526 1.13917
    endloop
  endfacet
  facet normal 0.71056 0.653318 -0.261304
    outer loop
      vertex 1.16357 0.519039 1.21256
      vertex 1.16359 0.518491 1.21126
      vertex 0.967875 0.702526 1.13917
    endloop
  endfacet
  facet normal 0.71056 0.653309 -0.261327
    outer loop
      vertex 1.16359 0.518491 1.21126
      vertex 1.16361 0.517954 1.20995
      vertex 0.967875 0.702526 1.13917
    endloop
  endfacet
  facet normal 0.71056 0.653305 -0.261337
    outer loop
      vertex 0.967875 0.702526 1.13917
      vertex 1.16361 0.517954 1.20995
      vertex 1.16361 0.517428 1.20863
    endloop
  endfacet
  facet normal 0.71056 0.653313 -0.261316
    outer loop
      vertex 1.16358 0.516405 1.20599
      vertex 1.16354 0.515909 1.20466
      vertex 0.967875 0.702526 1.13917
    endloop
  endfacet
  facet normal 0.71056 0.65331 -0.261326
    outer loop
      vertex 1.16354 0.515909 1.20466
      vertex 1.1635 0.515424 1.20333
      vertex 0.967875 0.702526 1.13917
    endloop
  endfacet
  facet normal 0.71056 0.65331 -0.261324
    outer loop
      vertex 0.967875 0.702526 1.13917
      vertex 1.1635 0.515424 1.20333
      vertex 1.16345 0.514999 1.20214
    endloop
  endfacet
  facet normal 0.710559 0.653292 -0.261373
    outer loop
      vertex 1.16345 0.514999 1.20214
      vertex 1.16339 0.514584 1.20094
      vertex 0.967875 0.702526 1.13917
    endloop
  endfacet
  facet normal 0.710562 0.653327 -0.261277
    outer loop
      vertex 1.16339 0.514584 1.20094
      vertex 1.16332 0.51418 1.19974
      vertex 0.967875 0.702526 1.13917
    endloop
  endfacet
  facet normal 0.71056 0.653309 -0.261328
    outer loop
      vertex 0.967875 0.702526 1.13917
      vertex 1.16332 0.51418 1.19974
      vertex 1.16324 0.513789 1.19854
    endloop
  endfacet
  facet normal 0.71056 0.65331 -0.261324
    outer loop
      vertex 1.15603 0.493386 1.12793
      vertex 1.01802 0.643497 1.12793
      vertex 1.16304 0.513111 1.19631
    endloop
  endfacet
  facet normal 0.71056 0.65331 -0.261323
    outer loop
      vertex 1.01802 0.643497 1.12793
      vertex 0.967875 0.702526 1.13917
      vertex 1.16304 0.513111 1.19631
    endloop
  endfacet
  facet normal 0.710559 0.653301 -0.26135
    outer loop
      vertex 1.16304 0.513111 1.19631
      vertex 0.967875 0.702526 1.13917
      vertex 1.16314 0.513413 1.19733
    endloop
  endfacet
  facet normal 0.710559 0.653303 -0.261343
    outer loop
      vertex 0.967875 0.702526 1.13917
      vertex 1.16324 0.513789 1.19854
      vertex 1.16314 0.513413 1.19733
    endloop
  endfacet
endsolid Mesh
