solid Mesh
  facet normal -1 0 0
    outer loop
      vertex 1.91175 -1.56013 0.635805
      vertex 1.91175 -1.53316 0.635805
      vertex 1.91175 -1.56744 0.582576
    endloop
  endfacet
  facet normal -1 0 0
    outer loop
      vertex 1.91175 -1.53316 0.635805
      vertex 1.91175 -1.53316 0.532063
      vertex 1.91175 -1.56744 0.582576
    endloop
  endfacet
  facet normal -1 0 0
    outer loop
      vertex 1.91175 -1.56744 0.582576
      vertex 1.91175 -1.53316 0.532063
      vertex 1.91175 -1.57809 0.530567
    endloop
  endfacet
  facet normal 0.706713 0.0235555 -0.707108
    outer loop
      vertex 1.94155 -1.56296 0.560854
      vertex 1.94155 -1.57151 0.560569
      vertex 1.91175 -1.53316 0.532063
    endloop
  endfacet
  facet normal 0.706714 0.0235567 -0.707107
    outer loop
      vertex 1.94155 -1.57151 0.560569
      vertex 1.91175 -1.57809 0.530567
      vertex 1.91175 -1.53316 0.532063
    endloop
  endfacet
  facet normal 0.707107 0.707107 0
    outer loop
      vertex 1.94155 -1.56296 0.560854
      vertex 1.91175 -1.53316 0.532063
      vertex 1.94155 -1.56296 0.611943
    endloop
  endfacet
  facet normal 0.707107 0.707107 0
    outer loop
      vertex 1.91175 -1.53316 0.532063
      vertex 1.91175 -1.53316 0.635805
      vertex 1.94155 -1.56296 0.611943
    endloop
  endfacet
  facet normal 0.707107 0.707107 0
    outer loop
      vertex 1.94155 -1.56296 0.611943
      vertex 1.91175 -1.53316 0.635805
      vertex 1.93871 -1.56013 0.635805
    endloop
  endfacet
  facet normal 1 0 0
    outer loop
      vertex 1.94155 -1.57151 0.560569
      vertex 1.94155 -1.56296 0.560854
      vertex 1.94155 -1.56744 0.582576
    endloop
  endfacet
  facet normal 1 0 0
    outer loop
      vertex 1.94155 -1.56296 0.560854
      vertex 1.94155 -1.56296 0.611943
      vertex 1.94155 -1.56744 0.582576
    endloop
  endfacet
  facet normal 0 0 1
    outer loop
      vertex 1.91175 -1.56013 0.635805
      vertex 1.93871 -1.56013 0.635805
      vertex 1.91175 -1.53316 0.635805
    endloop
  endfacet
  facet normal 0 -0.993017 0.117973
    outer loop
      vertex 1.93871 -1.56013 0.635805
      vertex 1.91175 -1.56013 0.635805
      vertex 1.94155 -1.56296 0.611943
    endloop
  endfacet
  facet normal 0.014691 -0.990596 0.136031
    outer loop
      vertex 1.91175 -1.56013 0.635805
      vertex 1.91175 -1.56744 0.582576
      vertex 1.94155 -1.56296 0.611943
    endloop
  endfacet
  facet normal 0.0141469 -0.97957 0.200604
    outer loop
      vertex 1.91175 -1.57809 0.530567
      vertex 1.94155 -1.57151 0.560569
      vertex 1.91175 -1.56744 0.582576
    endloop
  endfacet
  facet normal 0 -0.983274 0.182134
    outer loop
      vertex 1.94155 -1.57151 0.560569
      vertex 1.94155 -1.56744 0.582576
      vertex 1.91175 -1.56744 0.582576
    endloop
  endfacet
  facet normal 0 -0.98859 0.150633
    outer loop
      vertex 1.91175 -1.56744 0.582576
      vertex 1.94155 -1.56744 0.582576
      vertex 1.94155 -1.56296 0.611943
    endloop
  endfacet
endsolid Mesh
