solid Mesh
  facet normal 0 1 0
    outer loop
      vertex 2.67734 5.52092 7.27072
      vertex 2.80693 5.52092 7.27072
      vertex 2.67734 5.52092 0
    endloop
  endfacet
  facet normal 0 1 0
    outer loop
      vertex 2.80693 5.52092 7.27072
      vertex 2.80693 5.52092 0
      vertex 2.67734 5.52092 0
    endloop
  endfacet
  facet normal 0 -1 0
    outer loop
      vertex 2.80693 -5.52092 7.27072
      vertex 2.67734 -5.52092 7.27072
      vertex 2.80693 -5.52092 0
    endloop
  endfacet
  facet normal 0 -1 0
    outer loop
      vertex 2.67734 -5.52092 7.27072
      vertex 2.67734 -5.52092 0
      vertex 2.80693 -5.52092 0
    endloop
  endfacet
  facet normal -1 0 0
    outer loop
      vertex 2.67734 -5.52092 0
      vertex 2.67734 -5.52092 7.27072
      vertex 2.67734 5.52092 0
    endloop
  endfacet
  facet normal -1 0 0
    outer loop
      vertex 2.67734 -5.52092 7.27072
      vertex 2.67734 5.52092 7.27072
      vertex 2.67734 5.52092 0
    endloop
  endfacet
  facet normal 0 0 1
    outer loop
      vertex 2.67734 -5.52092 7.27072
      vertex 2.80693 -5.52092 7.27072
      vertex 2.67734 5.52092 7.27072
    endloop
  endfacet
  facet normal 0 0 1
    outer loop
      vertex 2.80693 -5.52092 7.27072
      vertex 2.80693 5.52092 7.27072
      vertex 2.67734 5.52092 7.27072
    endloop
  endfacet
  facet normal 0 0 -1
    outer loop
      vertex 2.80693 -5.52092 0
      vertex 2.67734 -5.52092 0
      vertex 2.80693 5.52092 0
    endloop
  endfacet
  facet normal 0 0 -1
    outer loop
      vertex 2.67734 -5.52092 0
      vertex 2.67734 5.52092 0
      vertex 2.80693 5.52092 0
    endloop
  endfacet
  facet normal 1 0 0
    outer loop
      vertex 2.80693 -5.52092 7.27072
      vertex 2.80693 -5.52092 0
      vertex 2.80693 5.52092 7.27072
    endloop
  endfacet
  facet normal 1 0 0
    outer loop
      vertex 2.80693 -5.52092 0
      vertex 2.80693 5.52092 0
      vertex 2.80693 5.52092 7.27072
    endloop
  endfacet
endsolid Mesh
