solid Mesh
  facet normal 0 0.5547 0.83205
    outer loop
      vertex 1.1811 1.74654 1.02951
      vertex 1.1811 2.04181 0.832656
      vertex 1.10306 1.74654 1.02951
    endloop
  endfacet
  facet normal 0 0.5547 0.83205
    outer loop
      vertex 1.1811 2.04181 0.832656
      vertex 1.10306 2.04181 0.832656
      vertex 1.10306 1.74654 1.02951
    endloop
  endfacet
  facet normal 0 0 1
    outer loop
      vertex 1.1811 1.11141 1.02951
      vertex 1.1811 1.74654 1.02951
      vertex 1.10306 1.11141 1.02951
    endloop
  endfacet
  facet normal 0 0 1
    outer loop
      vertex 1.1811 1.74654 1.02951
      vertex 1.10306 1.74654 1.02951
      vertex 1.10306 1.11141 1.02951
    endloop
  endfacet
  facet normal 1 0 0
    outer loop
      vertex 1.1811 1.74654 1.02951
      vertex 1.1811 1.11141 1.02951
      vertex 1.1811 2.04181 0.832656
    endloop
  endfacet
  facet normal 1 0 0
    outer loop
      vertex 1.1811 1.11141 1.02951
      vertex 1.1811 1.11141 0.832656
      vertex 1.1811 2.04181 0.832656
    endloop
  endfacet
  facet normal 0 -1 0
    outer loop
      vertex 1.1811 1.11141 0.832656
      vertex 1.1811 1.11141 1.02951
      vertex 1.10306 1.11141 0.832656
    endloop
  endfacet
  facet normal 0 -1 0
    outer loop
      vertex 1.1811 1.11141 1.02951
      vertex 1.10306 1.11141 1.02951
      vertex 1.10306 1.11141 0.832656
    endloop
  endfacet
  facet normal -1 0 0
    outer loop
      vertex 1.10306 1.11141 0.832656
      vertex 1.10306 1.11141 1.02951
      vertex 1.10306 2.04181 0.832656
    endloop
  endfacet
  facet normal -1 0 0
    outer loop
      vertex 1.10306 1.11141 1.02951
      vertex 1.10306 1.74654 1.02951
      vertex 1.10306 2.04181 0.832656
    endloop
  endfacet
  facet normal 0 0 -1
    outer loop
      vertex 1.10306 2.04181 0.832656
      vertex 1.1811 2.04181 0.832656
      vertex 1.10306 1.11141 0.832656
    endloop
  endfacet
  facet normal 0 0 -1
    outer loop
      vertex 1.1811 2.04181 0.832656
      vertex 1.1811 1.11141 0.832656
      vertex 1.10306 1.11141 0.832656
    endloop
  endfacet
endsolid Mesh
