solid Mesh
  facet normal 0 0.83205 -0.5547
    outer loop
      vertex 0.948619 2.24523 1.77754
      vertex 0.908594 2.24523 1.77754
      vertex 0.955261 2.2925 1.84845
    endloop
  endfacet
  facet normal 0 0.83205 -0.5547
    outer loop
      vertex 0.908594 2.24523 1.77754
      vertex 0.915237 2.2925 1.84845
      vertex 0.955261 2.2925 1.84845
    endloop
  endfacet
  facet normal 1.35734e-6 0.109943 0.993938
    outer loop
      vertex 0.931987 2.12684 2.26626
      vertex 0.938827 2.17553 2.26088
      vertex 0.911331 2.17647 2.26077
    endloop
  endfacet
  facet normal -0.03439 -0.99335 0.109877
    outer loop
      vertex 0.911331 2.17647 2.26077
      vertex 0.938827 2.17553 2.26088
      vertex 0.902063 2.19873 2.45917
    endloop
  endfacet
  facet normal -0.0343866 -0.99335 0.109878
    outer loop
      vertex 0.938827 2.17553 2.26088
      vertex 0.943529 2.209 2.56494
      vertex 0.902063 2.19873 2.45917
    endloop
  endfacet
  facet normal -0.0343861 -0.99335 0.109878
    outer loop
      vertex 0.902063 2.19873 2.45917
      vertex 0.943529 2.209 2.56494
      vertex 0.903699 2.21038 2.56494
    endloop
  endfacet
  facet normal -0.034387 -0.99335 0.109878
    outer loop
      vertex 1.18467 2.16712 2.26181
      vertex 1.25955 2.16456 2.26209
      vertex 1.18003 2.20081 2.56494
    endloop
  endfacet
  facet normal -0.034387 -0.99335 0.109878
    outer loop
      vertex 1.25955 2.16456 2.26209
      vertex 1.25955 2.19806 2.56494
      vertex 1.18003 2.20081 2.56494
    endloop
  endfacet
  facet normal -2.73865e-7 0.109943 0.993938
    outer loop
      vertex 1.22519 2.07136 2.2724
      vertex 1.25488 1.9493 2.2859
      vertex 1.25955 2.16456 2.26209
    endloop
  endfacet
  facet normal 3.78237e-7 0.109943 0.993938
    outer loop
      vertex 1.25955 2.16456 2.26209
      vertex 1.18467 2.16712 2.26181
      vertex 1.19501 2.09213 2.2701
    endloop
  endfacet
  facet normal 0 0.109948 0.993937
    outer loop
      vertex 1.19501 2.09213 2.2701
      vertex 1.14376 2.09213 2.2701
      vertex 1.1464 2.08174 2.27125
    endloop
  endfacet
  facet normal 2.15759e-7 0.109943 0.993938
    outer loop
      vertex 1.25955 2.16456 2.26209
      vertex 1.19501 2.09213 2.2701
      vertex 1.22519 2.07136 2.2724
    endloop
  endfacet
  facet normal 9.06386e-7 0.109944 0.993938
    outer loop
      vertex 1.19501 2.09213 2.2701
      vertex 1.1464 2.08174 2.27125
      vertex 1.22519 2.07136 2.2724
    endloop
  endfacet
  facet normal 0 0.109937 0.993939
    outer loop
      vertex 1.22519 2.07136 2.2724
      vertex 1.1464 2.08174 2.27125
      vertex 1.14901 2.07136 2.2724
    endloop
  endfacet
  facet normal -0.967492 0.2529 0
    outer loop
      vertex 0.909182 -0.466205 1.77754
      vertex 0.909182 -0.466205 2.56494
      vertex 0.915613 -0.441602 2.56494
    endloop
  endfacet
  facet normal -0.967492 0.2529 0
    outer loop
      vertex 0.909182 -0.466205 1.77754
      vertex 0.915613 -0.441602 2.56494
      vertex 0.915613 -0.441602 1.77754
    endloop
  endfacet
  facet normal -0.968591 0.248661 0
    outer loop
      vertex 0.915613 -0.441602 2.56494
      vertex 0.921923 -0.417023 2.56494
      vertex 0.915613 -0.441602 1.77754
    endloop
  endfacet
  facet normal -0.968591 0.248661 0
    outer loop
      vertex 0.915613 -0.441602 1.77754
      vertex 0.921923 -0.417023 2.56494
      vertex 0.921923 -0.417023 1.77754
    endloop
  endfacet
  facet normal -0.000135843 1 0
    outer loop
      vertex 0.921923 -0.417023 1.77754
      vertex 0.921923 -0.417023 2.56494
      vertex 0.998039 -0.417013 1.77754
    endloop
  endfacet
  facet normal -7.6113e-5 1 5.77397e-6
    outer loop
      vertex 0.921923 -0.417023 2.56494
      vertex 0.998037 -0.417017 2.56494
      vertex 0.998039 -0.417013 1.77754
    endloop
  endfacet
  facet normal -0.968644 0.248451 -1.45218e-6
    outer loop
      vertex 0.998039 -0.417013 1.77754
      vertex 0.998037 -0.417017 2.56494
      vertex 1.00258 -0.399296 2.56494
    endloop
  endfacet
  facet normal -0.96866 0.248391 0
    outer loop
      vertex 0.998039 -0.417013 1.77754
      vertex 1.00258 -0.399296 2.56494
      vertex 1.00258 -0.399296 1.77754
    endloop
  endfacet
  facet normal -0.969388 0.245533 0
    outer loop
      vertex 1.00258 -0.399296 2.56494
      vertex 1.00707 -0.381566 2.56494
      vertex 1.00258 -0.399296 1.77754
    endloop
  endfacet
  facet normal -0.969388 0.245533 0
    outer loop
      vertex 1.00258 -0.399296 1.77754
      vertex 1.00707 -0.381566 2.56494
      vertex 1.00707 -0.381566 1.77754
    endloop
  endfacet
  facet normal 0.98991 0.1417 0
    outer loop
      vertex 1.25774 2.06351 1.77754
      vertex 1.25774 2.06351 2.56494
      vertex 1.27661 1.93164 2.56494
    endloop
  endfacet
  facet normal 0.98991 0.1417 0
    outer loop
      vertex 1.25774 2.06351 1.77754
      vertex 1.27661 1.93164 2.56494
      vertex 1.27661 1.93164 1.77754
    endloop
  endfacet
  facet normal 0.985196 0.171432 0
    outer loop
      vertex 1.27661 1.93164 2.56494
      vertex 1.29921 1.80181 2.56494
      vertex 1.27661 1.93164 1.77754
    endloop
  endfacet
  facet normal 0.985196 0.171432 0
    outer loop
      vertex 1.27661 1.93164 1.77754
      vertex 1.29921 1.80181 2.56494
      vertex 1.29921 1.80181 1.77754
    endloop
  endfacet
  facet normal -1 0 0
    outer loop
      vertex 0 -2.01536 1.77754
      vertex 0 -2.01536 2.56494
      vertex 0 -1.71728 1.77754
    endloop
  endfacet
  facet normal -1 0 0
    outer loop
      vertex 0 -2.01536 2.56494
      vertex 0 -1.71728 2.56494
      vertex 0 -1.71728 1.77754
    endloop
  endfacet
  facet normal -0.95825 0.28593 0
    outer loop
      vertex 0.642006 -1.71728 1.77754
      vertex 0.642006 -1.71728 2.56494
      vertex 0.959577 -0.652987 1.77754
    endloop
  endfacet
  facet normal -0.95825 0.28593 0
    outer loop
      vertex 0.642006 -1.71728 2.56494
      vertex 0.959577 -0.652987 2.56494
      vertex 0.959577 -0.652987 1.77754
    endloop
  endfacet
  facet normal -0.961579 0.274527 0
    outer loop
      vertex 0.939166 -0.652987 1.77754
      vertex 0.939166 -0.652987 2.56494
      vertex 0.964342 -0.564803 2.56494
    endloop
  endfacet
  facet normal -0.961579 0.274527 0
    outer loop
      vertex 0.939166 -0.652987 1.77754
      vertex 0.964342 -0.564803 2.56494
      vertex 0.964342 -0.564803 1.77754
    endloop
  endfacet
  facet normal -0.965561 0.260177 0
    outer loop
      vertex 0.964342 -0.564803 2.56494
      vertex 0.987986 -0.477059 2.56494
      vertex 0.964342 -0.564803 1.77754
    endloop
  endfacet
  facet normal -0.965561 0.260177 0
    outer loop
      vertex 0.964342 -0.564803 1.77754
      vertex 0.987986 -0.477059 2.56494
      vertex 0.987986 -0.477059 1.77754
    endloop
  endfacet
  facet normal -0.971674 -0.236324 0
    outer loop
      vertex 1.22519 2.07136 2.2724
      vertex 1.22519 2.07136 1.77754
      vertex 1.25488 1.9493 2.2859
    endloop
  endfacet
  facet normal -0.976402 -0.215899 0.00518008
    outer loop
      vertex 1.22519 2.07136 1.77754
      vertex 1.30166 1.72553 1.77754
      vertex 1.25488 1.9493 2.2859
    endloop
  endfacet
  facet normal -0.97887 -0.204483 -7.1989e-5
    outer loop
      vertex 1.25488 1.9493 2.2859
      vertex 1.30166 1.72553 1.77754
      vertex 1.25467 1.95019 2.56494
    endloop
  endfacet
  facet normal -0.97882 -0.204725 0
    outer loop
      vertex 1.25467 1.95019 2.56494
      vertex 1.30166 1.72553 1.77754
      vertex 1.30166 1.72553 2.56494
    endloop
  endfacet
  facet normal -0.989619 -0.143716 0
    outer loop
      vertex 1.30166 1.72553 1.77754
      vertex 1.36023 1.3222 1.77754
      vertex 1.30166 1.72553 2.56494
    endloop
  endfacet
  facet normal -0.989619 -0.143716 0
    outer loop
      vertex 1.30166 1.72553 2.56494
      vertex 1.36023 1.3222 1.77754
      vertex 1.36023 1.3222 2.56494
    endloop
  endfacet
  facet normal -0.998081 -0.0619287 0
    outer loop
      vertex 1.36023 1.3222 1.77754
      vertex 1.38443 0.93228 1.77754
      vertex 1.36023 1.3222 2.56494
    endloop
  endfacet
  facet normal -0.998081 -0.0619287 0
    outer loop
      vertex 1.36023 1.3222 2.56494
      vertex 1.38443 0.93228 1.77754
      vertex 1.38443 0.93228 2.56494
    endloop
  endfacet
  facet normal -0.999752 0.0222499 0
    outer loop
      vertex 1.38443 0.93228 1.77754
      vertex 1.37549 0.530832 1.77754
      vertex 1.38443 0.93228 2.56494
    endloop
  endfacet
  facet normal -0.999752 0.0222499 0
    outer loop
      vertex 1.38443 0.93228 2.56494
      vertex 1.37549 0.530832 1.77754
      vertex 1.37549 0.530832 2.56494
    endloop
  endfacet
  facet normal -0.994756 0.102274 0
    outer loop
      vertex 1.37549 0.530832 1.77754
      vertex 1.33858 0.171852 1.77754
      vertex 1.37549 0.530832 2.56494
    endloop
  endfacet
  facet normal -0.994756 0.102274 0
    outer loop
      vertex 1.37549 0.530832 2.56494
      vertex 1.33858 0.171852 1.77754
      vertex 1.33858 0.171852 2.56494
    endloop
  endfacet
  facet normal -0.983452 0.181171 0
    outer loop
      vertex 1.33858 0.171852 1.77754
      vertex 1.25946 -0.25768 1.77754
      vertex 1.33858 0.171852 2.56494
    endloop
  endfacet
  facet normal -0.983452 0.181171 0
    outer loop
      vertex 1.33858 0.171852 2.56494
      vertex 1.25946 -0.25768 1.77754
      vertex 1.25946 -0.25768 2.56494
    endloop
  endfacet
  facet normal 0.950659 -0.310237 0
    outer loop
      vertex 1.60212 -0.911734 1.77754
      vertex 1.60212 -0.911734 2.56494
      vertex 1.24196 -2.01536 1.77754
    endloop
  endfacet
  facet normal 0.950659 -0.310237 0
    outer loop
      vertex 1.60212 -0.911734 2.56494
      vertex 1.24196 -2.01536 2.56494
      vertex 1.24196 -2.01536 1.77754
    endloop
  endfacet
  facet normal -0.13699 -0.990572 0
    outer loop
      vertex 0.987986 -0.477059 1.77754
      vertex 0.987986 -0.477059 2.56494
      vertex 0.948661 -0.47162 2.56494
    endloop
  endfacet
  facet normal -0.13699 -0.990572 0
    outer loop
      vertex 0.987986 -0.477059 1.77754
      vertex 0.948661 -0.47162 2.56494
      vertex 0.948661 -0.47162 1.77754
    endloop
  endfacet
  facet normal -0.1359 -0.990723 0
    outer loop
      vertex 0.948661 -0.47162 2.56494
      vertex 0.909182 -0.466205 2.56494
      vertex 0.948661 -0.47162 1.77754
    endloop
  endfacet
  facet normal -0.1359 -0.990723 0
    outer loop
      vertex 0.948661 -0.47162 1.77754
      vertex 0.909182 -0.466205 2.56494
      vertex 0.909182 -0.466205 1.77754
    endloop
  endfacet
  facet normal 0 1 0
    outer loop
      vertex 1.29921 1.80181 1.77754
      vertex 1.29921 1.80181 2.56494
      vertex 1.60212 1.80181 1.77754
    endloop
  endfacet
  facet normal 0 1 0
    outer loop
      vertex 1.29921 1.80181 2.56494
      vertex 1.60212 1.80181 2.56494
      vertex 1.60212 1.80181 1.77754
    endloop
  endfacet
  facet normal 0 0 -1
    outer loop
      vertex 0.931987 2.12684 1.77754
      vertex 0.902063 2.19873 1.77754
      vertex 0.948619 2.24523 1.77754
    endloop
  endfacet
  facet normal 0 0 -1
    outer loop
      vertex 0.902063 2.19873 1.77754
      vertex 0.908594 2.24523 1.77754
      vertex 0.948619 2.24523 1.77754
    endloop
  endfacet
  facet normal -0.990275 0.139126 -1.73345e-7
    outer loop
      vertex 0.902063 2.19873 2.45917
      vertex 0.903699 2.21038 2.56494
      vertex 0.937675 2.45222 2.56494
    endloop
  endfacet
  facet normal -0.990275 0.139126 2.08892e-7
    outer loop
      vertex 0.908594 2.24523 1.77754
      vertex 0.902063 2.19873 1.77754
      vertex 0.915237 2.2925 1.84845
    endloop
  endfacet
  facet normal -0.990275 0.139126 0
    outer loop
      vertex 0.902063 2.19873 1.77754
      vertex 0.902063 2.19873 2.45917
      vertex 0.915237 2.2925 1.84845
    endloop
  endfacet
  facet normal -0.990275 0.139126 -2.81942e-8
    outer loop
      vertex 0.915237 2.2925 1.84845
      vertex 0.902063 2.19873 2.45917
      vertex 0.930181 2.39888 1.77754
    endloop
  endfacet
  facet normal -0.990275 0.139126 -1.14218e-8
    outer loop
      vertex 0.902063 2.19873 2.45917
      vertex 0.937675 2.45222 2.56494
      vertex 0.930181 2.39888 1.77754
    endloop
  endfacet
  facet normal -0.990275 0.139126 0
    outer loop
      vertex 0.930181 2.39888 1.77754
      vertex 0.937675 2.45222 2.56494
      vertex 0.937675 2.45222 1.77754
    endloop
  endfacet
  facet normal -0.707107 -0.707106 0
    outer loop
      vertex 1.26262 3.59631 1.77754
      vertex 1.26262 3.59631 2.56494
      vertex 1.20038 3.65855 1.77754
    endloop
  endfacet
  facet normal -0.707107 -0.707106 0
    outer loop
      vertex 1.26262 3.59631 2.56494
      vertex 1.20038 3.65855 2.56494
      vertex 1.20038 3.65855 1.77754
    endloop
  endfacet
  facet normal 0 -0.554701 -0.83205
    outer loop
      vertex 0.955261 2.2925 1.84845
      vertex 0.915237 2.2925 1.84845
      vertex 0.970206 2.39888 1.77754
    endloop
  endfacet
  facet normal 0 -0.554701 -0.83205
    outer loop
      vertex 0.915237 2.2925 1.84845
      vertex 0.930181 2.39888 1.77754
      vertex 0.970206 2.39888 1.77754
    endloop
  endfacet
  facet normal 0 -1 0
    outer loop
      vertex 0 -2.01536 1.77754
      vertex 1.24196 -2.01536 1.77754
      vertex 0 -2.01536 2.56494
    endloop
  endfacet
  facet normal 0 -1 0
    outer loop
      vertex 1.24196 -2.01536 1.77754
      vertex 1.24196 -2.01536 2.56494
      vertex 0 -2.01536 2.56494
    endloop
  endfacet
  facet normal 0 -1 0
    outer loop
      vertex 0.959577 -0.652987 1.77754
      vertex 0.959577 -0.652987 2.56494
      vertex 0.939166 -0.652987 1.77754
    endloop
  endfacet
  facet normal 0 -1 0
    outer loop
      vertex 0.959577 -0.652987 2.56494
      vertex 0.939166 -0.652987 2.56494
      vertex 0.939166 -0.652987 1.77754
    endloop
  endfacet
  facet normal 0 0 -1
    outer loop
      vertex 1.00258 -0.399296 1.77754
      vertex 1.00707 -0.381566 1.77754
      vertex 1.21351 -0.381566 1.77754
    endloop
  endfacet
  facet normal 0 0 -1
    outer loop
      vertex 1.36023 1.3222 1.77754
      vertex 1.29921 1.80181 1.77754
      vertex 1.60212 1.80181 1.77754
    endloop
  endfacet
  facet normal 0 0 -1
    outer loop
      vertex 1.39366 3.66162 1.77754
      vertex 1.58698 3.66074 1.77754
      vertex 1.65481 3.62363 1.77754
    endloop
  endfacet
  facet normal 0 0 -1
    outer loop
      vertex 0.970206 2.39888 1.77754
      vertex 0.930181 2.39888 1.77754
      vertex 0.950203 2.42212 1.77754
    endloop
  endfacet
  facet normal 0 0 -1
    outer loop
      vertex 0.930181 2.39888 1.77754
      vertex 0.937675 2.45222 1.77754
      vertex 0.950203 2.42212 1.77754
    endloop
  endfacet
  facet normal 0 0 -1
    outer loop
      vertex 0.970206 2.39888 1.77754
      vertex 0.950203 2.42212 1.77754
      vertex 1.06232 3.05453 1.77754
    endloop
  endfacet
  facet normal 0 0 -1
    outer loop
      vertex 0.950203 2.42212 1.77754
      vertex 1.07394 3.30283 1.77754
      vertex 1.06232 3.05453 1.77754
    endloop
  endfacet
  facet normal 0 0 -1
    outer loop
      vertex 1.06232 3.05453 1.77754
      vertex 1.07394 3.30283 1.77754
      vertex 1.65481 3.62363 1.77754
    endloop
  endfacet
  facet normal 0 0 -1
    outer loop
      vertex 1.23648 -0.256893 1.77754
      vertex 1.25946 -0.25768 1.77754
      vertex 1.60212 -0.911734 1.77754
    endloop
  endfacet
  facet normal 0 0 -1
    outer loop
      vertex 0.915613 -0.441602 1.77754
      vertex 0.921923 -0.417023 1.77754
      vertex 0.998039 -0.417013 1.77754
    endloop
  endfacet
  facet normal 0 0 -1
    outer loop
      vertex 1.20038 3.65855 1.77754
      vertex 1.23722 3.65962 1.77754
      vertex 1.26262 3.59631 1.77754
    endloop
  endfacet
  facet normal 0 0 -1
    outer loop
      vertex 1.23722 3.65962 1.77754
      vertex 1.30057 3.66085 1.77754
      vertex 1.26262 3.59631 1.77754
    endloop
  endfacet
  facet normal 0 0 -1
    outer loop
      vertex 1.05008 3.55481 1.77754
      vertex 1.08454 3.58981 1.77754
      vertex 1.26587 3.58981 1.77754
    endloop
  endfacet
  facet normal 0 0 -1
    outer loop
      vertex 1.24196 -2.01536 1.77754
      vertex 0 -2.01536 1.77754
      vertex 0 -1.71728 1.77754
    endloop
  endfacet
  facet normal 0 0 -1
    outer loop
      vertex 1.1464 2.08174 1.77754
      vertex 1.14376 2.09213 1.77754
      vertex 1.19501 2.09213 1.77754
    endloop
  endfacet
  facet normal 0 0 -1
    outer loop
      vertex 0.959577 -0.652987 1.77754
      vertex 0.939166 -0.652987 1.77754
      vertex 1.21351 -0.381566 1.77754
    endloop
  endfacet
  facet normal 0 0 -1
    outer loop
      vertex 0.939166 -0.652987 1.77754
      vertex 0.964342 -0.564803 1.77754
      vertex 1.21351 -0.381566 1.77754
    endloop
  endfacet
  facet normal 0 0 -1
    outer loop
      vertex 1.21351 -0.381566 1.77754
      vertex 0.964342 -0.564803 1.77754
      vertex 0.987986 -0.477059 1.77754
    endloop
  endfacet
  facet normal 0 0 -1
    outer loop
      vertex 1.00258 -0.399296 1.77754
      vertex 1.21351 -0.381566 1.77754
      vertex 0.998039 -0.417013 1.77754
    endloop
  endfacet
  facet normal 0 0 -1
    outer loop
      vertex 1.21351 -0.381566 1.77754
      vertex 0.987986 -0.477059 1.77754
      vertex 0.998039 -0.417013 1.77754
    endloop
  endfacet
  facet normal 0 0 -1
    outer loop
      vertex 0.998039 -0.417013 1.77754
      vertex 0.987986 -0.477059 1.77754
      vertex 0.915613 -0.441602 1.77754
    endloop
  endfacet
  facet normal 0 0 -1
    outer loop
      vertex 0.987986 -0.477059 1.77754
      vertex 0.948661 -0.47162 1.77754
      vertex 0.915613 -0.441602 1.77754
    endloop
  endfacet
  facet normal 0 0 -1
    outer loop
      vertex 0.915613 -0.441602 1.77754
      vertex 0.948661 -0.47162 1.77754
      vertex 0.909182 -0.466205 1.77754
    endloop
  endfacet
  facet normal 0 0 -1
    outer loop
      vertex 1.19501 2.09213 1.77754
      vertex 1.06232 3.05453 1.77754
      vertex 1.25774 2.06351 1.77754
    endloop
  endfacet
  facet normal 0 0 -1
    outer loop
      vertex 1.06232 3.05453 1.77754
      vertex 1.65481 3.62363 1.77754
      vertex 1.25774 2.06351 1.77754
    endloop
  endfacet
  facet normal 0 0 -1
    outer loop
      vertex 1.25774 2.06351 1.77754
      vertex 1.65481 3.62363 1.77754
      vertex 1.61417 2.06351 1.77754
    endloop
  endfacet
  facet normal 0 0 -1
    outer loop
      vertex 1.65481 3.62363 1.77754
      vertex 1.65481 2.10553 1.77754
      vertex 1.61417 2.06351 1.77754
    endloop
  endfacet
  facet normal 0 0 -1
    outer loop
      vertex 1.30057 3.66085 1.77754
      vertex 1.39366 3.66162 1.77754
      vertex 1.26262 3.59631 1.77754
    endloop
  endfacet
  facet normal 0 0 -1
    outer loop
      vertex 1.39366 3.66162 1.77754
      vertex 1.65481 3.62363 1.77754
      vertex 1.26262 3.59631 1.77754
    endloop
  endfacet
  facet normal 0 0 -1
    outer loop
      vertex 1.26262 3.59631 1.77754
      vertex 1.65481 3.62363 1.77754
      vertex 1.26587 3.58981 1.77754
    endloop
  endfacet
  facet normal 0 0 -1
    outer loop
      vertex 1.65481 3.62363 1.77754
      vertex 1.07394 3.30283 1.77754
      vertex 1.26587 3.58981 1.77754
    endloop
  endfacet
  facet normal 0 0 -1
    outer loop
      vertex 1.26587 3.58981 1.77754
      vertex 1.07394 3.30283 1.77754
      vertex 1.05008 3.55481 1.77754
    endloop
  endfacet
  facet normal 0 0 -1
    outer loop
      vertex 1.07394 3.30283 1.77754
      vertex 1.04128 3.41095 1.77754
      vertex 1.05008 3.55481 1.77754
    endloop
  endfacet
  facet normal 0 0 -1
    outer loop
      vertex 1.05008 3.55481 1.77754
      vertex 1.04128 3.41095 1.77754
      vertex 1.00971 3.51996 1.77754
    endloop
  endfacet
  facet normal 0 0 -1
    outer loop
      vertex 1.21351 -0.25611 1.77754
      vertex 1.23648 -0.256893 1.77754
      vertex 1.21351 -0.381566 1.77754
    endloop
  endfacet
  facet normal 0 0 -1
    outer loop
      vertex 1.23648 -0.256893 1.77754
      vertex 1.60212 -0.911734 1.77754
      vertex 1.21351 -0.381566 1.77754
    endloop
  endfacet
  facet normal 0 0 -1
    outer loop
      vertex 1.21351 -0.381566 1.77754
      vertex 1.60212 -0.911734 1.77754
      vertex 0.959577 -0.652987 1.77754
    endloop
  endfacet
  facet normal 0 0 -1
    outer loop
      vertex 1.60212 -0.911734 1.77754
      vertex 1.24196 -2.01536 1.77754
      vertex 0.959577 -0.652987 1.77754
    endloop
  endfacet
  facet normal 0 0 -1
    outer loop
      vertex 0.959577 -0.652987 1.77754
      vertex 1.24196 -2.01536 1.77754
      vertex 0.642006 -1.71728 1.77754
    endloop
  endfacet
  facet normal 0 0 -1
    outer loop
      vertex 1.24196 -2.01536 1.77754
      vertex 0 -1.71728 1.77754
      vertex 0.642006 -1.71728 1.77754
    endloop
  endfacet
  facet normal 0 0 -1
    outer loop
      vertex 1.25946 -0.25768 1.77754
      vertex 1.33858 0.171852 1.77754
      vertex 1.60212 -0.911734 1.77754
    endloop
  endfacet
  facet normal 0 0 -1
    outer loop
      vertex 1.33858 0.171852 1.77754
      vertex 1.37549 0.530832 1.77754
      vertex 1.60212 -0.911734 1.77754
    endloop
  endfacet
  facet normal 0 0 -1
    outer loop
      vertex 1.60212 -0.911734 1.77754
      vertex 1.37549 0.530832 1.77754
      vertex 1.60212 1.80181 1.77754
    endloop
  endfacet
  facet normal 0 0 -1
    outer loop
      vertex 1.37549 0.530832 1.77754
      vertex 1.38443 0.93228 1.77754
      vertex 1.60212 1.80181 1.77754
    endloop
  endfacet
  facet normal 0 0 -1
    outer loop
      vertex 1.60212 1.80181 1.77754
      vertex 1.38443 0.93228 1.77754
      vertex 1.36023 1.3222 1.77754
    endloop
  endfacet
  facet normal 0 0 -1
    outer loop
      vertex 1.25774 2.06351 1.77754
      vertex 1.27661 1.93164 1.77754
      vertex 1.22519 2.07136 1.77754
    endloop
  endfacet
  facet normal 0 0 -1
    outer loop
      vertex 1.27661 1.93164 1.77754
      vertex 1.29921 1.80181 1.77754
      vertex 1.22519 2.07136 1.77754
    endloop
  endfacet
  facet normal 0 0 -1
    outer loop
      vertex 1.22519 2.07136 1.77754
      vertex 1.29921 1.80181 1.77754
      vertex 1.30166 1.72553 1.77754
    endloop
  endfacet
  facet normal 0 0 -1
    outer loop
      vertex 1.29921 1.80181 1.77754
      vertex 1.36023 1.3222 1.77754
      vertex 1.30166 1.72553 1.77754
    endloop
  endfacet
  facet normal 0 0 -1
    outer loop
      vertex 1.25774 2.06351 1.77754
      vertex 1.22519 2.07136 1.77754
      vertex 1.19501 2.09213 1.77754
    endloop
  endfacet
  facet normal 0 0 -1
    outer loop
      vertex 1.22519 2.07136 1.77754
      vertex 1.14901 2.07136 1.77754
      vertex 1.19501 2.09213 1.77754
    endloop
  endfacet
  facet normal 0 0 -1
    outer loop
      vertex 1.19501 2.09213 1.77754
      vertex 1.14901 2.07136 1.77754
      vertex 1.1464 2.08174 1.77754
    endloop
  endfacet
  facet normal 0 1 0
    outer loop
      vertex 0 -1.71728 2.56494
      vertex 0.642006 -1.71728 2.56494
      vertex 0 -1.71728 1.77754
    endloop
  endfacet
  facet normal 0 1 0
    outer loop
      vertex 0.642006 -1.71728 2.56494
      vertex 0.642006 -1.71728 1.77754
      vertex 0 -1.71728 1.77754
    endloop
  endfacet
  facet normal 0.480004 0.877266 0
    outer loop
      vertex 1.58698 3.66074 1.77754
      vertex 1.58698 3.66074 2.56494
      vertex 1.65481 3.62363 1.77754
    endloop
  endfacet
  facet normal 0.480004 0.877266 0
    outer loop
      vertex 1.58698 3.66074 2.56494
      vertex 1.65481 3.62363 2.56494
      vertex 1.65481 3.62363 1.77754
    endloop
  endfacet
  facet normal 0.990275 -0.139126 1.23612e-7
    outer loop
      vertex 0.970206 2.39888 1.77754
      vertex 1.06232 3.05453 1.77754
      vertex 0.938827 2.17553 2.26088
    endloop
  endfacet
  facet normal 0.990275 -0.139126 0
    outer loop
      vertex 1.06232 3.05453 1.77754
      vertex 1.06232 3.05453 2.56494
      vertex 0.938827 2.17553 2.26088
    endloop
  endfacet
  facet normal 0.990275 -0.139126 -1.70516e-7
    outer loop
      vertex 0.938827 2.17553 2.26088
      vertex 1.06232 3.05453 2.56494
      vertex 0.943529 2.209 2.56494
    endloop
  endfacet
  facet normal 0.990275 -0.139126 -3.87603e-8
    outer loop
      vertex 0.931987 2.12684 1.77754
      vertex 0.948619 2.24523 1.77754
      vertex 0.955261 2.2925 1.84845
    endloop
  endfacet
  facet normal 0.990275 -0.139126 1.29718e-7
    outer loop
      vertex 0.970206 2.39888 1.77754
      vertex 0.938827 2.17553 2.26088
      vertex 0.955261 2.2925 1.84845
    endloop
  endfacet
  facet normal 0.990275 -0.139126 9.18963e-8
    outer loop
      vertex 0.938827 2.17553 2.26088
      vertex 0.931987 2.12684 2.26626
      vertex 0.955261 2.2925 1.84845
    endloop
  endfacet
  facet normal 0.990275 -0.139126 0
    outer loop
      vertex 0.955261 2.2925 1.84845
      vertex 0.931987 2.12684 2.26626
      vertex 0.931987 2.12684 1.77754
    endloop
  endfacet
  facet normal -0.969202 -0.246265 0
    outer loop
      vertex 1.14376 2.09213 2.2701
      vertex 1.14376 2.09213 1.77754
      vertex 1.1464 2.08174 1.77754
    endloop
  endfacet
  facet normal -0.969202 -0.246265 0
    outer loop
      vertex 1.14376 2.09213 2.2701
      vertex 1.1464 2.08174 1.77754
      vertex 1.1464 2.08174 2.27125
    endloop
  endfacet
  facet normal -0.96966 -0.244456 0
    outer loop
      vertex 1.1464 2.08174 1.77754
      vertex 1.14901 2.07136 1.77754
      vertex 1.1464 2.08174 2.27125
    endloop
  endfacet
  facet normal -0.96966 -0.244456 0
    outer loop
      vertex 1.1464 2.08174 2.27125
      vertex 1.14901 2.07136 1.77754
      vertex 1.14901 2.07136 2.2724
    endloop
  endfacet
  facet normal 0.71879 -0.695228 0
    outer loop
      vertex 1.65481 2.10553 1.77754
      vertex 1.65481 2.10553 2.56494
      vertex 1.61417 2.06351 1.77754
    endloop
  endfacet
  facet normal 0.71879 -0.695228 0
    outer loop
      vertex 1.65481 2.10553 2.56494
      vertex 1.61417 2.06351 2.56494
      vertex 1.61417 2.06351 1.77754
    endloop
  endfacet
  facet normal 1 0 0
    outer loop
      vertex 1.65481 3.62363 1.77754
      vertex 1.65481 3.62363 2.56494
      vertex 1.65481 2.10553 1.77754
    endloop
  endfacet
  facet normal 1 0 0
    outer loop
      vertex 1.65481 3.62363 2.56494
      vertex 1.65481 2.10553 2.56494
      vertex 1.65481 2.10553 1.77754
    endloop
  endfacet
  facet normal -0.0290405 0.999578 0
    outer loop
      vertex 1.20038 3.65855 1.77754
      vertex 1.20038 3.65855 2.56494
      vertex 1.23722 3.65962 2.56494
    endloop
  endfacet
  facet normal -0.0290405 0.999578 0
    outer loop
      vertex 1.20038 3.65855 1.77754
      vertex 1.23722 3.65962 2.56494
      vertex 1.23722 3.65962 1.77754
    endloop
  endfacet
  facet normal -0.0194719 0.99981 0
    outer loop
      vertex 1.23722 3.65962 2.56494
      vertex 1.30057 3.66085 2.56494
      vertex 1.23722 3.65962 1.77754
    endloop
  endfacet
  facet normal -0.0194719 0.99981 0
    outer loop
      vertex 1.23722 3.65962 1.77754
      vertex 1.30057 3.66085 2.56494
      vertex 1.30057 3.66085 1.77754
    endloop
  endfacet
  facet normal -0.00827431 0.999966 0
    outer loop
      vertex 1.30057 3.66085 2.56494
      vertex 1.39366 3.66162 2.56494
      vertex 1.30057 3.66085 1.77754
    endloop
  endfacet
  facet normal -0.00827431 0.999966 0
    outer loop
      vertex 1.30057 3.66085 1.77754
      vertex 1.39366 3.66162 2.56494
      vertex 1.39366 3.66162 1.77754
    endloop
  endfacet
  facet normal 0.0045246 0.99999 0
    outer loop
      vertex 1.39366 3.66162 2.56494
      vertex 1.58698 3.66074 2.56494
      vertex 1.39366 3.66162 1.77754
    endloop
  endfacet
  facet normal 0.0045246 0.99999 0
    outer loop
      vertex 1.39366 3.66162 1.77754
      vertex 1.58698 3.66074 2.56494
      vertex 1.58698 3.66074 1.77754
    endloop
  endfacet
  facet normal -0.999804 0.0196666 -0.00217538
    outer loop
      vertex 1.25955 2.19806 2.56494
      vertex 1.25955 2.16456 2.26209
      vertex 1.25467 1.95019 2.56494
    endloop
  endfacet
  facet normal -0.999766 0.0215988 -0.000807053
    outer loop
      vertex 1.25955 2.16456 2.26209
      vertex 1.25488 1.9493 2.2859
      vertex 1.25467 1.95019 2.56494
    endloop
  endfacet
  facet normal -0.894419 -0.44723 0
    outer loop
      vertex 1.26587 3.58981 1.77754
      vertex 1.26587 3.58981 2.56494
      vertex 1.26262 3.59631 1.77754
    endloop
  endfacet
  facet normal -0.894419 -0.44723 0
    outer loop
      vertex 1.26587 3.58981 2.56494
      vertex 1.26262 3.59631 2.56494
      vertex 1.26262 3.59631 1.77754
    endloop
  endfacet
  facet normal 1 0 0
    outer loop
      vertex 1.60212 1.80181 1.77754
      vertex 1.60212 1.80181 2.56494
      vertex 1.60212 -0.911734 1.77754
    endloop
  endfacet
  facet normal 1 0 0
    outer loop
      vertex 1.60212 1.80181 2.56494
      vertex 1.60212 -0.911734 2.56494
      vertex 1.60212 -0.911734 1.77754
    endloop
  endfacet
  facet normal -0.990629 -0.136583 -1.55856e-7
    outer loop
      vertex 1.18003 2.20081 2.56494
      vertex 1.06232 3.05453 2.56494
      vertex 1.18467 2.16712 2.26181
    endloop
  endfacet
  facet normal -0.990629 -0.136583 0
    outer loop
      vertex 1.06232 3.05453 2.56494
      vertex 1.06232 3.05453 1.77754
      vertex 1.18467 2.16712 2.26181
    endloop
  endfacet
  facet normal -0.990629 -0.136583 2.68175e-7
    outer loop
      vertex 1.18467 2.16712 2.26181
      vertex 1.06232 3.05453 1.77754
      vertex 1.19501 2.09213 2.2701
    endloop
  endfacet
  facet normal -0.990629 -0.136583 0
    outer loop
      vertex 1.06232 3.05453 1.77754
      vertex 1.19501 2.09213 1.77754
      vertex 1.19501 2.09213 2.2701
    endloop
  endfacet
  facet normal 0 1 0
    outer loop
      vertex 1.08454 3.58981 1.77754
      vertex 1.08454 3.58981 2.56494
      vertex 1.26587 3.58981 1.77754
    endloop
  endfacet
  facet normal 0 1 0
    outer loop
      vertex 1.08454 3.58981 2.56494
      vertex 1.26587 3.58981 2.56494
      vertex 1.26587 3.58981 1.77754
    endloop
  endfacet
  facet normal 0 1 0
    outer loop
      vertex 1.19501 2.09213 1.77754
      vertex 1.14376 2.09213 1.77754
      vertex 1.19501 2.09213 2.2701
    endloop
  endfacet
  facet normal 0 1 0
    outer loop
      vertex 1.14376 2.09213 1.77754
      vertex 1.14376 2.09213 2.2701
      vertex 1.19501 2.09213 2.2701
    endloop
  endfacet
  facet normal -0.653564 0.756871 0
    outer loop
      vertex 1.00971 3.51996 1.77754
      vertex 1.00971 3.51996 2.56494
      vertex 1.05008 3.55481 2.56494
    endloop
  endfacet
  facet normal -0.653564 0.756871 0
    outer loop
      vertex 1.00971 3.51996 1.77754
      vertex 1.05008 3.55481 2.56494
      vertex 1.05008 3.55481 1.77754
    endloop
  endfacet
  facet normal -0.712595 0.701576 0
    outer loop
      vertex 1.05008 3.55481 2.56494
      vertex 1.08454 3.58981 2.56494
      vertex 1.05008 3.55481 1.77754
    endloop
  endfacet
  facet normal -0.712595 0.701576 0
    outer loop
      vertex 1.05008 3.55481 1.77754
      vertex 1.08454 3.58981 2.56494
      vertex 1.08454 3.58981 1.77754
    endloop
  endfacet
  facet normal 0 -1 0
    outer loop
      vertex 1.14901 2.07136 1.77754
      vertex 1.22519 2.07136 1.77754
      vertex 1.14901 2.07136 2.2724
    endloop
  endfacet
  facet normal 0 -1 0
    outer loop
      vertex 1.22519 2.07136 1.77754
      vertex 1.22519 2.07136 2.2724
      vertex 1.14901 2.07136 2.2724
    endloop
  endfacet
  facet normal -0.957284 -0.289151 0
    outer loop
      vertex 1.07394 3.30283 1.77754
      vertex 1.07394 3.30283 2.56494
      vertex 1.04128 3.41095 2.56494
    endloop
  endfacet
  facet normal -0.957284 -0.289151 0
    outer loop
      vertex 1.07394 3.30283 1.77754
      vertex 1.04128 3.41095 2.56494
      vertex 1.04128 3.41095 1.77754
    endloop
  endfacet
  facet normal -0.960539 -0.278144 0
    outer loop
      vertex 1.04128 3.41095 2.56494
      vertex 1.00971 3.51996 2.56494
      vertex 1.04128 3.41095 1.77754
    endloop
  endfacet
  facet normal -0.960539 -0.278144 0
    outer loop
      vertex 1.04128 3.41095 1.77754
      vertex 1.00971 3.51996 2.56494
      vertex 1.00971 3.51996 1.77754
    endloop
  endfacet
  facet normal 0 0 1
    outer loop
      vertex 1.06232 3.05453 2.56494
      vertex 1.07394 3.30283 2.56494
      vertex 0.950203 2.42212 2.56494
    endloop
  endfacet
  facet normal 0 0 1
    outer loop
      vertex 0.937675 2.45222 2.56494
      vertex 0.903699 2.21038 2.56494
      vertex 0.950203 2.42212 2.56494
    endloop
  endfacet
  facet normal 0 0 1
    outer loop
      vertex 0.903699 2.21038 2.56494
      vertex 0.943529 2.209 2.56494
      vertex 0.950203 2.42212 2.56494
    endloop
  endfacet
  facet normal 0 0 1
    outer loop
      vertex 0.950203 2.42212 2.56494
      vertex 0.943529 2.209 2.56494
      vertex 1.06232 3.05453 2.56494
    endloop
  endfacet
  facet normal 0 0 1
    outer loop
      vertex 1.23722 3.65962 2.56494
      vertex 1.20038 3.65855 2.56494
      vertex 1.26262 3.59631 2.56494
    endloop
  endfacet
  facet normal 0 0 1
    outer loop
      vertex 1.23722 3.65962 2.56494
      vertex 1.26262 3.59631 2.56494
      vertex 1.30057 3.66085 2.56494
    endloop
  endfacet
  facet normal 0 0 1
    outer loop
      vertex 1.65481 3.62363 2.56494
      vertex 1.58698 3.66074 2.56494
      vertex 1.39366 3.66162 2.56494
    endloop
  endfacet
  facet normal 0 0 1
    outer loop
      vertex 1.30057 3.66085 2.56494
      vertex 1.26262 3.59631 2.56494
      vertex 1.39366 3.66162 2.56494
    endloop
  endfacet
  facet normal 0 0 1
    outer loop
      vertex 1.26262 3.59631 2.56494
      vertex 1.26587 3.58981 2.56494
      vertex 1.39366 3.66162 2.56494
    endloop
  endfacet
  facet normal 0 0 1
    outer loop
      vertex 1.39366 3.66162 2.56494
      vertex 1.26587 3.58981 2.56494
      vertex 1.65481 3.62363 2.56494
    endloop
  endfacet
  facet normal 0 0 1
    outer loop
      vertex 1.21351 -0.381566 2.56494
      vertex 1.00707 -0.381566 2.56494
      vertex 1.00258 -0.399296 2.56494
    endloop
  endfacet
  facet normal 0 0 1
    outer loop
      vertex 0.939166 -0.652987 2.56494
      vertex 0.959577 -0.652987 2.56494
      vertex 0.964342 -0.564803 2.56494
    endloop
  endfacet
  facet normal 0 0 1
    outer loop
      vertex 0.959577 -0.652987 2.56494
      vertex 1.21351 -0.381566 2.56494
      vertex 0.964342 -0.564803 2.56494
    endloop
  endfacet
  facet normal 0 0 1
    outer loop
      vertex 1.65481 2.10553 2.56494
      vertex 1.65481 3.62363 2.56494
      vertex 1.25955 2.19806 2.56494
    endloop
  endfacet
  facet normal 0 0 1
    outer loop
      vertex 1.00258 -0.399296 2.56494
      vertex 0.998037 -0.417017 2.56494
      vertex 1.21351 -0.381566 2.56494
    endloop
  endfacet
  facet normal 0 0 1
    outer loop
      vertex 0.998037 -0.417017 2.56494
      vertex 0.987986 -0.477059 2.56494
      vertex 1.21351 -0.381566 2.56494
    endloop
  endfacet
  facet normal 0 0 1
    outer loop
      vertex 1.21351 -0.381566 2.56494
      vertex 0.987986 -0.477059 2.56494
      vertex 0.964342 -0.564803 2.56494
    endloop
  endfacet
  facet normal 0 0 1
    outer loop
      vertex 0.998037 -0.417017 2.56494
      vertex 0.921923 -0.417023 2.56494
      vertex 0.987986 -0.477059 2.56494
    endloop
  endfacet
  facet normal 0 0 1
    outer loop
      vertex 0.921923 -0.417023 2.56494
      vertex 0.915613 -0.441602 2.56494
      vertex 0.987986 -0.477059 2.56494
    endloop
  endfacet
  facet normal 0 0 1
    outer loop
      vertex 0.987986 -0.477059 2.56494
      vertex 0.915613 -0.441602 2.56494
      vertex 0.948661 -0.47162 2.56494
    endloop
  endfacet
  facet normal 0 0 1
    outer loop
      vertex 0.915613 -0.441602 2.56494
      vertex 0.909182 -0.466205 2.56494
      vertex 0.948661 -0.47162 2.56494
    endloop
  endfacet
  facet normal 0 0 1
    outer loop
      vertex 1.23648 -0.256893 2.56494
      vertex 1.21351 -0.25611 2.56494
      vertex 1.21351 -0.381566 2.56494
    endloop
  endfacet
  facet normal 0 0 1
    outer loop
      vertex 1.18003 2.20081 2.56494
      vertex 1.25955 2.19806 2.56494
      vertex 1.06232 3.05453 2.56494
    endloop
  endfacet
  facet normal 0 0 1
    outer loop
      vertex 1.25955 2.19806 2.56494
      vertex 1.65481 3.62363 2.56494
      vertex 1.06232 3.05453 2.56494
    endloop
  endfacet
  facet normal 0 0 1
    outer loop
      vertex 1.06232 3.05453 2.56494
      vertex 1.65481 3.62363 2.56494
      vertex 1.07394 3.30283 2.56494
    endloop
  endfacet
  facet normal 0 0 1
    outer loop
      vertex 1.65481 3.62363 2.56494
      vertex 1.26587 3.58981 2.56494
      vertex 1.07394 3.30283 2.56494
    endloop
  endfacet
  facet normal 0 0 1
    outer loop
      vertex 1.60212 1.80181 2.56494
      vertex 1.37549 0.530832 2.56494
      vertex 1.60212 -0.911734 2.56494
    endloop
  endfacet
  facet normal 0 0 1
    outer loop
      vertex 1.37549 0.530832 2.56494
      vertex 1.33858 0.171852 2.56494
      vertex 1.60212 -0.911734 2.56494
    endloop
  endfacet
  facet normal 0 0 1
    outer loop
      vertex 1.60212 -0.911734 2.56494
      vertex 1.33858 0.171852 2.56494
      vertex 1.25946 -0.25768 2.56494
    endloop
  endfacet
  facet normal 0 0 1
    outer loop
      vertex 1.29921 1.80181 2.56494
      vertex 1.27661 1.93164 2.56494
      vertex 1.25467 1.95019 2.56494
    endloop
  endfacet
  facet normal 0 0 1
    outer loop
      vertex 1.27661 1.93164 2.56494
      vertex 1.25774 2.06351 2.56494
      vertex 1.25467 1.95019 2.56494
    endloop
  endfacet
  facet normal 0 0 1
    outer loop
      vertex 1.25467 1.95019 2.56494
      vertex 1.25774 2.06351 2.56494
      vertex 1.25955 2.19806 2.56494
    endloop
  endfacet
  facet normal 0 0 1
    outer loop
      vertex 1.25774 2.06351 2.56494
      vertex 1.61417 2.06351 2.56494
      vertex 1.25955 2.19806 2.56494
    endloop
  endfacet
  facet normal 0 0 1
    outer loop
      vertex 1.25955 2.19806 2.56494
      vertex 1.61417 2.06351 2.56494
      vertex 1.65481 2.10553 2.56494
    endloop
  endfacet
  facet normal 0 0 1
    outer loop
      vertex 0 -1.71728 2.56494
      vertex 0 -2.01536 2.56494
      vertex 0.642006 -1.71728 2.56494
    endloop
  endfacet
  facet normal 0 0 1
    outer loop
      vertex 0 -2.01536 2.56494
      vertex 1.24196 -2.01536 2.56494
      vertex 0.642006 -1.71728 2.56494
    endloop
  endfacet
  facet normal 0 0 1
    outer loop
      vertex 0.642006 -1.71728 2.56494
      vertex 1.24196 -2.01536 2.56494
      vertex 0.959577 -0.652987 2.56494
    endloop
  endfacet
  facet normal 0 0 1
    outer loop
      vertex 1.24196 -2.01536 2.56494
      vertex 1.60212 -0.911734 2.56494
      vertex 0.959577 -0.652987 2.56494
    endloop
  endfacet
  facet normal 0 0 1
    outer loop
      vertex 0.959577 -0.652987 2.56494
      vertex 1.60212 -0.911734 2.56494
      vertex 1.21351 -0.381566 2.56494
    endloop
  endfacet
  facet normal 0 0 1
    outer loop
      vertex 1.60212 -0.911734 2.56494
      vertex 1.25946 -0.25768 2.56494
      vertex 1.21351 -0.381566 2.56494
    endloop
  endfacet
  facet normal 0 0 1
    outer loop
      vertex 1.21351 -0.381566 2.56494
      vertex 1.25946 -0.25768 2.56494
      vertex 1.23648 -0.256893 2.56494
    endloop
  endfacet
  facet normal 0 0 1
    outer loop
      vertex 1.26587 3.58981 2.56494
      vertex 1.08454 3.58981 2.56494
      vertex 1.07394 3.30283 2.56494
    endloop
  endfacet
  facet normal 0 0 1
    outer loop
      vertex 1.08454 3.58981 2.56494
      vertex 1.05008 3.55481 2.56494
      vertex 1.07394 3.30283 2.56494
    endloop
  endfacet
  facet normal 0 0 1
    outer loop
      vertex 1.07394 3.30283 2.56494
      vertex 1.05008 3.55481 2.56494
      vertex 1.04128 3.41095 2.56494
    endloop
  endfacet
  facet normal 0 0 1
    outer loop
      vertex 1.05008 3.55481 2.56494
      vertex 1.00971 3.51996 2.56494
      vertex 1.04128 3.41095 2.56494
    endloop
  endfacet
  facet normal 0 0 1
    outer loop
      vertex 1.25467 1.95019 2.56494
      vertex 1.30166 1.72553 2.56494
      vertex 1.29921 1.80181 2.56494
    endloop
  endfacet
  facet normal 0 0 1
    outer loop
      vertex 1.30166 1.72553 2.56494
      vertex 1.36023 1.3222 2.56494
      vertex 1.29921 1.80181 2.56494
    endloop
  endfacet
  facet normal 0 0 1
    outer loop
      vertex 1.29921 1.80181 2.56494
      vertex 1.36023 1.3222 2.56494
      vertex 1.60212 1.80181 2.56494
    endloop
  endfacet
  facet normal 0 0 1
    outer loop
      vertex 1.36023 1.3222 2.56494
      vertex 1.38443 0.93228 2.56494
      vertex 1.60212 1.80181 2.56494
    endloop
  endfacet
  facet normal 0 0 1
    outer loop
      vertex 1.60212 1.80181 2.56494
      vertex 1.38443 0.93228 2.56494
      vertex 1.37549 0.530832 2.56494
    endloop
  endfacet
  facet normal -0.990275 0.139126 0
    outer loop
      vertex 0.950203 2.42212 1.77754
      vertex 0.950203 2.42212 2.56494
      vertex 1.07394 3.30283 1.77754
    endloop
  endfacet
  facet normal -0.990275 0.139126 0
    outer loop
      vertex 0.950203 2.42212 2.56494
      vertex 1.07394 3.30283 2.56494
      vertex 1.07394 3.30283 1.77754
    endloop
  endfacet
  facet normal 0.923217 0.384279 0
    outer loop
      vertex 0.937675 2.45222 1.77754
      vertex 0.937675 2.45222 2.56494
      vertex 0.950203 2.42212 1.77754
    endloop
  endfacet
  facet normal 0.923217 0.384279 0
    outer loop
      vertex 0.937675 2.45222 2.56494
      vertex 0.950203 2.42212 2.56494
      vertex 0.950203 2.42212 1.77754
    endloop
  endfacet
  facet normal 0 -1 0
    outer loop
      vertex 1.61417 2.06351 1.77754
      vertex 1.61417 2.06351 2.56494
      vertex 1.25774 2.06351 1.77754
    endloop
  endfacet
  facet normal 0 -1 0
    outer loop
      vertex 1.61417 2.06351 2.56494
      vertex 1.25774 2.06351 2.56494
      vertex 1.25774 2.06351 1.77754
    endloop
  endfacet
  facet normal -0.923216 -0.384281 0
    outer loop
      vertex 0.931987 2.12684 1.77754
      vertex 0.931987 2.12684 2.26626
      vertex 0.902063 2.19873 1.77754
    endloop
  endfacet
  facet normal -0.923216 -0.384281 1.14437e-7
    outer loop
      vertex 0.931987 2.12684 2.26626
      vertex 0.911331 2.17647 2.26077
      vertex 0.902063 2.19873 1.77754
    endloop
  endfacet
  facet normal -0.923215 -0.384283 0
    outer loop
      vertex 0.902063 2.19873 1.77754
      vertex 0.911331 2.17647 2.26077
      vertex 0.902063 2.19873 2.45917
    endloop
  endfacet
  facet normal 0.0340534 0.99942 0
    outer loop
      vertex 1.21351 -0.25611 1.77754
      vertex 1.21351 -0.25611 2.56494
      vertex 1.23648 -0.256893 2.56494
    endloop
  endfacet
  facet normal 0.0340534 0.99942 0
    outer loop
      vertex 1.21351 -0.25611 1.77754
      vertex 1.23648 -0.256893 2.56494
      vertex 1.23648 -0.256893 1.77754
    endloop
  endfacet
  facet normal 0.0342201 0.999414 0
    outer loop
      vertex 1.23648 -0.256893 2.56494
      vertex 1.25946 -0.25768 2.56494
      vertex 1.23648 -0.256893 1.77754
    endloop
  endfacet
  facet normal 0.0342201 0.999414 0
    outer loop
      vertex 1.23648 -0.256893 1.77754
      vertex 1.25946 -0.25768 2.56494
      vertex 1.25946 -0.25768 1.77754
    endloop
  endfacet
  facet normal -1 0 0
    outer loop
      vertex 1.21351 -0.381566 1.77754
      vertex 1.21351 -0.381566 2.56494
      vertex 1.21351 -0.25611 1.77754
    endloop
  endfacet
  facet normal -1 0 0
    outer loop
      vertex 1.21351 -0.381566 2.56494
      vertex 1.21351 -0.25611 2.56494
      vertex 1.21351 -0.25611 1.77754
    endloop
  endfacet
  facet normal 0 1 0
    outer loop
      vertex 1.00707 -0.381566 1.77754
      vertex 1.00707 -0.381566 2.56494
      vertex 1.21351 -0.381566 1.77754
    endloop
  endfacet
  facet normal 0 1 0
    outer loop
      vertex 1.00707 -0.381566 2.56494
      vertex 1.21351 -0.381566 2.56494
      vertex 1.21351 -0.381566 1.77754
    endloop
  endfacet
endsolid Mesh
