solid Mesh
  facet normal 0 0.993938 -0.109943
    outer loop
      vertex 1.03067 0.708661 3.0029
      vertex 0.275877 0.708661 3.0029
      vertex 1.03047 0.730332 3.19882
    endloop
  endfacet
  facet normal 0 0.993938 -0.109943
    outer loop
      vertex 0.275877 0.708661 3.0029
      vertex 0.275877 0.730332 3.19882
      vertex 1.03047 0.730332 3.19882
    endloop
  endfacet
  facet normal -0.034387 -0.99335 0.109878
    outer loop
      vertex 0.275877 2.27039 2.91104
      vertex 0.998763 2.24553 2.91251
      vertex 0.275877 2.29207 3.10696
    endloop
  endfacet
  facet normal -0.0343868 -0.99335 0.109878
    outer loop
      vertex 0.998763 2.24553 2.91251
      vertex 0.998553 2.26721 3.10842
      vertex 0.275877 2.29207 3.10696
    endloop
  endfacet
  facet normal 1 0 0
    outer loop
      vertex 0.275877 1.62606 2.94894
      vertex 0.275877 1.64773 3.14486
      vertex 0.275877 0.708661 3.0029
    endloop
  endfacet
  facet normal 1 0 0
    outer loop
      vertex 0.275877 1.64773 3.14486
      vertex 0.275877 0.730332 3.19882
      vertex 0.275877 0.708661 3.0029
    endloop
  endfacet
  facet normal -1 0 0
    outer loop
      vertex 0 2.92175 2.87273
      vertex 0 -0.847715 3.09444
      vertex 0 2.93331 3.06924
    endloop
  endfacet
  facet normal -1 0 0
    outer loop
      vertex 0 -0.847715 3.09444
      vertex 0 -0.836157 3.29096
      vertex 0 2.93331 3.06924
    endloop
  endfacet
  facet normal 0.999851 0.0171651 -0.00189869
    outer loop
      vertex 0.275877 1.64773 3.14486
      vertex 0.275877 1.62606 2.94894
      vertex 0.27031 1.94822 2.92999
    endloop
  endfacet
  facet normal 0.999851 0.0171651 -0.00189869
    outer loop
      vertex 0.275877 1.64773 3.14486
      vertex 0.27031 1.94822 2.92999
      vertex 0.27031 1.9699 3.12591
    endloop
  endfacet
  facet normal 0.999851 -0.0171646 0.00189863
    outer loop
      vertex 0.27031 1.94822 2.92999
      vertex 0.275877 2.27039 2.91104
      vertex 0.27031 1.9699 3.12591
    endloop
  endfacet
  facet normal 0.999851 -0.0171646 0.00189863
    outer loop
      vertex 0.27031 1.9699 3.12591
      vertex 0.275877 2.27039 2.91104
      vertex 0.275877 2.29207 3.10696
    endloop
  endfacet
  facet normal 0.953224 -0.302266 0
    outer loop
      vertex 1.00083 -0.640679 3.27946
      vertex 1.00083 -0.640679 3.08227
      vertex 1.05536 -0.468696 3.26934
    endloop
  endfacet
  facet normal 0.953243 -0.302204 -6.26351e-5
    outer loop
      vertex 1.00083 -0.640679 3.08227
      vertex 1.05514 -0.469368 3.07219
      vertex 1.05536 -0.468696 3.26934
    endloop
  endfacet
  facet normal 0 -0.998275 0.0587169
    outer loop
      vertex 0 -0.847715 3.09444
      vertex 0.939049 -0.847715 3.09444
      vertex 0 -0.836157 3.29096
    endloop
  endfacet
  facet normal 0 -0.998275 0.0587169
    outer loop
      vertex 0.939049 -0.847715 3.09444
      vertex 0.942498 -0.836157 3.29096
      vertex 0 -0.836157 3.29096
    endloop
  endfacet
  facet normal 0.999785 0.0206883 -0.00121705
    outer loop
      vertex 1.05536 -0.468696 3.26934
      vertex 1.05514 -0.469368 3.07219
      vertex 1.03047 0.730332 3.19882
    endloop
  endfacet
  facet normal 0.999785 0.0206883 -0.00121699
    outer loop
      vertex 1.05514 -0.469368 3.07219
      vertex 1.03067 0.708661 3.0029
      vertex 1.03047 0.730332 3.19882
    endloop
  endfacet
  facet normal 0.999785 0.0206882 -0.00121684
    outer loop
      vertex 0.984722 2.92175 2.87273
      vertex 0.984722 2.93331 3.06924
      vertex 0.998763 2.24553 2.91251
    endloop
  endfacet
  facet normal 0.999785 0.0206883 -0.00121702
    outer loop
      vertex 0.984722 2.93331 3.06924
      vertex 0.998553 2.26721 3.10842
      vertex 0.998763 2.24553 2.91251
    endloop
  endfacet
  facet normal 0 0.0587168 0.998275
    outer loop
      vertex 1.05536 -0.468696 3.26934
      vertex 1.03047 0.730332 3.19882
      vertex 0.275877 0.730332 3.19882
    endloop
  endfacet
  facet normal -2.47481e-8 0.0587168 0.998275
    outer loop
      vertex 0.998553 2.26721 3.10842
      vertex 0.984722 2.93331 3.06924
      vertex 0.275877 2.29207 3.10696
    endloop
  endfacet
  facet normal 0 0.0587168 0.998275
    outer loop
      vertex 0.984722 2.93331 3.06924
      vertex 0 2.93331 3.06924
      vertex 0.275877 2.29207 3.10696
    endloop
  endfacet
  facet normal 1.46029e-6 0.0587174 0.998275
    outer loop
      vertex 0.275877 2.29207 3.10696
      vertex 0 2.93331 3.06924
      vertex 0.27031 1.9699 3.12591
    endloop
  endfacet
  facet normal 0 0.0587167 0.998275
    outer loop
      vertex 0 -0.836157 3.29096
      vertex 0.942498 -0.836157 3.29096
      vertex 1.00083 -0.640679 3.27946
    endloop
  endfacet
  facet normal -7.97279e-8 0.0587171 0.998275
    outer loop
      vertex 1.00083 -0.640679 3.27946
      vertex 1.05536 -0.468696 3.26934
      vertex 0 -0.836157 3.29096
    endloop
  endfacet
  facet normal 2.84294e-8 0.0587168 0.998275
    outer loop
      vertex 1.05536 -0.468696 3.26934
      vertex 0.275877 0.730332 3.19882
      vertex 0 -0.836157 3.29096
    endloop
  endfacet
  facet normal -2.46876e-7 0.0587168 0.998275
    outer loop
      vertex 0 -0.836157 3.29096
      vertex 0.275877 0.730332 3.19882
      vertex 0 2.93331 3.06924
    endloop
  endfacet
  facet normal 1.02259e-7 0.0587169 0.998275
    outer loop
      vertex 0.275877 0.730332 3.19882
      vertex 0.275877 1.64773 3.14486
      vertex 0 2.93331 3.06924
    endloop
  endfacet
  facet normal -2.30836e-6 0.0587164 0.998275
    outer loop
      vertex 0 2.93331 3.06924
      vertex 0.275877 1.64773 3.14486
      vertex 0.27031 1.9699 3.12591
    endloop
  endfacet
  facet normal 0.95825 -0.28593 0
    outer loop
      vertex 1.00083 -0.640679 3.08227
      vertex 1.00083 -0.640679 3.27946
      vertex 0.939049 -0.847715 3.09444
    endloop
  endfacet
  facet normal 0.95825 -0.28593 -6.91307e-9
    outer loop
      vertex 1.00083 -0.640679 3.27946
      vertex 0.942498 -0.836157 3.29096
      vertex 0.939049 -0.847715 3.09444
    endloop
  endfacet
  facet normal 0 -0.0587171 -0.998275
    outer loop
      vertex 1.00083 -0.640679 3.08227
      vertex 0.939049 -0.847715 3.09444
      vertex 0 -0.847715 3.09444
    endloop
  endfacet
  facet normal 0 -0.0587171 -0.998275
    outer loop
      vertex 0.984722 2.92175 2.87273
      vertex 0.998763 2.24553 2.91251
      vertex 0 2.92175 2.87273
    endloop
  endfacet
  facet normal 2.39969e-7 -0.0587168 -0.998275
    outer loop
      vertex 0.998763 2.24553 2.91251
      vertex 0.275877 2.27039 2.91104
      vertex 0 2.92175 2.87273
    endloop
  endfacet
  facet normal -1.23747e-6 -0.0587174 -0.998275
    outer loop
      vertex 0 2.92175 2.87273
      vertex 0.275877 2.27039 2.91104
      vertex 0.27031 1.94822 2.92999
    endloop
  endfacet
  facet normal 0 -0.0587167 -0.998275
    outer loop
      vertex 0.275877 0.708661 3.0029
      vertex 1.03067 0.708661 3.0029
      vertex 1.05514 -0.469368 3.07219
    endloop
  endfacet
  facet normal 2.60293e-6 -0.0587164 -0.998275
    outer loop
      vertex 0.27031 1.94822 2.92999
      vertex 0.275877 1.62606 2.94894
      vertex 0 2.92175 2.87273
    endloop
  endfacet
  facet normal 1.49446e-7 -0.0587169 -0.998275
    outer loop
      vertex 0.275877 1.62606 2.94894
      vertex 0.275877 0.708661 3.0029
      vertex 0 2.92175 2.87273
    endloop
  endfacet
  facet normal 5.09346e-7 -0.0587168 -0.998275
    outer loop
      vertex 0 2.92175 2.87273
      vertex 0.275877 0.708661 3.0029
      vertex 0 -0.847715 3.09444
    endloop
  endfacet
  facet normal -8.0742e-8 -0.0587167 -0.998275
    outer loop
      vertex 0.275877 0.708661 3.0029
      vertex 1.05514 -0.469368 3.07219
      vertex 0 -0.847715 3.09444
    endloop
  endfacet
  facet normal -8.7502e-8 -0.0587167 -0.998275
    outer loop
      vertex 0 -0.847715 3.09444
      vertex 1.05514 -0.469368 3.07219
      vertex 1.00083 -0.640679 3.08227
    endloop
  endfacet
  facet normal 0 0.998275 -0.0587165
    outer loop
      vertex 0 2.93331 3.06924
      vertex 0.984722 2.93331 3.06924
      vertex 0 2.92175 2.87273
    endloop
  endfacet
  facet normal 0 0.998275 -0.0587165
    outer loop
      vertex 0.984722 2.93331 3.06924
      vertex 0.984722 2.92175 2.87273
      vertex 0 2.92175 2.87273
    endloop
  endfacet
endsolid Mesh
