solid Mesh
  facet normal -1 0 0
    outer loop
      vertex 0 1.36611 0.349747
      vertex 0 1.36611 -0.349747
      vertex 0 -1.36611 0.349747
    endloop
  endfacet
  facet normal -1 0 0
    outer loop
      vertex 0 1.36611 -0.349747
      vertex 0 -1.36611 -0.349747
      vertex 0 -1.36611 0.349747
    endloop
  endfacet
  facet normal 0 -1 0
    outer loop
      vertex 2.05771 -1.36611 0.349747
      vertex 0 -1.36611 0.349747
      vertex 2.05771 -1.36611 -0.349747
    endloop
  endfacet
  facet normal 0 -1 0
    outer loop
      vertex 0 -1.36611 0.349747
      vertex 0 -1.36611 -0.349747
      vertex 2.05771 -1.36611 -0.349747
    endloop
  endfacet
  facet normal 0 0 1
    outer loop
      vertex 0 1.36611 0.349747
      vertex 0 -1.36611 0.349747
      vertex 2.05771 1.36611 0.349747
    endloop
  endfacet
  facet normal 0 0 1
    outer loop
      vertex 0 -1.36611 0.349747
      vertex 2.05771 -1.36611 0.349747
      vertex 2.05771 1.36611 0.349747
    endloop
  endfacet
  facet normal 0 0 -1
    outer loop
      vertex 2.05771 -1.36611 -0.349747
      vertex 0 -1.36611 -0.349747
      vertex 2.05771 1.36611 -0.349747
    endloop
  endfacet
  facet normal 0 0 -1
    outer loop
      vertex 0 -1.36611 -0.349747
      vertex 0 1.36611 -0.349747
      vertex 2.05771 1.36611 -0.349747
    endloop
  endfacet
  facet normal 1 0 0
    outer loop
      vertex 2.05771 -1.36611 0.349747
      vertex 2.05771 -1.36611 -0.349747
      vertex 2.05771 1.36611 0.349747
    endloop
  endfacet
  facet normal 1 0 0
    outer loop
      vertex 2.05771 -1.36611 -0.349747
      vertex 2.05771 1.36611 -0.349747
      vertex 2.05771 1.36611 0.349747
    endloop
  endfacet
  facet normal 0 1 0
    outer loop
      vertex 0 1.36611 -0.349747
      vertex 0 1.36611 0.349747
      vertex 2.05771 1.36611 -0.349747
    endloop
  endfacet
  facet normal 0 1 0
    outer loop
      vertex 0 1.36611 0.349747
      vertex 2.05771 1.36611 0.349747
      vertex 2.05771 1.36611 -0.349747
    endloop
  endfacet
endsolid Mesh
