solid Mesh
  facet normal 0 0.780042 -0.625727
    outer loop
      vertex -0.111355 -2.39756 1.06888
      vertex 0.111355 -2.39756 1.06888
      vertex 0.111355 -2.42914 1.02951
    endloop
  endfacet
  facet normal 0 0.780042 -0.625727
    outer loop
      vertex 0.111355 -2.39756 1.06888
      vertex 0.127663 -2.42914 1.02951
      vertex 0.111355 -2.42914 1.02951
    endloop
  endfacet
  facet normal 0 0.780042 -0.625727
    outer loop
      vertex -0.127663 -2.42914 1.02951
      vertex -0.111355 -2.39756 1.06888
      vertex -0.111355 -2.42914 1.02951
    endloop
  endfacet
  facet normal 0 0.780042 -0.625727
    outer loop
      vertex -0.111355 -2.39756 1.06888
      vertex 0.111355 -2.42914 1.02951
      vertex -0.111355 -2.42914 1.02951
    endloop
  endfacet
  facet normal 0 0.780041 -0.625728
    outer loop
      vertex -0.111355 -2.42914 1.02951
      vertex 0.111355 -2.42914 1.02951
      vertex -0.111355 -2.55547 0.872026
    endloop
  endfacet
  facet normal -2.06035e-7 0.780042 -0.625728
    outer loop
      vertex 0.111355 -2.42914 1.02951
      vertex 0.111355 -2.55547 0.872026
      vertex -0.111355 -2.55547 0.872026
    endloop
  endfacet
  facet normal 1 0 0
    outer loop
      vertex 0.111355 -2.42914 1.02951
      vertex 0.111355 -3.34584 1.02951
      vertex 0.111355 -2.55547 0.872026
    endloop
  endfacet
  facet normal 1 0 0
    outer loop
      vertex 0.111355 -3.34584 1.02951
      vertex 0.111355 -3.34584 0.872026
      vertex 0.111355 -2.55547 0.872026
    endloop
  endfacet
  facet normal -0.92388 0 0.382683
    outer loop
      vertex -0.127663 -3.34584 1.02951
      vertex -0.111355 -3.34584 1.06888
      vertex -0.127663 -2.42914 1.02951
    endloop
  endfacet
  facet normal -0.92388 0 0.382683
    outer loop
      vertex -0.111355 -3.34584 1.06888
      vertex -0.111355 -2.39756 1.06888
      vertex -0.127663 -2.42914 1.02951
    endloop
  endfacet
  facet normal 0 0 -1
    outer loop
      vertex 0.127663 -3.34584 1.02951
      vertex 0.111355 -3.34584 1.02951
      vertex 0.127663 -2.42914 1.02951
    endloop
  endfacet
  facet normal 0 0 -1
    outer loop
      vertex 0.111355 -3.34584 1.02951
      vertex 0.111355 -2.42914 1.02951
      vertex 0.127663 -2.42914 1.02951
    endloop
  endfacet
  facet normal 0 0 -1
    outer loop
      vertex -0.111355 -3.34584 1.02951
      vertex -0.127663 -3.34584 1.02951
      vertex -0.111355 -2.42914 1.02951
    endloop
  endfacet
  facet normal 0 0 -1
    outer loop
      vertex -0.127663 -3.34584 1.02951
      vertex -0.127663 -2.42914 1.02951
      vertex -0.111355 -2.42914 1.02951
    endloop
  endfacet
  facet normal 0 -1 0
    outer loop
      vertex 0.111355 -3.34584 1.02951
      vertex 0.127663 -3.34584 1.02951
      vertex 0.111355 -3.34584 1.06888
    endloop
  endfacet
  facet normal 0 -1 0
    outer loop
      vertex -0.111355 -3.34584 1.06888
      vertex -0.127663 -3.34584 1.02951
      vertex -0.111355 -3.34584 1.02951
    endloop
  endfacet
  facet normal 0 -1 0
    outer loop
      vertex -0.111355 -3.34584 0.872026
      vertex 0.111355 -3.34584 0.872026
      vertex -0.111355 -3.34584 1.02951
    endloop
  endfacet
  facet normal 0 -1 0
    outer loop
      vertex 0.111355 -3.34584 0.872026
      vertex 0.111355 -3.34584 1.02951
      vertex -0.111355 -3.34584 1.02951
    endloop
  endfacet
  facet normal 0 -1 0
    outer loop
      vertex -0.111355 -3.34584 1.02951
      vertex 0.111355 -3.34584 1.02951
      vertex -0.111355 -3.34584 1.06888
    endloop
  endfacet
  facet normal 0 -1 0
    outer loop
      vertex 0.111355 -3.34584 1.02951
      vertex 0.111355 -3.34584 1.06888
      vertex -0.111355 -3.34584 1.06888
    endloop
  endfacet
  facet normal 0 0 1
    outer loop
      vertex -0.111355 -3.34584 1.06888
      vertex 0.111355 -3.34584 1.06888
      vertex -0.111355 -2.39756 1.06888
    endloop
  endfacet
  facet normal 0 0 1
    outer loop
      vertex 0.111355 -3.34584 1.06888
      vertex 0.111355 -2.39756 1.06888
      vertex -0.111355 -2.39756 1.06888
    endloop
  endfacet
  facet normal -3.29272e-7 0 -1
    outer loop
      vertex 0.111355 -3.34584 0.872026
      vertex -0.111355 -3.34584 0.872026
      vertex 0.111355 -2.55547 0.872026
    endloop
  endfacet
  facet normal -3.29272e-7 0 -1
    outer loop
      vertex -0.111355 -3.34584 0.872026
      vertex -0.111355 -2.55547 0.872026
      vertex 0.111355 -2.55547 0.872026
    endloop
  endfacet
  facet normal 0.92388 0 0.382683
    outer loop
      vertex 0.111355 -3.34584 1.06888
      vertex 0.127663 -3.34584 1.02951
      vertex 0.111355 -2.39756 1.06888
    endloop
  endfacet
  facet normal 0.92388 0 0.382683
    outer loop
      vertex 0.127663 -3.34584 1.02951
      vertex 0.127663 -2.42914 1.02951
      vertex 0.111355 -2.39756 1.06888
    endloop
  endfacet
  facet normal -1 0 0
    outer loop
      vertex -0.111355 -2.55547 0.872026
      vertex -0.111355 -3.34584 0.872026
      vertex -0.111355 -2.42914 1.02951
    endloop
  endfacet
  facet normal -1 0 0
    outer loop
      vertex -0.111355 -3.34584 0.872026
      vertex -0.111355 -3.34584 1.02951
      vertex -0.111355 -2.42914 1.02951
    endloop
  endfacet
endsolid Mesh
