solid Mesh
  facet normal -0.7429 -0.624231 0.241732
    outer loop
      vertex -1.16437 0.515344 1.20391
      vertex -1.11811 0.676188 1.76145
      vertex -1.16439 0.515973 1.20548
    endloop
  endfacet
  facet normal -0.996697 0.0368739 0.0723502
    outer loop
      vertex -1.11811 0.676188 1.76145
      vertex -1.11809 0.676377 1.76156
      vertex -1.16439 0.515973 1.20548
    endloop
  endfacet
  facet normal -0.99269 0.109338 0.0511138
    outer loop
      vertex -1.16439 0.515973 1.20548
      vertex -1.11809 0.676377 1.76156
      vertex -1.16423 0.51664 1.20714
    endloop
  endfacet
  facet normal -0.99278 0.108377 0.0513981
    outer loop
      vertex -1.11809 0.676377 1.76156
      vertex -1.11806 0.676601 1.76168
      vertex -1.16423 0.51664 1.20714
    endloop
  endfacet
  facet normal -0.929563 0.367551 -0.0286206
    outer loop
      vertex -1.16372 0.518427 1.21144
      vertex -1.16378 0.518256 1.21117
      vertex -1.11795 0.677042 1.76192
    endloop
  endfacet
  facet normal -0.944194 0.328987 -0.0162848
    outer loop
      vertex -1.16378 0.518256 1.21117
      vertex -1.16387 0.517952 1.21042
      vertex -1.11795 0.677042 1.76192
    endloop
  endfacet
  facet normal -0.962539 0.271138 0.00193012
    outer loop
      vertex -1.11795 0.677042 1.76192
      vertex -1.16387 0.517952 1.21042
      vertex -1.11801 0.676823 1.7618
    endloop
  endfacet
  facet normal -0.962737 0.270431 0.00215029
    outer loop
      vertex -1.16387 0.517952 1.21042
      vertex -1.16406 0.517299 1.20879
      vertex -1.11801 0.676823 1.7618
    endloop
  endfacet
  facet normal -0.981406 0.190052 0.0268911
    outer loop
      vertex -1.11801 0.676823 1.7618
      vertex -1.16406 0.517299 1.20879
      vertex -1.11806 0.676601 1.76168
    endloop
  endfacet
  facet normal -0.977652 0.209169 0.0210707
    outer loop
      vertex -1.16406 0.517299 1.20879
      vertex -1.16415 0.516947 1.20791
      vertex -1.11806 0.676601 1.76168
    endloop
  endfacet
  facet normal -0.985159 0.168351 0.0334636
    outer loop
      vertex -1.11806 0.676601 1.76168
      vertex -1.16415 0.516947 1.20791
      vertex -1.16423 0.51664 1.20714
    endloop
  endfacet
  facet normal -0.936556 0.349767 -0.0229149
    outer loop
      vertex -1.11795 0.677042 1.76192
      vertex -1.11788 0.677254 1.76204
      vertex -1.16372 0.518427 1.21144
    endloop
  endfacet
  facet normal -0.903593 0.425743 -0.0475754
    outer loop
      vertex -1.11788 0.677254 1.76204
      vertex -1.11779 0.677459 1.76215
      vertex -1.16372 0.518427 1.21144
    endloop
  endfacet
  facet normal -0.903618 0.425692 -0.0475586
    outer loop
      vertex -1.16372 0.518427 1.21144
      vertex -1.11779 0.677459 1.76215
      vertex -1.1636 0.518719 1.21185
    endloop
  endfacet
  facet normal -0.823516 0.559641 -0.0928655
    outer loop
      vertex -1.16342 0.519081 1.21227
      vertex -1.16345 0.519027 1.21222
      vertex -1.11768 0.677655 1.76226
    endloop
  endfacet
  facet normal -0.835532 0.542522 -0.0869287
    outer loop
      vertex -1.16345 0.519027 1.21222
      vertex -1.16348 0.518971 1.21216
      vertex -1.11768 0.677655 1.76226
    endloop
  endfacet
  facet normal -0.86406 0.498244 -0.0717809
    outer loop
      vertex -1.11768 0.677655 1.76226
      vertex -1.16348 0.518971 1.21216
      vertex -1.11779 0.677459 1.76215
    endloop
  endfacet
  facet normal -0.852943 0.516163 -0.0778682
    outer loop
      vertex -1.16348 0.518971 1.21216
      vertex -1.16354 0.51885 1.21202
      vertex -1.11779 0.677459 1.76215
    endloop
  endfacet
  facet normal -0.874492 0.480555 -0.0658096
    outer loop
      vertex -1.11779 0.677459 1.76215
      vertex -1.16354 0.51885 1.21202
      vertex -1.1636 0.518719 1.21185
    endloop
  endfacet
  facet normal -0.748222 0.651449 -0.125611
    outer loop
      vertex -1.16328 0.51929 1.21241
      vertex -1.11757 0.67784 1.76236
      vertex -1.16323 0.519348 1.21242
    endloop
  endfacet
  facet normal -0.765652 0.632223 -0.118622
    outer loop
      vertex -1.11757 0.67784 1.76236
      vertex -1.11744 0.678013 1.76246
      vertex -1.16323 0.519348 1.21242
    endloop
  endfacet
  facet normal -0.72947 0.670994 -0.132819
    outer loop
      vertex -1.16323 0.519348 1.21242
      vertex -1.11744 0.678013 1.76246
      vertex -1.1632 0.519385 1.21242
    endloop
  endfacet
  facet normal -0.769044 0.628355 -0.117222
    outer loop
      vertex -1.16328 0.51929 1.21241
      vertex -1.16333 0.519227 1.21238
      vertex -1.11757 0.67784 1.76236
    endloop
  endfacet
  facet normal -0.785716 0.608699 -0.110166
    outer loop
      vertex -1.16333 0.519227 1.21238
      vertex -1.16336 0.519181 1.21235
      vertex -1.11757 0.67784 1.76236
    endloop
  endfacet
  facet normal -0.817712 0.567625 -0.0956538
    outer loop
      vertex -1.11757 0.67784 1.76236
      vertex -1.16336 0.519181 1.21235
      vertex -1.11768 0.677655 1.76226
    endloop
  endfacet
  facet normal -0.798846 0.592413 -0.104364
    outer loop
      vertex -1.16336 0.519181 1.21235
      vertex -1.16339 0.519132 1.21231
      vertex -1.11768 0.677655 1.76226
    endloop
  endfacet
  facet normal -0.811876 0.575478 -0.0983998
    outer loop
      vertex -1.11768 0.677655 1.76226
      vertex -1.16339 0.519132 1.21231
      vertex -1.16342 0.519081 1.21227
    endloop
  endfacet
  facet normal -0.721102 0.679364 -0.13593
    outer loop
      vertex -1.11736 0.678102 1.76251
      vertex -1.16316 0.51942 1.21241
      vertex -1.11744 0.678013 1.76246
    endloop
  endfacet
  facet normal -0.7039 0.695932 -0.142137
    outer loop
      vertex -1.16316 0.51942 1.21241
      vertex -1.16317 0.519412 1.21241
      vertex -1.11744 0.678013 1.76246
    endloop
  endfacet
  facet normal -0.715444 0.684906 -0.137998
    outer loop
      vertex -1.11744 0.678013 1.76246
      vertex -1.16317 0.519412 1.21241
      vertex -1.1632 0.519385 1.21242
    endloop
  endfacet
  facet normal 0.0214751 -0.960124 0.278747
    outer loop
      vertex -0.22259 0.676121 1.76142
      vertex -0.175538 0.513111 1.19631
      vertex -0.222499 0.676124 1.76142
    endloop
  endfacet
  facet normal 0.0430986 -0.95897 0.280211
    outer loop
      vertex -0.175538 0.513111 1.19631
      vertex -0.175441 0.513413 1.19733
      vertex -0.222499 0.676124 1.76142
    endloop
  endfacet
  facet normal 0.06441 -0.957388 0.281532
    outer loop
      vertex -0.222499 0.676124 1.76142
      vertex -0.175441 0.513413 1.19733
      vertex -0.222408 0.676131 1.76142
    endloop
  endfacet
  facet normal 0.106908 -0.952911 0.28378
    outer loop
      vertex -0.222408 0.676131 1.76142
      vertex -0.175441 0.513413 1.19733
      vertex -0.222318 0.676143 1.76143
    endloop
  endfacet
  facet normal 0.132832 -0.94931 0.284895
    outer loop
      vertex -0.175441 0.513413 1.19733
      vertex -0.175343 0.513789 1.19854
      vertex -0.222318 0.676143 1.76143
    endloop
  endfacet
  facet normal 0.15031 -0.946505 0.285545
    outer loop
      vertex -0.222318 0.676143 1.76143
      vertex -0.175343 0.513789 1.19854
      vertex -0.222229 0.67616 1.76144
    endloop
  endfacet
  facet normal 0.192046 -0.938565 0.286731
    outer loop
      vertex -0.222229 0.67616 1.76144
      vertex -0.175343 0.513789 1.19854
      vertex -0.222141 0.676182 1.76145
    endloop
  endfacet
  facet normal 0.22338 -0.931436 0.287279
    outer loop
      vertex -0.175343 0.513789 1.19854
      vertex -0.17526 0.51418 1.19974
      vertex -0.222141 0.676182 1.76145
    endloop
  endfacet
  facet normal 0.233453 -0.928926 0.287396
    outer loop
      vertex -0.222141 0.676182 1.76145
      vertex -0.17526 0.51418 1.19974
      vertex -0.222054 0.676208 1.76146
    endloop
  endfacet
  facet normal 0.275995 -0.917141 0.28754
    outer loop
      vertex -0.222054 0.676208 1.76146
      vertex -0.17526 0.51418 1.19974
      vertex -0.221968 0.676239 1.76148
    endloop
  endfacet
  facet normal 0.306829 -0.907371 0.287286
    outer loop
      vertex -0.17526 0.51418 1.19974
      vertex -0.17519 0.514584 1.20094
      vertex -0.221968 0.676239 1.76148
    endloop
  endfacet
  facet normal 0.316686 -0.904024 0.287143
    outer loop
      vertex -0.221968 0.676239 1.76148
      vertex -0.17519 0.514584 1.20094
      vertex -0.221884 0.676275 1.7615
    endloop
  endfacet
  facet normal 0.356973 -0.889185 0.286219
    outer loop
      vertex -0.221884 0.676275 1.7615
      vertex -0.17519 0.514584 1.20094
      vertex -0.221802 0.676316 1.76152
    endloop
  endfacet
  facet normal 0.385152 -0.877666 0.285238
    outer loop
      vertex -0.17519 0.514584 1.20094
      vertex -0.175131 0.514999 1.20214
      vertex -0.221802 0.676316 1.76152
    endloop
  endfacet
  facet normal 0.396962 -0.872548 0.284748
    outer loop
      vertex -0.221802 0.676316 1.76152
      vertex -0.175131 0.514999 1.20214
      vertex -0.221721 0.67636 1.76155
    endloop
  endfacet
  facet normal 0.435329 -0.854702 0.282795
    outer loop
      vertex -0.221721 0.67636 1.76155
      vertex -0.175131 0.514999 1.20214
      vertex -0.221642 0.67641 1.76157
    endloop
  endfacet
  facet normal 0.458039 -0.843226 0.281372
    outer loop
      vertex -0.175131 0.514999 1.20214
      vertex -0.175082 0.515424 1.20333
      vertex -0.221642 0.67641 1.76157
    endloop
  endfacet
  facet normal 0.474716 -0.834345 0.280202
    outer loop
      vertex -0.221642 0.67641 1.76157
      vertex -0.175082 0.515424 1.20333
      vertex -0.221565 0.676463 1.7616
    endloop
  endfacet
  facet normal 0.5114 -0.813401 0.277215
    outer loop
      vertex -0.221565 0.676463 1.7616
      vertex -0.175082 0.515424 1.20333
      vertex -0.22149 0.676521 1.76164
    endloop
  endfacet
  facet normal 0.530103 -0.801942 0.275463
    outer loop
      vertex -0.175082 0.515424 1.20333
      vertex -0.175039 0.515909 1.20466
      vertex -0.22149 0.676521 1.76164
    endloop
  endfacet
  facet normal 0.547365 -0.79087 0.27371
    outer loop
      vertex -0.22149 0.676521 1.76164
      vertex -0.175039 0.515909 1.20466
      vertex -0.221418 0.676583 1.76167
    endloop
  endfacet
  facet normal 0.58346 -0.766099 0.26957
    outer loop
      vertex -0.221418 0.676583 1.76167
      vertex -0.175039 0.515909 1.20466
      vertex -0.221348 0.676649 1.76171
    endloop
  endfacet
  facet normal 0.600859 -0.753328 0.267331
    outer loop
      vertex -0.175039 0.515909 1.20466
      vertex -0.175008 0.516405 1.20599
      vertex -0.221348 0.676649 1.76171
    endloop
  endfacet
  facet normal 0.617314 -0.740717 0.265067
    outer loop
      vertex -0.221348 0.676649 1.76171
      vertex -0.175008 0.516405 1.20599
      vertex -0.221281 0.676718 1.76175
    endloop
  endfacet
  facet normal 0.650728 -0.713419 0.259975
    outer loop
      vertex -0.221281 0.676718 1.76175
      vertex -0.175008 0.516405 1.20599
      vertex -0.221217 0.676792 1.76179
    endloop
  endfacet
  facet normal 0.666513 -0.699675 0.257321
    outer loop
      vertex -0.175008 0.516405 1.20599
      vertex -0.174987 0.516911 1.20731
      vertex -0.221217 0.676792 1.76179
    endloop
  endfacet
  facet normal 0.682539 -0.68512 0.25446
    outer loop
      vertex -0.221217 0.676792 1.76179
      vertex -0.174987 0.516911 1.20731
      vertex -0.221155 0.676869 1.76183
    endloop
  endfacet
  facet normal 0.727 -0.641247 0.245506
    outer loop
      vertex -0.174987 0.516911 1.20731
      vertex -0.174977 0.517428 1.20863
      vertex -0.221155 0.676869 1.76183
    endloop
  endfacet
  facet normal 0.727994 -0.640202 0.245288
    outer loop
      vertex -0.221155 0.676869 1.76183
      vertex -0.174977 0.517428 1.20863
      vertex -0.221041 0.677033 1.76192
    endloop
  endfacet
  facet normal 0.782354 -0.578058 0.231887
    outer loop
      vertex -0.174977 0.517428 1.20863
      vertex -0.174977 0.517954 1.20995
      vertex -0.221041 0.677033 1.76192
    endloop
  endfacet
  facet normal 0.783954 -0.576063 0.231446
    outer loop
      vertex -0.221041 0.677033 1.76192
      vertex -0.174977 0.517954 1.20995
      vertex -0.22094 0.677211 1.76202
    endloop
  endfacet
  facet normal 0.832679 -0.509736 0.216369
    outer loop
      vertex -0.174977 0.517954 1.20995
      vertex -0.174989 0.518491 1.21126
      vertex -0.22094 0.677211 1.76202
    endloop
  endfacet
  facet normal 0.834089 -0.507632 0.215881
    outer loop
      vertex -0.22094 0.677211 1.76202
      vertex -0.174989 0.518491 1.21126
      vertex -0.220852 0.677399 1.76212
    endloop
  endfacet
  facet normal 0.877382 -0.436582 0.198989
    outer loop
      vertex -0.174989 0.518491 1.21126
      vertex -0.175012 0.519039 1.21256
      vertex -0.220852 0.677399 1.76212
    endloop
  endfacet
  facet normal 0.877869 -0.4357 0.198776
    outer loop
      vertex -0.220852 0.677399 1.76212
      vertex -0.175012 0.519039 1.21256
      vertex -0.220779 0.677597 1.76223
    endloop
  endfacet
  facet normal 0 -0.225409 0.974264
    outer loop
      vertex -0.788734 0.584153 1.01695
      vertex -0.918431 0.477913 0.992371
      vertex -0.549849 0.584153 1.01695
    endloop
  endfacet
  facet normal 2.07058e-7 -0.22541 0.974264
    outer loop
      vertex -0.918431 0.477913 0.992371
      vertex -0.905512 0.464994 0.989382
      vertex -0.549849 0.584153 1.01695
    endloop
  endfacet
  facet normal -2.38564e-8 -0.225409 0.974264
    outer loop
      vertex -0.549849 0.584153 1.01695
      vertex -0.905512 0.464994 0.989382
      vertex -0.420152 0.477913 0.992371
    endloop
  endfacet
  facet normal 0 -0.22541 0.974264
    outer loop
      vertex -0.905512 0.464994 0.989382
      vertex -0.433071 0.464994 0.989382
      vertex -0.420152 0.477913 0.992371
    endloop
  endfacet
  facet normal 0.638147 0.768588 0.0451825
    outer loop
      vertex -0.559285 0.593058 0.998737
      vertex -0.549849 0.584153 1.01695
      vertex -0.418573 0.479491 0.943215
    endloop
  endfacet
  facet normal 0.638147 0.768588 0.0451826
    outer loop
      vertex -0.549849 0.584153 1.01695
      vertex -0.420152 0.477913 0.992371
      vertex -0.418573 0.479491 0.943215
    endloop
  endfacet
  facet normal -0.638147 0.768588 0.0451825
    outer loop
      vertex -0.788734 0.584153 1.01695
      vertex -0.779298 0.593058 0.998737
      vertex -0.918431 0.477913 0.992371
    endloop
  endfacet
  facet normal -0.638147 0.768588 0.0451826
    outer loop
      vertex -0.779298 0.593058 0.998737
      vertex -0.920009 0.479491 0.943215
      vertex -0.918431 0.477913 0.992371
    endloop
  endfacet
  facet normal 0 -0.898381 -0.439217
    outer loop
      vertex -0.559285 0.593058 0.998737
      vertex -0.362157 0.593058 0.998737
      vertex -0.549849 0.584153 1.01695
    endloop
  endfacet
  facet normal 2.22481e-8 -0.898381 -0.439217
    outer loop
      vertex -0.362157 0.593058 0.998737
      vertex -0.362157 0.558474 1.06948
      vertex -0.549849 0.584153 1.01695
    endloop
  endfacet
  facet normal 0 -0.898381 -0.439217
    outer loop
      vertex -0.549849 0.584153 1.01695
      vertex -0.362157 0.558474 1.06948
      vertex -0.788734 0.584153 1.01695
    endloop
  endfacet
  facet normal 0 -0.898381 -0.439217
    outer loop
      vertex -0.362157 0.558474 1.06948
      vertex -0.976426 0.558474 1.06948
      vertex -0.788734 0.584153 1.01695
    endloop
  endfacet
  facet normal -1.01054e-7 -0.898381 -0.439217
    outer loop
      vertex -0.788734 0.584153 1.01695
      vertex -0.976426 0.558474 1.06948
      vertex -0.779298 0.593058 0.998737
    endloop
  endfacet
  facet normal 0 -0.898381 -0.439217
    outer loop
      vertex -0.976426 0.558474 1.06948
      vertex -0.976426 0.593058 0.998737
      vertex -0.779298 0.593058 0.998737
    endloop
  endfacet
  facet normal -0.78182 -0.560144 -0.273853
    outer loop
      vertex -0.362157 0.558474 1.06948
      vertex -0.362157 0.593058 0.998737
      vertex -0.354331 0.549658 1.06517
    endloop
  endfacet
  facet normal -0.78182 -0.560144 -0.273853
    outer loop
      vertex -0.362157 0.593058 0.998737
      vertex -0.354331 0.584242 0.994427
      vertex -0.354331 0.549658 1.06517
    endloop
  endfacet
  facet normal 0.707107 -0.707107 0
    outer loop
      vertex -0.354331 0.543734 0.931081
      vertex -0.354331 0.543734 0.974622
      vertex -0.418573 0.479491 0.943215
    endloop
  endfacet
  facet normal 0.707107 -0.707107 0
    outer loop
      vertex -0.420152 0.477913 0.992371
      vertex -0.433071 0.464994 0.989382
      vertex -0.418573 0.479491 0.943215
    endloop
  endfacet
  facet normal 0.707107 -0.707107 0
    outer loop
      vertex -0.433071 0.464994 0.989382
      vertex -0.433071 0.464994 0.931081
      vertex -0.418573 0.479491 0.943215
    endloop
  endfacet
  facet normal 0.707107 -0.707107 0
    outer loop
      vertex -0.418573 0.479491 0.943215
      vertex -0.433071 0.464994 0.931081
      vertex -0.354331 0.543734 0.931081
    endloop
  endfacet
  facet normal 0.53548 -0.82229 0.192614
    outer loop
      vertex -1.05218 0.49368 1.12793
      vertex -1.05202 0.493783 1.12793
      vertex -0.999254 0.676594 1.76168
    endloop
  endfacet
  facet normal 0.021982 -0.961077 0.275404
    outer loop
      vertex -1.0005 0.676121 1.76142
      vertex -1.05324 0.493386 1.12793
      vertex -1.00041 0.676124 1.76142
    endloop
  endfacet
  facet normal 0.0217386 -0.961077 0.275424
    outer loop
      vertex -1.05324 0.493386 1.12793
      vertex -1.05315 0.493388 1.12793
      vertex -1.00041 0.676124 1.76142
    endloop
  endfacet
  facet normal 0.0646944 -0.960232 0.271604
    outer loop
      vertex -1.00041 0.676124 1.76142
      vertex -1.05315 0.493388 1.12793
      vertex -1.00031 0.676131 1.76142
    endloop
  endfacet
  facet normal 0.065209 -0.960211 0.271555
    outer loop
      vertex -1.05315 0.493388 1.12793
      vertex -1.05306 0.493394 1.12793
      vertex -1.00031 0.676131 1.76142
    endloop
  endfacet
  facet normal 0.10824 -0.957542 0.267202
    outer loop
      vertex -1.00031 0.676131 1.76142
      vertex -1.05306 0.493394 1.12793
      vertex -1.00022 0.676144 1.76143
    endloop
  endfacet
  facet normal 0.10872 -0.957502 0.26715
    outer loop
      vertex -1.05306 0.493394 1.12793
      vertex -1.05297 0.493404 1.12793
      vertex -1.00022 0.676144 1.76143
    endloop
  endfacet
  facet normal 0.152069 -0.952949 0.262227
    outer loop
      vertex -1.00022 0.676144 1.76143
      vertex -1.05297 0.493404 1.12793
      vertex -1.00013 0.676161 1.76144
    endloop
  endfacet
  facet normal 0.151343 -0.953041 0.262314
    outer loop
      vertex -1.05297 0.493404 1.12793
      vertex -1.05288 0.493419 1.12793
      vertex -1.00013 0.676161 1.76144
    endloop
  endfacet
  facet normal 0.194178 -0.946723 0.256926
    outer loop
      vertex -1.00013 0.676161 1.76144
      vertex -1.05288 0.493419 1.12793
      vertex -1.00004 0.676183 1.76145
    endloop
  endfacet
  facet normal 0.19452 -0.946665 0.25688
    outer loop
      vertex -1.05288 0.493419 1.12793
      vertex -1.05279 0.493438 1.12793
      vertex -1.00004 0.676183 1.76145
    endloop
  endfacet
  facet normal 0.237395 -0.938442 0.250938
    outer loop
      vertex -1.00004 0.676183 1.76145
      vertex -1.05279 0.493438 1.12793
      vertex -0.999946 0.67621 1.76146
    endloop
  endfacet
  facet normal 0.237104 -0.938504 0.250981
    outer loop
      vertex -1.05279 0.493438 1.12793
      vertex -1.0527 0.49346 1.12793
      vertex -0.999946 0.67621 1.76146
    endloop
  endfacet
  facet normal 0.27887 -0.928641 0.244658
    outer loop
      vertex -0.999946 0.67621 1.76146
      vertex -1.0527 0.49346 1.12793
      vertex -0.999855 0.676242 1.76148
    endloop
  endfacet
  facet normal 0.278896 -0.928634 0.244654
    outer loop
      vertex -1.0527 0.49346 1.12793
      vertex -1.05261 0.493487 1.12793
      vertex -0.999855 0.676242 1.76148
    endloop
  endfacet
  facet normal 0.320657 -0.916864 0.237781
    outer loop
      vertex -0.999855 0.676242 1.76148
      vertex -1.05261 0.493487 1.12793
      vertex -0.999765 0.676279 1.7615
    endloop
  endfacet
  facet normal 0.320155 -0.917017 0.237867
    outer loop
      vertex -1.05261 0.493487 1.12793
      vertex -1.05252 0.493518 1.12793
      vertex -0.999765 0.676279 1.7615
    endloop
  endfacet
  facet normal 0.360713 -0.903707 0.230651
    outer loop
      vertex -0.999765 0.676279 1.7615
      vertex -1.05252 0.493518 1.12793
      vertex -0.999677 0.67632 1.76153
    endloop
  endfacet
  facet normal 0.361655 -0.903375 0.230477
    outer loop
      vertex -1.05252 0.493518 1.12793
      vertex -1.05243 0.493553 1.12793
      vertex -0.999677 0.67632 1.76153
    endloop
  endfacet
  facet normal 0.401835 -0.888205 0.222756
    outer loop
      vertex -0.999677 0.67632 1.76153
      vertex -1.05243 0.493553 1.12793
      vertex -0.999589 0.676366 1.76155
    endloop
  endfacet
  facet normal 0.401474 -0.888351 0.222828
    outer loop
      vertex -1.05243 0.493553 1.12793
      vertex -1.05235 0.493591 1.12793
      vertex -0.999589 0.676366 1.76155
    endloop
  endfacet
  facet normal 0.441183 -0.871375 0.214624
    outer loop
      vertex -0.999589 0.676366 1.76155
      vertex -1.05235 0.493591 1.12793
      vertex -0.999503 0.676417 1.76158
    endloop
  endfacet
  facet normal 0.440743 -0.871574 0.214718
    outer loop
      vertex -1.05235 0.493591 1.12793
      vertex -1.05226 0.493634 1.12793
      vertex -0.999503 0.676417 1.76158
    endloop
  endfacet
  facet normal 0.478791 -0.853348 0.206293
    outer loop
      vertex -0.999503 0.676417 1.76158
      vertex -1.05226 0.493634 1.12793
      vertex -0.999418 0.676471 1.76161
    endloop
  endfacet
  facet normal 0.479516 -0.852981 0.206127
    outer loop
      vertex -1.05226 0.493634 1.12793
      vertex -1.05218 0.49368 1.12793
      vertex -0.999418 0.676471 1.76161
    endloop
  endfacet
  facet normal 0.517632 -0.832598 0.197073
    outer loop
      vertex -0.999418 0.676471 1.76161
      vertex -1.05218 0.49368 1.12793
      vertex -0.999336 0.676531 1.76164
    endloop
  endfacet
  facet normal 0.55364 -0.811276 0.187919
    outer loop
      vertex -1.05218 0.49368 1.12793
      vertex -0.999254 0.676594 1.76168
      vertex -0.999336 0.676531 1.76164
    endloop
  endfacet
  facet normal 0.585199 -0.792131 0.17341
    outer loop
      vertex -0.999188 0.67663 1.76162
      vertex -0.999208 0.676633 1.7617
      vertex -0.999254 0.676594 1.76168
    endloop
  endfacet
  facet normal 0.673298 -0.723447 0.152627
    outer loop
      vertex -1.05173 0.494029 1.12793
      vertex -0.999002 0.676715 1.76124
      vertex -1.05187 0.4939 1.12793
    endloop
  endfacet
  facet normal 0.705427 -0.694496 0.141587
    outer loop
      vertex -0.999002 0.676715 1.76124
      vertex -0.999011 0.676708 1.76125
      vertex -1.05187 0.4939 1.12793
    endloop
  endfacet
  facet normal 0.69605 -0.703222 0.144889
    outer loop
      vertex -1.05187 0.4939 1.12793
      vertex -0.999011 0.676708 1.76125
      vertex -0.999023 0.676697 1.76125
    endloop
  endfacet
  facet normal 0.693889 -0.7052 0.14564
    outer loop
      vertex -0.999023 0.676697 1.76125
      vertex -0.999035 0.676687 1.76126
      vertex -1.05187 0.4939 1.12793
    endloop
  endfacet
  facet normal 0.685122 -0.7131 0.148651
    outer loop
      vertex -0.999035 0.676687 1.76126
      vertex -0.999051 0.676675 1.76128
      vertex -1.05187 0.4939 1.12793
    endloop
  endfacet
  facet normal 0.675964 -0.721144 0.151737
    outer loop
      vertex -1.05187 0.4939 1.12793
      vertex -0.999051 0.676675 1.76128
      vertex -0.999074 0.676659 1.76131
    endloop
  endfacet
  facet normal 0.663113 -0.73209 0.155966
    outer loop
      vertex -0.999074 0.676659 1.76131
      vertex -0.999097 0.676647 1.76135
      vertex -1.05187 0.4939 1.12793
    endloop
  endfacet
  facet normal 0.648898 -0.743752 0.160515
    outer loop
      vertex -0.999097 0.676647 1.76135
      vertex -0.999127 0.676635 1.76142
      vertex -1.05187 0.4939 1.12793
    endloop
  endfacet
  facet normal 0.606984 -0.775612 0.173195
    outer loop
      vertex -1.05187 0.4939 1.12793
      vertex -0.999127 0.676635 1.76142
      vertex -1.05202 0.493783 1.12793
    endloop
  endfacet
  facet normal 0.634818 -0.754864 0.164883
    outer loop
      vertex -0.999127 0.676635 1.76142
      vertex -0.999148 0.676631 1.76147
      vertex -1.05202 0.493783 1.12793
    endloop
  endfacet
  facet normal 0.600759 -0.780043 0.174992
    outer loop
      vertex -1.05202 0.493783 1.12793
      vertex -0.999148 0.676631 1.76147
      vertex -0.999254 0.676594 1.76168
    endloop
  endfacet
  facet normal 0.560407 -0.814954 0.147625
    outer loop
      vertex -0.999148 0.676631 1.76147
      vertex -0.999168 0.676629 1.76154
      vertex -0.999254 0.676594 1.76168
    endloop
  endfacet
  facet normal 0.57963 -0.798215 0.163959
    outer loop
      vertex -0.999254 0.676594 1.76168
      vertex -0.999168 0.676629 1.76154
      vertex -0.999188 0.67663 1.76162
    endloop
  endfacet
  facet normal 0 0 -1
    outer loop
      vertex -0.354331 0.643497 1.12793
      vertex -0.320567 0.643497 1.12793
      vertex -0.354331 0.562464 1.12793
    endloop
  endfacet
  facet normal 0 0 -1
    outer loop
      vertex -0.320567 0.643497 1.12793
      vertex -0.182551 0.493386 1.12793
      vertex -0.354331 0.562464 1.12793
    endloop
  endfacet
  facet normal 0 0 -1
    outer loop
      vertex -0.354331 0.562464 1.12793
      vertex -0.182551 0.493386 1.12793
      vertex -0.286215 0.493386 1.12793
    endloop
  endfacet
  facet normal 0 -1 0
    outer loop
      vertex -0.354331 0.643497 1.12793
      vertex -0.354331 0.643497 1.03613
      vertex -0.320567 0.643497 1.12793
    endloop
  endfacet
  facet normal 0.704854 -0.695034 0.141803
    outer loop
      vertex -0.984252 0.549658 1.06517
      vertex -0.976426 0.558474 1.06948
      vertex -0.984252 0.562464 1.12793
    endloop
  endfacet
  facet normal 0.704854 -0.695034 0.141803
    outer loop
      vertex -0.976426 0.558474 1.06948
      vertex -0.920631 0.751777 1.73959
      vertex -0.984252 0.562464 1.12793
    endloop
  endfacet
  facet normal 0.704855 -0.695033 0.141803
    outer loop
      vertex -0.984252 0.562464 1.12793
      vertex -0.920631 0.751777 1.73959
      vertex -1.05173 0.494029 1.12793
    endloop
  endfacet
  facet normal 0.704855 -0.695034 0.141803
    outer loop
      vertex -0.920631 0.751777 1.73959
      vertex -0.999002 0.676715 1.76124
      vertex -1.05173 0.494029 1.12793
    endloop
  endfacet
  facet normal 0 0 -1
    outer loop
      vertex -0.984252 0.643497 1.12793
      vertex -0.984252 0.562464 1.12793
      vertex -1.01802 0.643497 1.12793
    endloop
  endfacet
  facet normal 0 0 -1
    outer loop
      vertex -0.984252 0.562464 1.12793
      vertex -1.05173 0.494029 1.12793
      vertex -1.01802 0.643497 1.12793
    endloop
  endfacet
  facet normal 0 0 -1
    outer loop
      vertex -1.01802 0.643497 1.12793
      vertex -1.05173 0.494029 1.12793
      vertex -1.05187 0.4939 1.12793
    endloop
  endfacet
  facet normal 0 0 -1
    outer loop
      vertex -1.05187 0.4939 1.12793
      vertex -1.05202 0.493783 1.12793
      vertex -1.01802 0.643497 1.12793
    endloop
  endfacet
  facet normal 0 0 -1
    outer loop
      vertex -1.05202 0.493783 1.12793
      vertex -1.05218 0.49368 1.12793
      vertex -1.01802 0.643497 1.12793
    endloop
  endfacet
  facet normal 0 0 -1
    outer loop
      vertex -1.01802 0.643497 1.12793
      vertex -1.05218 0.49368 1.12793
      vertex -1.05226 0.493634 1.12793
    endloop
  endfacet
  facet normal 0 0 -1
    outer loop
      vertex -1.05226 0.493634 1.12793
      vertex -1.05235 0.493591 1.12793
      vertex -1.01802 0.643497 1.12793
    endloop
  endfacet
  facet normal 0 0 -1
    outer loop
      vertex -1.05235 0.493591 1.12793
      vertex -1.05243 0.493553 1.12793
      vertex -1.01802 0.643497 1.12793
    endloop
  endfacet
  facet normal 0 0 -1
    outer loop
      vertex -1.01802 0.643497 1.12793
      vertex -1.05243 0.493553 1.12793
      vertex -1.05252 0.493518 1.12793
    endloop
  endfacet
  facet normal 0 0 -1
    outer loop
      vertex -1.05252 0.493518 1.12793
      vertex -1.05261 0.493487 1.12793
      vertex -1.01802 0.643497 1.12793
    endloop
  endfacet
  facet normal 0 0 -1
    outer loop
      vertex -1.05261 0.493487 1.12793
      vertex -1.0527 0.49346 1.12793
      vertex -1.01802 0.643497 1.12793
    endloop
  endfacet
  facet normal 0 0 -1
    outer loop
      vertex -1.01802 0.643497 1.12793
      vertex -1.0527 0.49346 1.12793
      vertex -1.05279 0.493438 1.12793
    endloop
  endfacet
  facet normal 0 0 -1
    outer loop
      vertex -1.05279 0.493438 1.12793
      vertex -1.05288 0.493419 1.12793
      vertex -1.01802 0.643497 1.12793
    endloop
  endfacet
  facet normal 0 0 -1
    outer loop
      vertex -1.05288 0.493419 1.12793
      vertex -1.05297 0.493404 1.12793
      vertex -1.01802 0.643497 1.12793
    endloop
  endfacet
  facet normal 0 0 -1
    outer loop
      vertex -1.01802 0.643497 1.12793
      vertex -1.05297 0.493404 1.12793
      vertex -1.05306 0.493394 1.12793
    endloop
  endfacet
  facet normal 0 0 -1
    outer loop
      vertex -1.05306 0.493394 1.12793
      vertex -1.05315 0.493388 1.12793
      vertex -1.01802 0.643497 1.12793
    endloop
  endfacet
  facet normal 0 0 -1
    outer loop
      vertex -1.05315 0.493388 1.12793
      vertex -1.05324 0.493386 1.12793
      vertex -1.01802 0.643497 1.12793
    endloop
  endfacet
  facet normal 0 0 -1
    outer loop
      vertex -1.01802 0.643497 1.12793
      vertex -1.05324 0.493386 1.12793
      vertex -1.15603 0.493386 1.12793
    endloop
  endfacet
  facet normal 0 0.875387 0.483423
    outer loop
      vertex -0.326633 0.798578 1.82904
      vertex -0.417952 0.866203 1.70658
      vertex -1.01195 0.798578 1.82904
    endloop
  endfacet
  facet normal 0 0.875387 0.483423
    outer loop
      vertex -0.417952 0.866203 1.70658
      vertex -0.920631 0.866203 1.70658
      vertex -1.01195 0.798578 1.82904
    endloop
  endfacet
  facet normal 0.707105 0 -0.707109
    outer loop
      vertex -0.255906 -0.286904 0.832656
      vertex -0.255906 0.545071 0.832656
      vertex -0.249151 -0.293659 0.839411
    endloop
  endfacet
  facet normal 0.707107 2.85607e-8 -0.707107
    outer loop
      vertex -0.255906 0.545071 0.832656
      vertex -0.15748 0.643497 0.931081
      vertex -0.249151 -0.293659 0.839411
    endloop
  endfacet
  facet normal 0.707107 0 -0.707107
    outer loop
      vertex -0.249151 -0.293659 0.839411
      vertex -0.15748 0.643497 0.931081
      vertex -0.15748 -0.255688 0.931081
    endloop
  endfacet
  facet normal 0 -0.960824 0.277161
    outer loop
      vertex -0.417952 0.7736 1.81525
      vertex -0.920631 0.7736 1.81525
      vertex -0.417952 0.751777 1.73959
    endloop
  endfacet
  facet normal 0 -0.960824 0.277161
    outer loop
      vertex -0.920631 0.7736 1.81525
      vertex -0.920631 0.751777 1.73959
      vertex -0.417952 0.751777 1.73959
    endloop
  endfacet
  facet normal 0 -0.960824 0.277161
    outer loop
      vertex -0.417952 0.751777 1.73959
      vertex -0.920631 0.751777 1.73959
      vertex -0.362157 0.558474 1.06948
    endloop
  endfacet
  facet normal 0 -0.960824 0.277161
    outer loop
      vertex -0.920631 0.751777 1.73959
      vertex -0.976426 0.558474 1.06948
      vertex -0.362157 0.558474 1.06948
    endloop
  endfacet
  facet normal -0.704854 -0.695034 0.141803
    outer loop
      vertex -0.362157 0.558474 1.06948
      vertex -0.354331 0.549658 1.06517
      vertex -0.354331 0.562464 1.12793
    endloop
  endfacet
  facet normal -0.704855 -0.695033 0.141803
    outer loop
      vertex -0.286215 0.493386 1.12793
      vertex -0.33896 0.676121 1.76142
      vertex -0.354331 0.562464 1.12793
    endloop
  endfacet
  facet normal -0.704855 -0.695034 0.141803
    outer loop
      vertex -0.33896 0.676121 1.76142
      vertex -0.417952 0.751777 1.73959
      vertex -0.354331 0.562464 1.12793
    endloop
  endfacet
  facet normal -0.704854 -0.695034 0.141803
    outer loop
      vertex -0.354331 0.562464 1.12793
      vertex -0.417952 0.751777 1.73959
      vertex -0.362157 0.558474 1.06948
    endloop
  endfacet
  facet normal -0.0001944 -0.483553 0.875315
    outer loop
      vertex -0.220852 0.677399 1.76212
      vertex -0.220779 0.677597 1.76223
      vertex -0.326633 0.798578 1.82904
    endloop
  endfacet
  facet normal 0 -0.483423 0.875387
    outer loop
      vertex -0.417952 0.7736 1.81525
      vertex -0.326633 0.798578 1.82904
      vertex -1.01195 0.798578 1.82904
    endloop
  endfacet
  facet normal 0.000673942 -0.482976 0.875634
    outer loop
      vertex -0.221281 0.676718 1.76175
      vertex -0.221217 0.676792 1.76179
      vertex -0.326633 0.798578 1.82904
    endloop
  endfacet
  facet normal -0.000522617 -0.483769 0.875195
    outer loop
      vertex -0.221217 0.676792 1.76179
      vertex -0.221155 0.676869 1.76183
      vertex -0.326633 0.798578 1.82904
    endloop
  endfacet
  facet normal -0.000265825 -0.483444 0.875375
    outer loop
      vertex -0.999254 0.676594 1.76168
      vertex -0.999208 0.676633 1.7617
      vertex -1.01195 0.798578 1.82904
    endloop
  endfacet
  facet normal 1.76588e-7 -0.483423 0.875387
    outer loop
      vertex -0.999208 0.676633 1.7617
      vertex -0.920631 0.7736 1.81525
      vertex -1.01195 0.798578 1.82904
    endloop
  endfacet
  facet normal 0 -0.483423 0.875387
    outer loop
      vertex -1.01195 0.798578 1.82904
      vertex -0.920631 0.7736 1.81525
      vertex -0.417952 0.7736 1.81525
    endloop
  endfacet
  facet normal -1.26789e-5 -0.483983 0.875077
    outer loop
      vertex -1.0005 0.676121 1.76142
      vertex -1.11736 0.678102 1.76251
      vertex -1.11744 0.678013 1.76246
    endloop
  endfacet
  facet normal -0.00105225 -0.483505 0.875341
    outer loop
      vertex -0.999503 0.676417 1.76158
      vertex -0.999418 0.676471 1.76161
      vertex -1.01195 0.798578 1.82904
    endloop
  endfacet
  facet normal 0.0011964 -0.483328 0.875439
    outer loop
      vertex -0.999418 0.676471 1.76161
      vertex -0.999336 0.676531 1.76164
      vertex -1.01195 0.798578 1.82904
    endloop
  endfacet
  facet normal -0.000479417 -0.483461 0.875366
    outer loop
      vertex -1.01195 0.798578 1.82904
      vertex -0.999336 0.676531 1.76164
      vertex -0.999254 0.676594 1.76168
    endloop
  endfacet
  facet normal -3.58659e-7 -0.483505 0.875341
    outer loop
      vertex -1.11801 0.676823 1.7618
      vertex -1.11806 0.676601 1.76168
      vertex -1.0005 0.676121 1.76142
    endloop
  endfacet
  facet normal -3.37145e-7 -0.483501 0.875344
    outer loop
      vertex -1.11806 0.676601 1.76168
      vertex -1.11809 0.676377 1.76156
      vertex -1.0005 0.676121 1.76142
    endloop
  endfacet
  facet normal -6.09404e-7 -0.483597 0.875291
    outer loop
      vertex -1.0005 0.676121 1.76142
      vertex -1.11809 0.676377 1.76156
      vertex -1.11811 0.676188 1.76145
    endloop
  endfacet
  facet normal -0.000236801 -0.483579 0.875301
    outer loop
      vertex -0.22149 0.676521 1.76164
      vertex -0.221418 0.676583 1.76167
      vertex -0.326633 0.798578 1.82904
    endloop
  endfacet
  facet normal 0.000234345 -0.483267 0.875473
    outer loop
      vertex -0.221418 0.676583 1.76167
      vertex -0.221348 0.676649 1.76171
      vertex -0.326633 0.798578 1.82904
    endloop
  endfacet
  facet normal -0.00041391 -0.483696 0.875236
    outer loop
      vertex -0.326633 0.798578 1.82904
      vertex -0.221348 0.676649 1.76171
      vertex -0.221281 0.676718 1.76175
    endloop
  endfacet
  facet normal 2.95425e-5 -0.483403 0.875398
    outer loop
      vertex -0.221155 0.676869 1.76183
      vertex -0.221041 0.677033 1.76192
      vertex -0.326633 0.798578 1.82904
    endloop
  endfacet
  facet normal -8.67079e-5 -0.48348 0.875355
    outer loop
      vertex -0.221041 0.677033 1.76192
      vertex -0.22094 0.677211 1.76202
      vertex -0.326633 0.798578 1.82904
    endloop
  endfacet
  facet normal 0.000178361 -0.483303 0.875453
    outer loop
      vertex -0.326633 0.798578 1.82904
      vertex -0.22094 0.677211 1.76202
      vertex -0.220852 0.677399 1.76212
    endloop
  endfacet
  facet normal 2.35884e-7 -0.483376 0.875413
    outer loop
      vertex -1.11779 0.677459 1.76215
      vertex -1.11788 0.677254 1.76204
      vertex -1.0005 0.676121 1.76142
    endloop
  endfacet
  facet normal 2.7798e-6 -0.483174 0.875524
    outer loop
      vertex -1.11788 0.677254 1.76204
      vertex -1.11795 0.677042 1.76192
      vertex -1.0005 0.676121 1.76142
    endloop
  endfacet
  facet normal 4.4132e-7 -0.483403 0.875398
    outer loop
      vertex -1.0005 0.676121 1.76142
      vertex -1.11795 0.677042 1.76192
      vertex -1.11801 0.676823 1.7618
    endloop
  endfacet
  facet normal -0.000767016 -0.483927 0.875108
    outer loop
      vertex -0.221721 0.67636 1.76155
      vertex -0.221642 0.67641 1.76157
      vertex -0.326633 0.798578 1.82904
    endloop
  endfacet
  facet normal 0.000881068 -0.482842 0.875707
    outer loop
      vertex -0.221642 0.67641 1.76157
      vertex -0.221565 0.676463 1.7616
      vertex -0.326633 0.798578 1.82904
    endloop
  endfacet
  facet normal -0.000431501 -0.483707 0.87523
    outer loop
      vertex -0.326633 0.798578 1.82904
      vertex -0.221565 0.676463 1.7616
      vertex -0.22149 0.676521 1.76164
    endloop
  endfacet
  facet normal -0.000752781 -0.48348 0.875355
    outer loop
      vertex -0.999765 0.676279 1.7615
      vertex -0.999677 0.67632 1.76153
      vertex -1.01195 0.798578 1.82904
    endloop
  endfacet
  facet normal 0.00118572 -0.483331 0.875437
    outer loop
      vertex -0.999677 0.67632 1.76153
      vertex -0.999589 0.676366 1.76155
      vertex -1.01195 0.798578 1.82904
    endloop
  endfacet
  facet normal -4.19427e-5 -0.483426 0.875385
    outer loop
      vertex -1.01195 0.798578 1.82904
      vertex -0.999589 0.676366 1.76155
      vertex -0.999503 0.676417 1.76158
    endloop
  endfacet
  facet normal 7.99503e-6 -0.483004 0.875618
    outer loop
      vertex -1.11744 0.678013 1.76246
      vertex -1.11757 0.67784 1.76236
      vertex -1.0005 0.676121 1.76142
    endloop
  endfacet
  facet normal -7.85286e-7 -0.483462 0.875365
    outer loop
      vertex -1.11757 0.67784 1.76236
      vertex -1.11768 0.677655 1.76226
      vertex -1.0005 0.676121 1.76142
    endloop
  endfacet
  facet normal -2.78599e-6 -0.483579 0.875301
    outer loop
      vertex -1.0005 0.676121 1.76142
      vertex -1.11768 0.677655 1.76226
      vertex -1.11779 0.677459 1.76215
    endloop
  endfacet
  facet normal -0.000283769 -0.483608 0.875284
    outer loop
      vertex -0.221968 0.676239 1.76148
      vertex -0.221884 0.676275 1.7615
      vertex -0.326633 0.798578 1.82904
    endloop
  endfacet
  facet normal -0.000147414 -0.483519 0.875334
    outer loop
      vertex -0.221884 0.676275 1.7615
      vertex -0.221802 0.676316 1.76152
      vertex -0.326633 0.798578 1.82904
    endloop
  endfacet
  facet normal 0.000763392 -0.48292 0.875664
    outer loop
      vertex -0.326633 0.798578 1.82904
      vertex -0.221802 0.676316 1.76152
      vertex -0.221721 0.67636 1.76155
    endloop
  endfacet
  facet normal 0.000223887 -0.483406 0.875396
    outer loop
      vertex -1.00004 0.676183 1.76145
      vertex -0.999946 0.67621 1.76146
      vertex -1.01195 0.798578 1.82904
    endloop
  endfacet
  facet normal 0.000152912 -0.483411 0.875394
    outer loop
      vertex -0.999946 0.67621 1.76146
      vertex -0.999855 0.676242 1.76148
      vertex -1.01195 0.798578 1.82904
    endloop
  endfacet
  facet normal 8.19242e-5 -0.483416 0.875391
    outer loop
      vertex -1.01195 0.798578 1.82904
      vertex -0.999855 0.676242 1.76148
      vertex -0.999765 0.676279 1.7615
    endloop
  endfacet
  facet normal -0.000323353 -0.483634 0.87527
    outer loop
      vertex -0.222229 0.67616 1.76144
      vertex -0.222141 0.676182 1.76145
      vertex -0.326633 0.798578 1.82904
    endloop
  endfacet
  facet normal -0.00069962 -0.48388 0.875134
    outer loop
      vertex -0.222141 0.676182 1.76145
      vertex -0.222054 0.676208 1.76146
      vertex -0.326633 0.798578 1.82904
    endloop
  endfacet
  facet normal 0.000400796 -0.48316 0.875532
    outer loop
      vertex -0.326633 0.798578 1.82904
      vertex -0.222054 0.676208 1.76146
      vertex -0.221968 0.676239 1.76148
    endloop
  endfacet
  facet normal -0.000459699 -0.483456 0.875369
    outer loop
      vertex -1.00031 0.676131 1.76142
      vertex -1.00022 0.676144 1.76143
      vertex -1.01195 0.798578 1.82904
    endloop
  endfacet
  facet normal 0.0006004 -0.483378 0.875412
    outer loop
      vertex -1.00022 0.676144 1.76143
      vertex -1.00013 0.676161 1.76144
      vertex -1.01195 0.798578 1.82904
    endloop
  endfacet
  facet normal -0.000457841 -0.483456 0.875368
    outer loop
      vertex -1.01195 0.798578 1.82904
      vertex -1.00013 0.676161 1.76144
      vertex -1.00004 0.676183 1.76145
    endloop
  endfacet
  facet normal -2.77715e-7 -0.483422 0.875387
    outer loop
      vertex -1.11736 0.678102 1.76251
      vertex -1.0005 0.676121 1.76142
      vertex -1.01195 0.798578 1.82904
    endloop
  endfacet
  facet normal 0.000537425 -0.483384 0.875408
    outer loop
      vertex -1.0005 0.676121 1.76142
      vertex -1.00041 0.676124 1.76142
      vertex -1.01195 0.798578 1.82904
    endloop
  endfacet
  facet normal -0.000153902 -0.483434 0.875381
    outer loop
      vertex -1.01195 0.798578 1.82904
      vertex -1.00041 0.676124 1.76142
      vertex -1.00031 0.676131 1.76142
    endloop
  endfacet
  facet normal -2.6854e-7 -0.483422 0.875387
    outer loop
      vertex -0.417952 0.7736 1.81525
      vertex -0.33896 0.676121 1.76142
      vertex -0.326633 0.798578 1.82904
    endloop
  endfacet
  facet normal 0 -0.483422 0.875387
    outer loop
      vertex -0.33896 0.676121 1.76142
      vertex -0.22259 0.676121 1.76142
      vertex -0.326633 0.798578 1.82904
    endloop
  endfacet
  facet normal 0.000154337 -0.483322 0.875443
    outer loop
      vertex -0.326633 0.798578 1.82904
      vertex -0.22259 0.676121 1.76142
      vertex -0.222499 0.676124 1.76142
    endloop
  endfacet
  facet normal 0.000445567 -0.483132 0.875547
    outer loop
      vertex -0.222499 0.676124 1.76142
      vertex -0.222408 0.676131 1.76142
      vertex -0.326633 0.798578 1.82904
    endloop
  endfacet
  facet normal -0.000563813 -0.48379 0.875184
    outer loop
      vertex -0.222408 0.676131 1.76142
      vertex -0.222318 0.676143 1.76143
      vertex -0.326633 0.798578 1.82904
    endloop
  endfacet
  facet normal 0.000971836 -0.482787 0.875737
    outer loop
      vertex -0.326633 0.798578 1.82904
      vertex -0.222318 0.676143 1.76143
      vertex -0.222229 0.67616 1.76144
    endloop
  endfacet
  facet normal -0.704855 0.695034 -0.141803
    outer loop
      vertex -1.01195 0.798578 1.82904
      vertex -0.920631 0.866203 1.70658
      vertex -1.11736 0.678102 1.76251
    endloop
  endfacet
  facet normal -0.704855 0.695034 -0.141803
    outer loop
      vertex -0.920631 0.866203 1.70658
      vertex -0.967875 0.702526 1.13917
      vertex -1.11736 0.678102 1.76251
    endloop
  endfacet
  facet normal -0.704855 0.695033 -0.141803
    outer loop
      vertex -1.11736 0.678102 1.76251
      vertex -0.967875 0.702526 1.13917
      vertex -1.16316 0.51942 1.21241
    endloop
  endfacet
  facet normal 0 -1 0
    outer loop
      vertex -0.984252 0.643497 1.12793
      vertex -1.01802 0.643497 1.12793
      vertex -0.984252 0.643497 1.03613
    endloop
  endfacet
  facet normal 0.704855 0.695034 -0.141803
    outer loop
      vertex -0.175012 0.519039 1.21256
      vertex -0.370708 0.702526 1.13917
      vertex -0.220779 0.677597 1.76223
    endloop
  endfacet
  facet normal 0.704855 0.695033 -0.141803
    outer loop
      vertex -0.370708 0.702526 1.13917
      vertex -0.417952 0.866203 1.70658
      vertex -0.220779 0.677597 1.76223
    endloop
  endfacet
  facet normal 0.704855 0.695033 -0.141803
    outer loop
      vertex -0.220779 0.677597 1.76223
      vertex -0.417952 0.866203 1.70658
      vertex -0.326633 0.798578 1.82904
    endloop
  endfacet
  facet normal 0 1 0
    outer loop
      vertex -0.354331 0.643497 0.931081
      vertex -0.984252 0.643497 0.931081
      vertex -0.354331 0.643497 0.950766
    endloop
  endfacet
  facet normal 0 1 0
    outer loop
      vertex -0.984252 0.643497 0.931081
      vertex -0.984252 0.643497 0.950766
      vertex -0.354331 0.643497 0.950766
    endloop
  endfacet
  facet normal 0 -0.707105 -0.707109
    outer loop
      vertex -1.08943 -0.293659 0.839411
      vertex -1.08268 -0.286904 0.832656
      vertex -0.249151 -0.293659 0.839411
    endloop
  endfacet
  facet normal 0 -0.707105 -0.707109
    outer loop
      vertex -1.08268 -0.286904 0.832656
      vertex -0.255906 -0.286904 0.832656
      vertex -0.249151 -0.293659 0.839411
    endloop
  endfacet
  facet normal 0 -1 0
    outer loop
      vertex -0.905512 0.464994 0.931081
      vertex -1.10728 0.464994 0.931081
      vertex -1.08268 0.464994 0.906475
    endloop
  endfacet
  facet normal 0 -1 0
    outer loop
      vertex -0.255906 0.464994 0.906475
      vertex -0.231299 0.464994 0.931081
      vertex -0.433071 0.464994 0.931081
    endloop
  endfacet
  facet normal 0 -1 0
    outer loop
      vertex -0.433071 0.464994 0.989382
      vertex -0.905512 0.464994 0.989382
      vertex -0.433071 0.464994 0.931081
    endloop
  endfacet
  facet normal 0 -1 0
    outer loop
      vertex -0.905512 0.464994 0.989382
      vertex -0.905512 0.464994 0.931081
      vertex -0.433071 0.464994 0.931081
    endloop
  endfacet
  facet normal 0 -1 0
    outer loop
      vertex -0.433071 0.464994 0.931081
      vertex -0.905512 0.464994 0.931081
      vertex -0.255906 0.464994 0.906475
    endloop
  endfacet
  facet normal 0 -1 0
    outer loop
      vertex -0.905512 0.464994 0.931081
      vertex -1.08268 0.464994 0.906475
      vertex -0.255906 0.464994 0.906475
    endloop
  endfacet
  facet normal -0.707107 -0.707107 0
    outer loop
      vertex -0.984252 0.543734 0.974623
      vertex -0.984252 0.543734 0.931081
      vertex -0.920009 0.479491 0.943215
    endloop
  endfacet
  facet normal -0.707107 -0.707107 0
    outer loop
      vertex -0.984252 0.543734 0.931081
      vertex -0.905512 0.464994 0.931081
      vertex -0.920009 0.479491 0.943215
    endloop
  endfacet
  facet normal -0.707107 -0.707107 0
    outer loop
      vertex -0.920009 0.479491 0.943215
      vertex -0.905512 0.464994 0.931081
      vertex -0.918431 0.477913 0.992371
    endloop
  endfacet
  facet normal -0.707107 -0.707107 0
    outer loop
      vertex -0.905512 0.464994 0.931081
      vertex -0.905512 0.464994 0.989382
      vertex -0.918431 0.477913 0.992371
    endloop
  endfacet
  facet normal 0 -0.923879 0.382684
    outer loop
      vertex -1.10728 -0.255688 0.931081
      vertex -1.1811 -0.255688 0.931081
      vertex -1.08268 -0.26588 0.906475
    endloop
  endfacet
  facet normal -1.45448e-7 -0.92388 0.382683
    outer loop
      vertex -1.1811 -0.255688 0.931081
      vertex -1.08943 -0.293659 0.839411
      vertex -1.08268 -0.26588 0.906475
    endloop
  endfacet
  facet normal 0 -0.92388 0.382683
    outer loop
      vertex -1.08268 -0.26588 0.906475
      vertex -1.08943 -0.293659 0.839411
      vertex -0.255906 -0.26588 0.906475
    endloop
  endfacet
  facet normal 0 -0.92388 0.382683
    outer loop
      vertex -1.08943 -0.293659 0.839411
      vertex -0.249151 -0.293659 0.839411
      vertex -0.255906 -0.26588 0.906475
    endloop
  endfacet
  facet normal 5.41863e-7 -0.92388 0.382683
    outer loop
      vertex -0.255906 -0.26588 0.906475
      vertex -0.249151 -0.293659 0.839411
      vertex -0.231299 -0.255688 0.931081
    endloop
  endfacet
  facet normal 0 -0.92388 0.382683
    outer loop
      vertex -0.249151 -0.293659 0.839411
      vertex -0.15748 -0.255688 0.931081
      vertex -0.231299 -0.255688 0.931081
    endloop
  endfacet
  facet normal 0.78182 -0.560144 -0.273853
    outer loop
      vertex -0.984252 0.549658 1.06517
      vertex -0.984252 0.584242 0.994427
      vertex -0.976426 0.558474 1.06948
    endloop
  endfacet
  facet normal 0.78182 -0.560144 -0.273853
    outer loop
      vertex -0.984252 0.584242 0.994427
      vertex -0.976426 0.593058 0.998737
      vertex -0.976426 0.558474 1.06948
    endloop
  endfacet
  facet normal 1 0 0
    outer loop
      vertex -0.354331 0.584242 0.994427
      vertex -0.354331 0.543734 0.974622
      vertex -0.354331 0.543734 0.931081
    endloop
  endfacet
  facet normal 1 0 0
    outer loop
      vertex -0.354331 0.643497 0.931081
      vertex -0.354331 0.643497 0.950766
      vertex -0.354331 0.543734 0.931081
    endloop
  endfacet
  facet normal 1 0 0
    outer loop
      vertex -0.354331 0.643497 0.950766
      vertex -0.354331 0.614062 0.96254
      vertex -0.354331 0.543734 0.931081
    endloop
  endfacet
  facet normal 1 0 0
    outer loop
      vertex -0.354331 0.543734 0.931081
      vertex -0.354331 0.614062 0.96254
      vertex -0.354331 0.584242 0.994427
    endloop
  endfacet
  facet normal 1 0 0
    outer loop
      vertex -0.354331 0.614062 0.96254
      vertex -0.354331 0.643497 1.03613
      vertex -0.354331 0.584242 0.994427
    endloop
  endfacet
  facet normal 1 0 0
    outer loop
      vertex -0.354331 0.584242 0.994427
      vertex -0.354331 0.643497 1.03613
      vertex -0.354331 0.549658 1.06517
    endloop
  endfacet
  facet normal 1 0 0
    outer loop
      vertex -0.354331 0.643497 1.03613
      vertex -0.354331 0.643497 1.12793
      vertex -0.354331 0.549658 1.06517
    endloop
  endfacet
  facet normal 1 0 0
    outer loop
      vertex -0.354331 0.549658 1.06517
      vertex -0.354331 0.643497 1.12793
      vertex -0.354331 0.562464 1.12793
    endloop
  endfacet
  facet normal 4.69813e-7 0.371392 0.928476
    outer loop
      vertex -0.370708 0.629417 0.956398
      vertex -0.354331 0.614062 0.96254
      vertex -0.354331 0.643497 0.950766
    endloop
  endfacet
  facet normal 0 0.371392 0.928476
    outer loop
      vertex -0.370708 0.629417 0.956398
      vertex -0.354331 0.643497 0.950766
      vertex -0.967875 0.629417 0.956398
    endloop
  endfacet
  facet normal 0 0.371392 0.928476
    outer loop
      vertex -0.354331 0.643497 0.950766
      vertex -0.984252 0.643497 0.950766
      vertex -0.967875 0.629417 0.956398
    endloop
  endfacet
  facet normal -4.69813e-7 0.371392 0.928476
    outer loop
      vertex -0.967875 0.629417 0.956398
      vertex -0.984252 0.643497 0.950766
      vertex -0.984252 0.614062 0.96254
    endloop
  endfacet
  facet normal 0 -0.960824 0.277161
    outer loop
      vertex -0.22259 0.676121 1.76142
      vertex -0.33896 0.676121 1.76142
      vertex -0.175538 0.513111 1.19631
    endloop
  endfacet
  facet normal -1.61425e-7 -0.960824 0.277161
    outer loop
      vertex -0.33896 0.676121 1.76142
      vertex -0.286215 0.493386 1.12793
      vertex -0.175538 0.513111 1.19631
    endloop
  endfacet
  facet normal 0 -0.960824 0.27716
    outer loop
      vertex -0.175538 0.513111 1.19631
      vertex -0.286215 0.493386 1.12793
      vertex -0.182551 0.493386 1.12793
    endloop
  endfacet
  facet normal 7.93469e-7 -0.439216 0.898382
    outer loop
      vertex -0.984252 0.543734 0.974623
      vertex -0.920009 0.479491 0.943215
      vertex -0.984252 0.584242 0.994427
    endloop
  endfacet
  facet normal -6.64202e-8 -0.439216 0.898381
    outer loop
      vertex -0.920009 0.479491 0.943215
      vertex -0.779298 0.593058 0.998737
      vertex -0.984252 0.584242 0.994427
    endloop
  endfacet
  facet normal 0 -0.439218 0.898381
    outer loop
      vertex -0.984252 0.584242 0.994427
      vertex -0.779298 0.593058 0.998737
      vertex -0.976426 0.593058 0.998737
    endloop
  endfacet
  facet normal -1 0 0
    outer loop
      vertex -0.984252 0.643497 0.950766
      vertex -0.984252 0.643497 0.931081
      vertex -0.984252 0.614062 0.96254
    endloop
  endfacet
  facet normal -1 0 0
    outer loop
      vertex -0.984252 0.643497 0.931081
      vertex -0.984252 0.543734 0.931081
      vertex -0.984252 0.614062 0.96254
    endloop
  endfacet
  facet normal -1 0 0
    outer loop
      vertex -0.984252 0.562464 1.12793
      vertex -0.984252 0.643497 1.12793
      vertex -0.984252 0.549658 1.06517
    endloop
  endfacet
  facet normal -1 0 0
    outer loop
      vertex -0.984252 0.643497 1.12793
      vertex -0.984252 0.643497 1.03613
      vertex -0.984252 0.549658 1.06517
    endloop
  endfacet
  facet normal -1 0 0
    outer loop
      vertex -0.984252 0.549658 1.06517
      vertex -0.984252 0.643497 1.03613
      vertex -0.984252 0.584242 0.994427
    endloop
  endfacet
  facet normal -1 0 0
    outer loop
      vertex -0.984252 0.643497 1.03613
      vertex -0.984252 0.614062 0.96254
      vertex -0.984252 0.584242 0.994427
    endloop
  endfacet
  facet normal -1 0 0
    outer loop
      vertex -0.984252 0.584242 0.994427
      vertex -0.984252 0.614062 0.96254
      vertex -0.984252 0.543734 0.974623
    endloop
  endfacet
  facet normal -1 0 0
    outer loop
      vertex -0.984252 0.614062 0.96254
      vertex -0.984252 0.543734 0.931081
      vertex -0.984252 0.543734 0.974623
    endloop
  endfacet
  facet normal -0.000456969 -0.960813 0.277196
    outer loop
      vertex -1.0005 0.676121 1.76142
      vertex -1.11811 0.676188 1.76145
      vertex -1.05324 0.493386 1.12793
    endloop
  endfacet
  facet normal -0.000334371 -0.96081 0.277207
    outer loop
      vertex -1.11811 0.676188 1.76145
      vertex -1.16437 0.515344 1.20391
      vertex -1.05324 0.493386 1.12793
    endloop
  endfacet
  facet normal 0 -0.96068 0.277659
    outer loop
      vertex -1.05324 0.493386 1.12793
      vertex -1.16437 0.515344 1.20391
      vertex -1.15603 0.493386 1.12793
    endloop
  endfacet
  facet normal 0 0.960824 -0.277161
    outer loop
      vertex -0.920631 0.866203 1.70658
      vertex -0.417952 0.866203 1.70658
      vertex -0.967875 0.702526 1.13917
    endloop
  endfacet
  facet normal 0 0.960824 -0.277161
    outer loop
      vertex -0.417952 0.866203 1.70658
      vertex -0.370708 0.702526 1.13917
      vertex -0.967875 0.702526 1.13917
    endloop
  endfacet
  facet normal 0.705758 -0.680576 0.196778
    outer loop
      vertex -0.920631 0.7736 1.81525
      vertex -0.999208 0.676633 1.7617
      vertex -0.999188 0.67663 1.76162
    endloop
  endfacet
  facet normal 0.705978 -0.680488 0.196295
    outer loop
      vertex -0.920631 0.751777 1.73959
      vertex -0.920631 0.7736 1.81525
      vertex -0.999002 0.676715 1.76124
    endloop
  endfacet
  facet normal 0.706032 -0.680466 0.196176
    outer loop
      vertex -0.920631 0.7736 1.81525
      vertex -0.999188 0.67663 1.76162
      vertex -0.999002 0.676715 1.76124
    endloop
  endfacet
  facet normal 0.706224 -0.680222 0.196329
    outer loop
      vertex -0.999002 0.676715 1.76124
      vertex -0.999188 0.67663 1.76162
      vertex -0.999168 0.676629 1.76154
    endloop
  endfacet
  facet normal 0.705623 -0.68101 0.195761
    outer loop
      vertex -0.999168 0.676629 1.76154
      vertex -0.999148 0.676631 1.76147
      vertex -0.999002 0.676715 1.76124
    endloop
  endfacet
  facet normal 0.706344 -0.680024 0.196583
    outer loop
      vertex -0.999148 0.676631 1.76147
      vertex -0.999127 0.676635 1.76142
      vertex -0.999002 0.676715 1.76124
    endloop
  endfacet
  facet normal 0.708573 -0.676784 0.199719
    outer loop
      vertex -0.999002 0.676715 1.76124
      vertex -0.999127 0.676635 1.76142
      vertex -0.999011 0.676708 1.76125
    endloop
  endfacet
  facet normal 0.703435 -0.68404 0.193051
    outer loop
      vertex -0.999011 0.676708 1.76125
      vertex -0.999127 0.676635 1.76142
      vertex -0.999023 0.676697 1.76125
    endloop
  endfacet
  facet normal 0.706679 -0.679608 0.196817
    outer loop
      vertex -0.999127 0.676635 1.76142
      vertex -0.999097 0.676647 1.76135
      vertex -0.999023 0.676697 1.76125
    endloop
  endfacet
  facet normal 0.709056 -0.676017 0.200601
    outer loop
      vertex -0.999023 0.676697 1.76125
      vertex -0.999097 0.676647 1.76135
      vertex -0.999035 0.676687 1.76126
    endloop
  endfacet
  facet normal 0.707034 -0.67897 0.197747
    outer loop
      vertex -0.999097 0.676647 1.76135
      vertex -0.999074 0.676659 1.76131
      vertex -0.999035 0.676687 1.76126
    endloop
  endfacet
  facet normal 0.703687 -0.684154 0.191721
    outer loop
      vertex -0.999035 0.676687 1.76126
      vertex -0.999074 0.676659 1.76131
      vertex -0.999051 0.676675 1.76128
    endloop
  endfacet
  facet normal 3.75917e-7 -0.439216 0.898381
    outer loop
      vertex -0.418573 0.479491 0.943215
      vertex -0.354331 0.543734 0.974622
      vertex -0.559285 0.593058 0.998737
    endloop
  endfacet
  facet normal 1.91488e-8 -0.439217 0.898381
    outer loop
      vertex -0.354331 0.543734 0.974622
      vertex -0.354331 0.584242 0.994427
      vertex -0.559285 0.593058 0.998737
    endloop
  endfacet
  facet normal 0 -0.439218 0.898381
    outer loop
      vertex -0.559285 0.593058 0.998737
      vertex -0.354331 0.584242 0.994427
      vertex -0.362157 0.593058 0.998737
    endloop
  endfacet
  facet normal -0.705978 -0.680488 0.196295
    outer loop
      vertex -0.417952 0.7736 1.81525
      vertex -0.417952 0.751777 1.73959
      vertex -0.33896 0.676121 1.76142
    endloop
  endfacet
  facet normal -0.707107 0 -0.707107
    outer loop
      vertex -1.08268 0.545071 0.832656
      vertex -1.08268 -0.286904 0.832656
      vertex -1.1811 0.643497 0.931081
    endloop
  endfacet
  facet normal -0.707107 0 -0.707107
    outer loop
      vertex -1.08268 -0.286904 0.832656
      vertex -1.08943 -0.293659 0.839411
      vertex -1.1811 0.643497 0.931081
    endloop
  endfacet
  facet normal -0.707107 0 -0.707107
    outer loop
      vertex -1.1811 0.643497 0.931081
      vertex -1.08943 -0.293659 0.839411
      vertex -1.1811 -0.255688 0.931081
    endloop
  endfacet
  facet normal 0 0.707107 -0.707107
    outer loop
      vertex -1.08268 0.545071 0.832656
      vertex -1.1811 0.643497 0.931081
      vertex -0.984252 0.643497 0.931081
    endloop
  endfacet
  facet normal 0 0.707107 -0.707107
    outer loop
      vertex -1.08268 0.545071 0.832656
      vertex -0.984252 0.643497 0.931081
      vertex -0.255906 0.545071 0.832656
    endloop
  endfacet
  facet normal 0 0.707107 -0.707107
    outer loop
      vertex -0.984252 0.643497 0.931081
      vertex -0.354331 0.643497 0.931081
      vertex -0.255906 0.545071 0.832656
    endloop
  endfacet
  facet normal 0 0.707107 -0.707107
    outer loop
      vertex -0.255906 0.545071 0.832656
      vertex -0.354331 0.643497 0.931081
      vertex -0.15748 0.643497 0.931081
    endloop
  endfacet
  facet normal 0.707107 0 0.707107
    outer loop
      vertex -1.08268 -0.26588 0.906475
      vertex -1.08268 0.464994 0.906475
      vertex -1.10728 -0.255688 0.931081
    endloop
  endfacet
  facet normal 0.707107 0 0.707107
    outer loop
      vertex -1.08268 0.464994 0.906475
      vertex -1.10728 0.464994 0.931081
      vertex -1.10728 -0.255688 0.931081
    endloop
  endfacet
  facet normal 0 0 -1
    outer loop
      vertex -1.08268 0.545071 0.832656
      vertex -0.255906 0.545071 0.832656
      vertex -1.08268 -0.286904 0.832656
    endloop
  endfacet
  facet normal 0 0 -1
    outer loop
      vertex -0.255906 0.545071 0.832656
      vertex -0.255906 -0.286904 0.832656
      vertex -1.08268 -0.286904 0.832656
    endloop
  endfacet
  facet normal -0.707106 0 0.707107
    outer loop
      vertex -0.255906 0.464994 0.906475
      vertex -0.255906 -0.26588 0.906475
      vertex -0.231299 0.464994 0.931081
    endloop
  endfacet
  facet normal -0.707106 0 0.707107
    outer loop
      vertex -0.255906 -0.26588 0.906475
      vertex -0.231299 -0.255688 0.931081
      vertex -0.231299 0.464994 0.931081
    endloop
  endfacet
  facet normal 0 0 1
    outer loop
      vertex -0.255906 -0.26588 0.906475
      vertex -0.255906 0.464994 0.906475
      vertex -1.08268 -0.26588 0.906475
    endloop
  endfacet
  facet normal 0 0 1
    outer loop
      vertex -0.255906 0.464994 0.906475
      vertex -1.08268 0.464994 0.906475
      vertex -1.08268 -0.26588 0.906475
    endloop
  endfacet
  facet normal 0 0.928477 -0.371391
    outer loop
      vertex -0.370708 0.702526 1.13917
      vertex -0.370708 0.629417 0.956398
      vertex -0.967875 0.702526 1.13917
    endloop
  endfacet
  facet normal 0 0.928477 -0.371391
    outer loop
      vertex -0.370708 0.629417 0.956398
      vertex -0.967875 0.629417 0.956398
      vertex -0.967875 0.702526 1.13917
    endloop
  endfacet
  facet normal 0.71056 0.653311 -0.261324
    outer loop
      vertex -0.354331 0.614062 0.96254
      vertex -0.370708 0.629417 0.956398
      vertex -0.354331 0.643497 1.03613
    endloop
  endfacet
  facet normal 0.710559 0.653311 -0.261324
    outer loop
      vertex -0.370708 0.629417 0.956398
      vertex -0.370708 0.702526 1.13917
      vertex -0.354331 0.643497 1.03613
    endloop
  endfacet
  facet normal 0.71056 0.653311 -0.261324
    outer loop
      vertex -0.354331 0.643497 1.03613
      vertex -0.370708 0.702526 1.13917
      vertex -0.320567 0.643497 1.12793
    endloop
  endfacet
  facet normal 0.71056 0.653311 -0.261321
    outer loop
      vertex -0.174977 0.517428 1.20863
      vertex -0.174987 0.516911 1.20731
      vertex -0.370708 0.702526 1.13917
    endloop
  endfacet
  facet normal 0.71056 0.653308 -0.26133
    outer loop
      vertex -0.174987 0.516911 1.20731
      vertex -0.175008 0.516405 1.20599
      vertex -0.370708 0.702526 1.13917
    endloop
  endfacet
  facet normal 0.71056 0.653318 -0.261304
    outer loop
      vertex -0.175012 0.519039 1.21256
      vertex -0.174989 0.518491 1.21126
      vertex -0.370708 0.702526 1.13917
    endloop
  endfacet
  facet normal 0.71056 0.653302 -0.261344
    outer loop
      vertex -0.174989 0.518491 1.21126
      vertex -0.174977 0.517954 1.20995
      vertex -0.370708 0.702526 1.13917
    endloop
  endfacet
  facet normal 0.71056 0.653312 -0.261319
    outer loop
      vertex -0.370708 0.702526 1.13917
      vertex -0.174977 0.517954 1.20995
      vertex -0.174977 0.517428 1.20863
    endloop
  endfacet
  facet normal 0.71056 0.653316 -0.261307
    outer loop
      vertex -0.175008 0.516405 1.20599
      vertex -0.175039 0.515909 1.20466
      vertex -0.370708 0.702526 1.13917
    endloop
  endfacet
  facet normal 0.71056 0.653306 -0.261334
    outer loop
      vertex -0.175039 0.515909 1.20466
      vertex -0.175082 0.515424 1.20333
      vertex -0.370708 0.702526 1.13917
    endloop
  endfacet
  facet normal 0.71056 0.65331 -0.261324
    outer loop
      vertex -0.370708 0.702526 1.13917
      vertex -0.175082 0.515424 1.20333
      vertex -0.175131 0.514999 1.20214
    endloop
  endfacet
  facet normal 0.710559 0.653303 -0.261344
    outer loop
      vertex -0.175131 0.514999 1.20214
      vertex -0.17519 0.514584 1.20094
      vertex -0.370708 0.702526 1.13917
    endloop
  endfacet
  facet normal 0.710561 0.65332 -0.261296
    outer loop
      vertex -0.17519 0.514584 1.20094
      vertex -0.17526 0.51418 1.19974
      vertex -0.370708 0.702526 1.13917
    endloop
  endfacet
  facet normal 0.71056 0.653305 -0.261337
    outer loop
      vertex -0.370708 0.702526 1.13917
      vertex -0.17526 0.51418 1.19974
      vertex -0.175343 0.513789 1.19854
    endloop
  endfacet
  facet normal 0.71056 0.65331 -0.261324
    outer loop
      vertex -0.182551 0.493386 1.12793
      vertex -0.320567 0.643497 1.12793
      vertex -0.175538 0.513111 1.19631
    endloop
  endfacet
  facet normal 0.71056 0.653311 -0.261322
    outer loop
      vertex -0.320567 0.643497 1.12793
      vertex -0.370708 0.702526 1.13917
      vertex -0.175538 0.513111 1.19631
    endloop
  endfacet
  facet normal 0.710559 0.653305 -0.261338
    outer loop
      vertex -0.175538 0.513111 1.19631
      vertex -0.370708 0.702526 1.13917
      vertex -0.175441 0.513413 1.19733
    endloop
  endfacet
  facet normal 0.71056 0.65331 -0.261323
    outer loop
      vertex -0.370708 0.702526 1.13917
      vertex -0.175343 0.513789 1.19854
      vertex -0.175441 0.513413 1.19733
    endloop
  endfacet
  facet normal -0.70756 0.671215 -0.220973
    outer loop
      vertex -1.16317 0.519412 1.21241
      vertex -1.16316 0.51942 1.21241
      vertex -1.16437 0.515344 1.20391
    endloop
  endfacet
  facet normal -0.71056 0.65331 -0.261324
    outer loop
      vertex -1.01802 0.643497 1.12793
      vertex -0.967875 0.702526 1.13917
      vertex -0.984252 0.643497 1.03613
    endloop
  endfacet
  facet normal -0.710559 0.653311 -0.261324
    outer loop
      vertex -0.967875 0.702526 1.13917
      vertex -0.967875 0.629417 0.956398
      vertex -0.984252 0.643497 1.03613
    endloop
  endfacet
  facet normal -0.71056 0.653311 -0.261324
    outer loop
      vertex -0.984252 0.643497 1.03613
      vertex -0.967875 0.629417 0.956398
      vertex -0.984252 0.614062 0.96254
    endloop
  endfacet
  facet normal -0.856165 0.500023 -0.130222
    outer loop
      vertex -1.16437 0.515344 1.20391
      vertex -1.16378 0.518256 1.21117
      vertex -1.16372 0.518427 1.21144
    endloop
  endfacet
  facet normal -0.709526 0.652359 -0.266461
    outer loop
      vertex -1.15603 0.493386 1.12793
      vertex -1.16437 0.515344 1.20391
      vertex -1.01802 0.643497 1.12793
    endloop
  endfacet
  facet normal -0.705053 0.673388 -0.222372
    outer loop
      vertex -1.16437 0.515344 1.20391
      vertex -1.16316 0.51942 1.21241
      vertex -1.01802 0.643497 1.12793
    endloop
  endfacet
  facet normal -0.71056 0.65331 -0.261323
    outer loop
      vertex -1.01802 0.643497 1.12793
      vertex -1.16316 0.51942 1.21241
      vertex -0.967875 0.702526 1.13917
    endloop
  endfacet
  facet normal -0.772572 0.607758 -0.183745
    outer loop
      vertex -1.16348 0.518971 1.21216
      vertex -1.16345 0.519027 1.21222
      vertex -1.16437 0.515344 1.20391
    endloop
  endfacet
  facet normal -0.764879 0.616047 -0.188272
    outer loop
      vertex -1.16345 0.519027 1.21222
      vertex -1.16342 0.519081 1.21227
      vertex -1.16437 0.515344 1.20391
    endloop
  endfacet
  facet normal -0.758386 0.622867 -0.19206
    outer loop
      vertex -1.16437 0.515344 1.20391
      vertex -1.16342 0.519081 1.21227
      vertex -1.16339 0.519132 1.21231
    endloop
  endfacet
  facet normal -0.828164 0.540282 -0.149131
    outer loop
      vertex -1.16372 0.518427 1.21144
      vertex -1.1636 0.518719 1.21185
      vertex -1.16437 0.515344 1.20391
    endloop
  endfacet
  facet normal -0.801633 0.574269 -0.166133
    outer loop
      vertex -1.1636 0.518719 1.21185
      vertex -1.16354 0.51885 1.21202
      vertex -1.16437 0.515344 1.20391
    endloop
  endfacet
  facet normal -0.784864 0.594034 -0.176387
    outer loop
      vertex -1.16437 0.515344 1.20391
      vertex -1.16354 0.51885 1.21202
      vertex -1.16348 0.518971 1.21216
    endloop
  endfacet
  facet normal -0.750808 0.630631 -0.196446
    outer loop
      vertex -1.16339 0.519132 1.21231
      vertex -1.16336 0.519181 1.21235
      vertex -1.16437 0.515344 1.20391
    endloop
  endfacet
  facet normal -0.743882 0.63755 -0.200423
    outer loop
      vertex -1.16336 0.519181 1.21235
      vertex -1.16333 0.519227 1.21238
      vertex -1.16437 0.515344 1.20391
    endloop
  endfacet
  facet normal -0.735881 0.645339 -0.204981
    outer loop
      vertex -1.16437 0.515344 1.20391
      vertex -1.16333 0.519227 1.21238
      vertex -1.16328 0.51929 1.21241
    endloop
  endfacet
  facet normal -0.726707 0.654003 -0.210183
    outer loop
      vertex -1.16328 0.51929 1.21241
      vertex -1.16323 0.519348 1.21242
      vertex -1.16437 0.515344 1.20391
    endloop
  endfacet
  facet normal -0.719017 0.661054 -0.214529
    outer loop
      vertex -1.16323 0.519348 1.21242
      vertex -1.1632 0.519385 1.21242
      vertex -1.16437 0.515344 1.20391
    endloop
  endfacet
  facet normal -0.713827 0.665706 -0.217454
    outer loop
      vertex -1.16437 0.515344 1.20391
      vertex -1.1632 0.519385 1.21242
      vertex -1.16317 0.519412 1.21241
    endloop
  endfacet
  facet normal -0.00933361 0.928484 -0.371256
    outer loop
      vertex -1.16415 0.516947 1.20791
      vertex -1.16437 0.515344 1.20391
      vertex -1.16423 0.51664 1.20714
    endloop
  endfacet
  facet normal -0.00969655 0.928486 -0.371241
    outer loop
      vertex -1.16437 0.515344 1.20391
      vertex -1.16439 0.515973 1.20548
      vertex -1.16423 0.51664 1.20714
    endloop
  endfacet
  facet normal -0.00924389 0.928483 -0.37126
    outer loop
      vertex -1.16415 0.516947 1.20791
      vertex -1.16406 0.517299 1.20879
      vertex -1.16437 0.515344 1.20391
    endloop
  endfacet
  facet normal -0.00864832 0.928474 -0.371296
    outer loop
      vertex -1.16406 0.517299 1.20879
      vertex -1.16387 0.517952 1.21042
      vertex -1.16437 0.515344 1.20391
    endloop
  endfacet
  facet normal -0.00915628 0.928484 -0.37126
    outer loop
      vertex -1.16437 0.515344 1.20391
      vertex -1.16387 0.517952 1.21042
      vertex -1.16378 0.518256 1.21117
    endloop
  endfacet
  facet normal 0 0 1
    outer loop
      vertex -0.984252 0.543734 0.931081
      vertex -0.984252 0.643497 0.931081
      vertex -1.1811 0.643497 0.931081
    endloop
  endfacet
  facet normal 0 0 1
    outer loop
      vertex -0.905512 0.464994 0.931081
      vertex -0.984252 0.543734 0.931081
      vertex -1.10728 0.464994 0.931081
    endloop
  endfacet
  facet normal 0 0 1
    outer loop
      vertex -0.984252 0.543734 0.931081
      vertex -1.1811 0.643497 0.931081
      vertex -1.10728 0.464994 0.931081
    endloop
  endfacet
  facet normal 0 0 1
    outer loop
      vertex -1.10728 0.464994 0.931081
      vertex -1.1811 0.643497 0.931081
      vertex -1.10728 -0.255688 0.931081
    endloop
  endfacet
  facet normal 0 0 1
    outer loop
      vertex -1.1811 0.643497 0.931081
      vertex -1.1811 -0.255688 0.931081
      vertex -1.10728 -0.255688 0.931081
    endloop
  endfacet
  facet normal 0 0 1
    outer loop
      vertex -0.231299 -0.255688 0.931081
      vertex -0.15748 -0.255688 0.931081
      vertex -0.231299 0.464994 0.931081
    endloop
  endfacet
  facet normal 0 0 1
    outer loop
      vertex -0.15748 -0.255688 0.931081
      vertex -0.15748 0.643497 0.931081
      vertex -0.231299 0.464994 0.931081
    endloop
  endfacet
  facet normal 0 0 1
    outer loop
      vertex -0.15748 0.643497 0.931081
      vertex -0.354331 0.643497 0.931081
      vertex -0.231299 0.464994 0.931081
    endloop
  endfacet
  facet normal 0 0 1
    outer loop
      vertex -0.354331 0.643497 0.931081
      vertex -0.354331 0.543734 0.931081
      vertex -0.231299 0.464994 0.931081
    endloop
  endfacet
  facet normal 0 0 1
    outer loop
      vertex -0.231299 0.464994 0.931081
      vertex -0.354331 0.543734 0.931081
      vertex -0.433071 0.464994 0.931081
    endloop
  endfacet
endsolid Mesh
