solid Mesh
  facet normal 0 -0.109943 -0.993938
    outer loop
      vertex -0.275877 2.1982 2.25837
      vertex 0.275877 2.1982 2.25837
      vertex -0.27031 1.87785 2.2938
    endloop
  endfacet
  facet normal 2.37896e-8 -0.109943 -0.993938
    outer loop
      vertex 0.275877 2.1982 2.25837
      vertex 0.27031 1.87785 2.2938
      vertex -0.27031 1.87785 2.2938
    endloop
  endfacet
  facet normal 2.37837e-8 -0.109943 -0.993938
    outer loop
      vertex -0.27031 1.87785 2.2938
      vertex 0.27031 1.87785 2.2938
      vertex -0.275877 1.55752 2.32924
    endloop
  endfacet
  facet normal 0 -0.109943 -0.993938
    outer loop
      vertex 0.27031 1.87785 2.2938
      vertex 0.275877 1.55752 2.32924
      vertex -0.275877 1.55752 2.32924
    endloop
  endfacet
  facet normal 0 -0.109943 -0.993938
    outer loop
      vertex -0.275877 1.55752 2.32924
      vertex 0.275877 1.55752 2.32924
      vertex -0.275877 0.645306 2.43014
    endloop
  endfacet
  facet normal 0 -0.109943 -0.993938
    outer loop
      vertex 0.275877 1.55752 2.32924
      vertex 0.275877 0.645306 2.43014
      vertex -0.275877 0.645306 2.43014
    endloop
  endfacet
  facet normal 0 0.109943 0.993938
    outer loop
      vertex -0.275877 0.753518 3.40842
      vertex 0.275877 0.753518 3.40842
      vertex -0.275877 1.66573 3.30752
    endloop
  endfacet
  facet normal 0 0.109943 0.993938
    outer loop
      vertex 0.275877 0.753518 3.40842
      vertex 0.275877 1.66573 3.30752
      vertex -0.275877 1.66573 3.30752
    endloop
  endfacet
  facet normal 0 0.109943 0.993938
    outer loop
      vertex -0.275877 1.66573 3.30752
      vertex 0.275877 1.66573 3.30752
      vertex -0.27031 1.98606 3.27209
    endloop
  endfacet
  facet normal -2.63597e-7 0.109942 0.993938
    outer loop
      vertex 0.275877 1.66573 3.30752
      vertex 0.27031 1.98606 3.27209
      vertex -0.27031 1.98606 3.27209
    endloop
  endfacet
  facet normal -2.63608e-7 0.109943 0.993938
    outer loop
      vertex -0.27031 1.98606 3.27209
      vertex 0.27031 1.98606 3.27209
      vertex -0.275877 2.30641 3.23665
    endloop
  endfacet
  facet normal 0 0.109943 0.993938
    outer loop
      vertex 0.27031 1.98606 3.27209
      vertex 0.275877 2.30641 3.23665
      vertex -0.275877 2.30641 3.23665
    endloop
  endfacet
  facet normal 0.999851 0.0171651 -0.00189869
    outer loop
      vertex 0.275877 1.66573 3.30752
      vertex 0.275877 1.55752 2.32924
      vertex 0.27031 1.87785 2.2938
    endloop
  endfacet
  facet normal 0.999851 0.0171651 -0.00189869
    outer loop
      vertex 0.275877 1.66573 3.30752
      vertex 0.27031 1.87785 2.2938
      vertex 0.27031 1.98606 3.27209
    endloop
  endfacet
  facet normal 0.999851 -0.0171646 0.00189863
    outer loop
      vertex 0.27031 1.87785 2.2938
      vertex 0.275877 2.1982 2.25837
      vertex 0.27031 1.98606 3.27209
    endloop
  endfacet
  facet normal 0.999851 -0.0171646 0.00189863
    outer loop
      vertex 0.27031 1.98606 3.27209
      vertex 0.275877 2.1982 2.25837
      vertex 0.275877 2.30641 3.23665
    endloop
  endfacet
  facet normal 0 0.993938 -0.109943
    outer loop
      vertex -0.275877 2.30641 3.23665
      vertex 0.275877 2.30641 3.23665
      vertex -0.275877 2.1982 2.25837
    endloop
  endfacet
  facet normal 0 0.993938 -0.109943
    outer loop
      vertex 0.275877 2.30641 3.23665
      vertex 0.275877 2.1982 2.25837
      vertex -0.275877 2.1982 2.25837
    endloop
  endfacet
  facet normal 1 0 0
    outer loop
      vertex 0.275877 1.66573 3.30752
      vertex 0.275877 0.753518 3.40842
      vertex 0.275877 1.55752 2.32924
    endloop
  endfacet
  facet normal 1 0 0
    outer loop
      vertex 0.275877 0.753518 3.40842
      vertex 0.275877 0.645306 2.43014
      vertex 0.275877 1.55752 2.32924
    endloop
  endfacet
  facet normal -0.999851 -0.0171628 0.00189843
    outer loop
      vertex -0.275877 2.30641 3.23665
      vertex -0.275877 2.1982 2.25837
      vertex -0.27031 1.87785 2.2938
    endloop
  endfacet
  facet normal -0.999851 -0.0171628 0.00189843
    outer loop
      vertex -0.275877 2.30641 3.23665
      vertex -0.27031 1.87785 2.2938
      vertex -0.27031 1.98606 3.27209
    endloop
  endfacet
  facet normal -0.999851 0.017164 -0.00189856
    outer loop
      vertex -0.27031 1.87785 2.2938
      vertex -0.275877 1.55752 2.32924
      vertex -0.27031 1.98606 3.27209
    endloop
  endfacet
  facet normal -0.999851 0.017164 -0.00189856
    outer loop
      vertex -0.27031 1.98606 3.27209
      vertex -0.275877 1.55752 2.32924
      vertex -0.275877 1.66573 3.30752
    endloop
  endfacet
  facet normal -1 0 0
    outer loop
      vertex -0.275877 0.753518 3.40842
      vertex -0.275877 1.66573 3.30752
      vertex -0.275877 0.645306 2.43014
    endloop
  endfacet
  facet normal -1 0 0
    outer loop
      vertex -0.275877 1.66573 3.30752
      vertex -0.275877 1.55752 2.32924
      vertex -0.275877 0.645306 2.43014
    endloop
  endfacet
  facet normal 0 -0.993938 0.109943
    outer loop
      vertex 0.275877 0.753518 3.40842
      vertex -0.275877 0.753518 3.40842
      vertex 0.275877 0.645306 2.43014
    endloop
  endfacet
  facet normal 0 -0.993938 0.109943
    outer loop
      vertex -0.275877 0.753518 3.40842
      vertex -0.275877 0.645306 2.43014
      vertex 0.275877 0.645306 2.43014
    endloop
  endfacet
endsolid Mesh
