solid Mesh
  facet normal -1 0 0
    outer loop
      vertex 0 -3.57213 1.98226
      vertex 0 -3.55992 2.01376
      vertex 0 -3.55992 1.7732
    endloop
  endfacet
  facet normal -1 0 0
    outer loop
      vertex 0 -3.57213 1.98226
      vertex 0 -3.55992 1.7732
      vertex 0 -3.57524 1.98226
    endloop
  endfacet
  facet normal -1 0 0
    outer loop
      vertex 0 -3.55992 1.7732
      vertex 0 -3.64594 1.55132
      vertex 0 -3.57524 1.98226
    endloop
  endfacet
  facet normal -1 0 0
    outer loop
      vertex 0 -3.57524 1.98226
      vertex 0 -3.64594 1.55132
      vertex 0 -3.77209 1.38859
    endloop
  endfacet
  facet normal 0.657413 -0.702582 0.272372
    outer loop
      vertex 1.94155 -3.55992 1.7732
      vertex 1.84188 -3.55992 2.01376
      vertex 1.84188 -3.57213 1.98226
    endloop
  endfacet
  facet normal 0.657411 -0.702584 0.272371
    outer loop
      vertex 1.94155 -3.55992 1.7732
      vertex 1.84188 -3.57213 1.98226
      vertex 1.94155 -3.64594 1.55132
    endloop
  endfacet
  facet normal 0.657433 -0.702563 0.272373
    outer loop
      vertex 1.84188 -3.57213 1.98226
      vertex 1.83856 -3.57524 1.98226
      vertex 1.94155 -3.64594 1.55132
    endloop
  endfacet
  facet normal 0.657411 -0.702585 0.272371
    outer loop
      vertex 1.94155 -3.64594 1.55132
      vertex 1.83856 -3.57524 1.98226
      vertex 1.87415 -3.77209 1.38859
    endloop
  endfacet
  facet normal 0 0.790319 -0.612696
    outer loop
      vertex 0 -3.64594 1.55132
      vertex 1.94155 -3.64594 1.55132
      vertex 0 -3.77209 1.38859
    endloop
  endfacet
  facet normal 0 0.790319 -0.612696
    outer loop
      vertex 1.94155 -3.64594 1.55132
      vertex 1.87415 -3.77209 1.38859
      vertex 0 -3.77209 1.38859
    endloop
  endfacet
  facet normal 0 0.932388 -0.36146
    outer loop
      vertex 0 -3.55992 1.7732
      vertex 1.94155 -3.55992 1.7732
      vertex 0 -3.64594 1.55132
    endloop
  endfacet
  facet normal 0 0.932388 -0.36146
    outer loop
      vertex 1.94155 -3.55992 1.7732
      vertex 1.94155 -3.64594 1.55132
      vertex 0 -3.64594 1.55132
    endloop
  endfacet
  facet normal 0 0 1
    outer loop
      vertex 0 -3.57524 1.98226
      vertex 1.83856 -3.57524 1.98226
      vertex 0 -3.57213 1.98226
    endloop
  endfacet
  facet normal 0 0 1
    outer loop
      vertex 1.83856 -3.57524 1.98226
      vertex 1.84188 -3.57213 1.98226
      vertex 0 -3.57213 1.98226
    endloop
  endfacet
  facet normal 0 -0.932387 0.361461
    outer loop
      vertex 0 -3.57213 1.98226
      vertex 1.84188 -3.57213 1.98226
      vertex 0 -3.55992 2.01376
    endloop
  endfacet
  facet normal 0 -0.932387 0.361461
    outer loop
      vertex 1.84188 -3.57213 1.98226
      vertex 1.84188 -3.55992 2.01376
      vertex 0 -3.55992 2.01376
    endloop
  endfacet
  facet normal 0 1 0
    outer loop
      vertex 0 -3.55992 2.01376
      vertex 1.84188 -3.55992 2.01376
      vertex 0 -3.55992 1.7732
    endloop
  endfacet
  facet normal 0 1 0
    outer loop
      vertex 1.84188 -3.55992 2.01376
      vertex 1.94155 -3.55992 1.7732
      vertex 0 -3.55992 1.7732
    endloop
  endfacet
  facet normal 0 -0.949181 0.314732
    outer loop
      vertex 1.87415 -3.77209 1.38859
      vertex 1.83856 -3.57524 1.98226
      vertex 0 -3.77209 1.38859
    endloop
  endfacet
  facet normal 0 -0.949181 0.314732
    outer loop
      vertex 1.83856 -3.57524 1.98226
      vertex 0 -3.57524 1.98226
      vertex 0 -3.77209 1.38859
    endloop
  endfacet
endsolid Mesh
