solid Mesh
  facet normal 0.68875 -0.707098 -0.160114
    outer loop
      vertex 1.75884 -3.77209 1.06737
      vertex 1.7447 -3.7817 1.04895
      vertex 1.7447 -3.77209 1.00653
    endloop
  endfacet
  facet normal 0 1 0
    outer loop
      vertex 1.7447 -3.77209 1.00653
      vertex 1.7447 -3.77209 1.04394
      vertex 1.75884 -3.77209 1.06737
    endloop
  endfacet
  facet normal -0.826559 0.260323 0.499031
    outer loop
      vertex 1.75884 -3.77209 1.06737
      vertex 1.7447 -3.77209 1.04394
      vertex 1.7447 -3.7817 1.04895
    endloop
  endfacet
  facet normal -1 0 0
    outer loop
      vertex 1.7447 -3.77209 1.04394
      vertex 1.7447 -3.77209 1.00653
      vertex 1.7447 -3.7817 1.04895
    endloop
  endfacet
endsolid Mesh
